<svg width="650" height="650" viewBox="0 0 650 650" fill="none" xmlns="http://www.w3.org/2000/svg">
<path d="M66.4039 349.089C66.4039 349.089 69.4329 442.897 147.745 505.414C226.057 567.931 334.542 572.416 422.383 578.357C510.224 584.298 577.694 534.56 587.86 459.394C598.026 384.228 530.907 362.167 494.494 276.601C458.081 191.035 461.318 162.903 384.267 110.279C307.216 57.6547 186.667 89.9727 123.5 180.128C60.3329 270.283 66.4039 349.089 66.4039 349.089Z" fill="#FFCF23" fill-opacity="0.5"/>
<path opacity="0.7" d="M66.4039 349.089C66.4039 349.089 69.4329 442.897 147.745 505.414C226.057 567.931 334.542 572.416 422.383 578.357C510.224 584.298 577.694 534.56 587.86 459.394C598.026 384.228 530.907 362.167 494.494 276.601C458.081 191.035 461.318 162.903 384.267 110.279C307.216 57.6547 186.667 89.9727 123.5 180.128C60.3329 270.283 66.4039 349.089 66.4039 349.089Z" fill="white"/>
<path d="M570.73 366.167H56.3335" stroke="#263238" stroke-width="1.33905" stroke-miterlimit="10"/>
<path d="M135.066 115.828C135.066 109.859 137.823 105.474 144.031 105.474C150.238 105.474 153.103 109.815 153.103 115.828V136.795C153.103 142.764 150.347 147.148 144.031 147.148C137.714 147.148 135.066 142.807 135.066 136.795V115.828ZM137.758 136.968C137.758 141.309 139.516 144.695 144.031 144.695C148.545 144.695 150.412 141.418 150.412 136.968V115.654C150.412 111.313 148.589 107.927 144.031 107.927C139.473 107.927 137.758 111.204 137.758 115.654V136.968Z" fill="#263238"/>
<path d="M157.381 115.828C157.381 109.859 160.137 105.474 166.323 105.474C172.509 105.474 175.396 109.815 175.396 115.828V136.795C175.396 142.764 172.661 147.148 166.323 147.148C159.985 147.148 157.381 142.807 157.381 136.795V115.828ZM160.072 136.968C160.072 141.309 161.83 144.695 166.323 144.695C170.816 144.695 172.704 141.418 172.704 136.968V115.654C172.704 111.313 170.903 107.927 166.323 107.927C161.743 107.927 160.072 111.204 160.072 115.654V136.968Z" fill="#263238"/>
<path d="M188.331 105.821C194.669 105.821 197.122 109.815 197.122 115.783V120.233C197.122 126.744 194.127 129.935 187.637 129.935H182.536V146.8H179.845V105.821H188.331ZM187.637 127.526C192.369 127.526 194.431 125.355 194.431 120.45V115.653C194.431 111.204 192.911 108.339 188.331 108.339H182.536V127.526H187.637Z" fill="#263238"/>
<path d="M218.436 115.719V116.587H215.853V115.545C215.853 111.204 214.225 107.927 209.776 107.927C205.326 107.927 203.677 111.161 203.677 115.48C203.677 125.443 218.479 125.616 218.479 136.903C218.479 142.807 215.918 147.148 209.646 147.148C203.373 147.148 200.812 142.807 200.812 136.903V134.732H203.394V136.903C203.394 141.244 205.087 144.456 209.602 144.456C214.117 144.456 215.788 141.287 215.788 136.903C215.788 127.07 200.985 126.897 200.985 115.48C200.985 109.337 203.677 105.365 209.667 105.3C215.658 105.235 218.436 109.815 218.436 115.719Z" fill="#263238"/>
<path d="M225.099 141.657V146.801H222.473V141.657H225.099Z" fill="#263238"/>
<path d="M232.481 141.657V146.801H229.854V141.657H232.481Z" fill="#263238"/>
<path d="M239.794 141.657V146.801H237.167V141.657H239.794Z" fill="#263238"/>
<path d="M39.0002 286.929L85.1235 177.861H112.798V286.929H124.779V309.979H112.798V339.26H87.8801V309.979H39.0002V286.929ZM87.8801 286.929V226.285L62.3115 286.929H87.8801Z" fill="#263238"/>
<path d="M134.242 216.583C134.242 190.775 147.852 176.016 172.747 176.016C197.643 176.016 211.252 190.775 211.252 216.583V300.516C211.252 326.345 197.643 341.105 172.747 341.105C147.852 341.105 134.242 326.345 134.242 300.516V216.583ZM159.594 302.144C159.594 313.669 164.673 318.054 172.747 318.054C180.822 318.054 185.901 313.713 185.901 302.144V214.976C185.901 203.451 180.822 199.067 172.747 199.067C164.673 199.067 159.594 203.408 159.594 214.976V302.144Z" fill="#FFCF23"/>
<path d="M221.627 286.929L267.751 177.861H295.425V286.929H307.406V309.979H295.425V339.26H270.507V309.979H221.627V286.929ZM270.507 286.929V226.285L244.917 286.929H270.507Z" fill="#263238"/>
<path d="M50.1131 378.025C56.3207 378.025 58.7951 381.932 58.7951 387.77V392.111C58.7951 398.471 55.8649 401.64 49.5053 401.64H44.5132V418.136H41.8V378.025H50.1131ZM49.4402 399.252C54.0851 399.252 56.082 397.082 56.082 392.307V387.597C56.082 383.256 54.606 380.434 50.1131 380.434H44.4481V399.252H49.4402Z" fill="#263238"/>
<path d="M65.7845 409.193L63.766 418.071H61.3784L70.0604 377.873H73.9022L82.8447 418.071H80.2835L78.2867 409.193H65.7845ZM66.1752 406.893H77.8743L71.9705 380.847L66.1752 406.893Z" fill="#263238"/>
<path d="M104.031 388.285V391.258H101.491V388.111C101.491 383.77 99.8417 380.536 95.4139 380.536C90.9861 380.536 89.3365 383.813 89.3365 388.111V408.991C89.3365 413.332 91.0078 416.501 95.4139 416.501C99.82 416.501 101.491 413.289 101.491 408.991V400.309H96.1736V397.922H104.031V408.774C104.031 414.57 101.491 418.91 95.3488 418.91C89.2062 418.91 86.6667 414.57 86.6667 408.774V388.241C86.6667 382.446 89.1845 378.083 95.3488 378.083C101.513 378.083 104.031 382.489 104.031 388.285Z" fill="#263238"/>
<path d="M122.044 396.604V399.014H111.191V415.705H124.366V418.092H108.543V378.025H124.366V380.434H111.191V396.604H122.044Z" fill="#263238"/>
<path d="M139.886 418.158H137.476V378.025H140.927L152.974 411.906V378.025H155.383V418.158H152.453L139.886 382.388V418.158Z" fill="#263238"/>
<path d="M159.745 387.835C159.745 381.975 162.437 377.677 168.427 377.677C174.418 377.677 177.305 382.018 177.305 387.835V408.368C177.305 414.207 174.613 418.505 168.427 418.505C162.241 418.505 159.745 414.164 159.745 408.368V387.835ZM162.372 408.542C162.372 412.883 164.086 416.095 168.514 416.095C172.942 416.095 174.765 412.883 174.765 408.542V387.662C174.765 383.321 172.985 380.087 168.514 380.087C164.043 380.087 162.372 383.299 162.372 387.662V408.542Z" fill="#263238"/>
<path d="M188.527 418.158V380.434H180.388V378.025H199.358V380.434H191.175V418.158H188.527Z" fill="#263238"/>
<path d="M224.557 397.581V399.99H214.247V418.158H211.62V378.025H226.814V380.434H214.247V397.581H224.557Z" fill="#263238"/>
<path d="M230.635 387.835C230.635 381.975 233.326 377.677 239.317 377.677C245.307 377.677 248.216 382.018 248.216 387.835V408.368C248.216 414.207 245.503 418.505 239.317 418.505C233.131 418.505 230.635 414.164 230.635 408.368V387.835ZM233.261 408.542C233.261 412.883 234.997 416.095 239.404 416.095C243.81 416.095 245.655 412.883 245.655 408.542V387.662C245.655 383.321 243.875 380.087 239.404 380.087C234.932 380.087 233.261 383.299 233.261 387.662V408.542Z" fill="#263238"/>
<path d="M255.183 408.476C255.183 412.817 256.79 416.094 261.196 416.094C265.602 416.094 267.23 412.774 267.23 408.476V378.089H269.682V408.476C269.682 414.206 267.273 418.612 261.152 418.612C255.031 418.612 252.47 414.271 252.47 408.476V378.089H255.118L255.183 408.476Z" fill="#263238"/>
<path d="M276.629 418.158H274.219V378.025H277.67L289.717 411.906V378.025H292.126V418.158H289.196L276.629 382.388V418.158Z" fill="#263238"/>
<path d="M305.408 378.025C311.616 378.025 314.307 382.105 314.307 388.009V408.195C314.307 414.099 311.616 418.158 305.408 418.158H296.726V378.025H305.408ZM305.408 415.705C309.88 415.705 311.703 412.644 311.703 408.238V387.814C311.703 383.473 309.814 380.369 305.408 380.369H299.266V415.705H305.408Z" fill="#263238"/>
<path d="M553.862 430.807C552.822 430.809 551.798 430.546 550.888 430.043C549.977 429.54 549.21 428.813 548.658 427.931C548.107 427.049 547.789 426.041 547.735 425.002C547.681 423.963 547.893 422.928 548.35 421.993C549.535 419.62 549.769 416.883 549.003 414.343C548.237 411.804 546.529 409.652 544.229 408.33C535.051 402.454 513.705 401.518 506.23 401.635H506.126C504.499 401.651 502.932 401.019 501.77 399.879C500.608 398.74 499.947 397.185 499.931 395.558C499.916 393.93 500.548 392.364 501.687 391.202C502.827 390.04 504.382 389.379 506.009 389.363C509.142 389.298 536.897 389.077 550.833 397.995C564.574 406.796 562.442 421.018 559.387 427.323C558.886 428.364 558.102 429.243 557.125 429.86C556.148 430.476 555.017 430.804 553.862 430.807Z" fill="#263238"/>
<path d="M582.15 463.177L580.798 467.766L560.323 434.096L559.79 426.829L582.15 463.177Z" fill="white" stroke="#263238" stroke-width="0.619" stroke-linecap="round" stroke-linejoin="round"/>
<path d="M580.798 467.766L587.194 464.607L588.338 460.226L582.15 463.177L580.798 467.766Z" fill="white" stroke="#263238" stroke-width="0.619" stroke-linecap="round" stroke-linejoin="round"/>
<path d="M557.099 423.059L580.798 422.24L588.338 460.226L582.15 463.177L557.099 423.059Z" fill="white" stroke="#263238" stroke-width="0.619" stroke-linecap="round" stroke-linejoin="round"/>
<path d="M553.862 424.671L577.561 464.529L569.761 468.299L534.739 439.751L553.862 424.671Z" fill="white" stroke="#263238" stroke-width="0.619" stroke-linecap="round" stroke-linejoin="round"/>
<path d="M569.761 468.299L568.682 472.342L533.4 444.327L534.739 439.751L569.761 468.299Z" fill="white" stroke="#263238" stroke-width="0.619" stroke-linecap="round" stroke-linejoin="round"/>
<path d="M569.761 468.3L577.561 464.53L576.495 468.573L568.682 472.343L569.761 468.3Z" fill="white" stroke="#263238" stroke-width="0.619" stroke-linecap="round" stroke-linejoin="round"/>
<path d="M567.01 439.046C571.701 434.355 571.701 426.749 567.01 422.058C562.319 417.367 554.713 417.367 550.022 422.058C545.331 426.749 545.331 434.355 550.022 439.046C554.713 443.736 562.319 443.736 567.01 439.046Z" fill="#FFCF23" stroke="#263238" stroke-width="0.619" stroke-linecap="round" stroke-linejoin="round"/>
<path d="M305.367 463.177L306.719 467.766L327.181 434.096L327.727 426.829L305.367 463.177Z" fill="white" stroke="#263238" stroke-width="0.619" stroke-linecap="round" stroke-linejoin="round"/>
<path d="M306.72 467.766L300.324 464.607L299.18 460.226L305.368 463.177L306.72 467.766Z" fill="white" stroke="#263238" stroke-width="0.619" stroke-linecap="round" stroke-linejoin="round"/>
<path d="M330.419 423.059L306.72 422.24L299.18 460.226L305.368 463.177L330.419 423.059Z" fill="white" stroke="#263238" stroke-width="0.619" stroke-linecap="round" stroke-linejoin="round"/>
<path d="M333.655 424.671L309.943 464.529L317.756 468.299L352.765 439.751L333.655 424.671Z" fill="white" stroke="#263238" stroke-width="0.619" stroke-linecap="round" stroke-linejoin="round"/>
<path d="M317.756 468.299L318.835 472.342L354.117 444.327L352.765 439.751L317.756 468.299Z" fill="white" stroke="#263238" stroke-width="0.619" stroke-linecap="round" stroke-linejoin="round"/>
<path d="M317.756 468.3L309.943 464.53L311.022 468.573L318.835 472.343L317.756 468.3Z" fill="white" stroke="#263238" stroke-width="0.619" stroke-linecap="round" stroke-linejoin="round"/>
<path d="M329.768 434.889C328.499 434.895 327.259 434.506 326.22 433.778C325.181 433.049 324.393 432.016 323.965 430.822C323.538 429.627 323.491 428.329 323.832 427.106C324.172 425.884 324.884 424.797 325.868 423.995C374.644 384.306 364.712 325.117 364.608 324.519C364.365 322.937 364.751 321.322 365.682 320.019C366.614 318.717 368.017 317.83 369.594 317.549C371.17 317.267 372.794 317.613 374.119 318.512C375.444 319.411 376.365 320.792 376.685 322.361C377.166 325.078 387.943 389.311 333.616 433.511C332.53 434.399 331.171 434.885 329.768 434.889Z" fill="#263238"/>
<path d="M401.023 311.445C403.137 298.346 394.233 286.013 381.134 283.899C368.036 281.785 355.703 290.689 353.589 303.787C351.474 316.886 360.378 329.219 373.477 331.333C386.575 333.447 398.908 324.543 401.023 311.445Z" fill="#ADADAD" stroke="#263238" stroke-width="0.619" stroke-linecap="round" stroke-linejoin="round"/>
<path d="M337.486 439.042C342.177 434.351 342.177 426.745 337.486 422.054C332.795 417.363 325.19 417.363 320.499 422.054C315.808 426.745 315.808 434.351 320.499 439.042C325.19 443.733 332.795 443.733 337.486 439.042Z" fill="#FFCF23" stroke="#263238" stroke-width="0.619" stroke-linecap="round" stroke-linejoin="round"/>
<path d="M441.634 406.549C462.692 406.549 479.763 390.624 479.763 370.981C479.763 351.337 462.692 335.413 441.634 335.413C420.576 335.413 403.505 351.337 403.505 370.981C403.505 390.624 420.576 406.549 441.634 406.549Z" fill="#ADADAD" stroke="#263238" stroke-width="0.619" stroke-linecap="round" stroke-linejoin="round"/>
<path d="M421.769 355.784L425.331 369.681C426.384 373.12 428.614 376.078 431.632 378.035C434.649 379.992 438.259 380.822 441.828 380.38C445.393 379.935 448.686 378.246 451.129 375.611C453.571 372.976 455.005 369.565 455.179 365.976L455.881 351.962L421.769 355.784Z" fill="#263238" stroke="#263238" stroke-width="0.619" stroke-linecap="round" stroke-linejoin="round"/>
<path d="M496.936 285.857C493.338 285.909 489.753 285.418 486.302 284.401L487.289 281.502C487.458 281.502 504.527 287.053 521.908 274.339L523.716 276.822C515.994 282.638 506.602 285.806 496.936 285.857Z" fill="#263238"/>
<path d="M516.097 308.919C502.031 288.366 486.028 289.913 485.872 289.926L485.534 286.884C486.262 286.806 503.539 285.129 518.619 307.19L516.097 308.919Z" fill="#263238"/>
<path d="M512.535 323.44C494.335 317.837 483.402 293.605 482.934 292.578L485.742 291.278C485.846 291.525 496.584 315.263 513.445 320.45L512.535 323.44Z" fill="#263238"/>
<path d="M521.999 276.406L526.913 273.13" stroke="#263238" stroke-width="0.619" stroke-miterlimit="10"/>
<path d="M515.993 305.331L519.269 311.87" stroke="#263238" stroke-width="0.619" stroke-miterlimit="10"/>
<path d="M510.26 320.879C512.85 321.538 515.505 321.904 518.177 321.971" stroke="#263238" stroke-width="0.619" stroke-miterlimit="10"/>
<path d="M372.265 281.346L376.802 313.079L489.707 301.535L489.291 268.567L372.265 281.346Z" fill="white" stroke="#263238" stroke-width="0.619" stroke-linecap="round" stroke-linejoin="round"/>
<path d="M376.802 313.08L396.991 364.17L483.935 355.512L489.707 301.536L376.802 313.08Z" fill="#E5E5E5" stroke="#263238" stroke-width="0.619" stroke-linecap="round" stroke-linejoin="round"/>
<path d="M404.037 326.43L411.967 349.83C412.533 351.518 413.665 352.958 415.173 353.906C416.68 354.854 418.468 355.251 420.235 355.03L455.062 351.234C456.82 351.02 458.451 350.208 459.682 348.935C460.912 347.662 461.668 346.004 461.822 344.24L463.98 319.631C464.053 318.825 463.945 318.013 463.665 317.254C463.385 316.495 462.939 315.808 462.36 315.243C461.782 314.678 461.084 314.249 460.319 313.987C459.553 313.725 458.739 313.637 457.935 313.729L408.626 319.241C407.813 319.33 407.03 319.601 406.335 320.032C405.64 320.464 405.05 321.047 404.61 321.736C404.17 322.426 403.89 323.206 403.791 324.018C403.691 324.83 403.776 325.654 404.037 326.43Z" fill="#263238"/>
<mask id="mask0_1822_3000" style="mask-type:luminance" maskUnits="userSpaceOnUse" x="403" y="313" width="62" height="43">
<path d="M404.037 326.43L411.967 349.83C412.533 351.518 413.665 352.958 415.173 353.906C416.68 354.854 418.468 355.251 420.235 355.03L455.062 351.234C456.82 351.02 458.451 350.208 459.682 348.935C460.912 347.662 461.668 346.004 461.822 344.24L463.98 319.631C464.053 318.825 463.945 318.013 463.665 317.254C463.385 316.495 462.939 315.808 462.36 315.243C461.782 314.678 461.084 314.249 460.319 313.987C459.553 313.725 458.739 313.637 457.935 313.729L408.626 319.241C407.813 319.33 407.03 319.601 406.335 320.032C405.64 320.464 405.05 321.047 404.61 321.736C404.17 322.426 403.89 323.206 403.791 324.018C403.691 324.83 403.776 325.654 404.037 326.43Z" fill="white"/>
</mask>
<g mask="url(#mask0_1822_3000)">
<path d="M404.037 339.287L418.415 338.013L422.978 325.624L433.716 344.929L439.176 330.538L441.906 335.101L467.958 331.994" stroke="white" stroke-width="0.619" stroke-linecap="round" stroke-linejoin="round"/>
</g>
<path d="M404.037 326.43L411.967 349.83C412.533 351.518 413.665 352.958 415.173 353.906C416.68 354.854 418.468 355.251 420.235 355.03L455.062 351.234C456.82 351.02 458.451 350.208 459.682 348.935C460.912 347.662 461.668 346.004 461.822 344.24L463.98 319.631C464.053 318.825 463.945 318.013 463.665 317.254C463.385 316.495 462.939 315.808 462.36 315.243C461.782 314.678 461.084 314.249 460.319 313.987C459.553 313.725 458.739 313.637 457.935 313.729L408.626 319.241C407.813 319.33 407.03 319.601 406.335 320.032C405.64 320.464 405.05 321.047 404.61 321.736C404.17 322.426 403.89 323.206 403.791 324.018C403.691 324.83 403.776 325.654 404.037 326.43Z" stroke="#263238" stroke-width="0.619" stroke-linecap="round" stroke-linejoin="round"/>
<path d="M476.603 322.764C480.092 322.764 482.921 319.936 482.921 316.446C482.921 312.957 480.092 310.128 476.603 310.128C473.114 310.128 470.285 312.957 470.285 316.446C470.285 319.936 473.114 322.764 476.603 322.764Z" fill="white" stroke="#263238" stroke-width="0.619" stroke-linecap="round" stroke-linejoin="round"/>
<path d="M481.751 336.206C481.751 337.379 481.403 338.525 480.752 339.5C480.101 340.475 479.175 341.234 478.092 341.683C477.008 342.132 475.816 342.249 474.667 342.02C473.517 341.792 472.46 341.227 471.631 340.398C470.802 339.569 470.238 338.513 470.009 337.363C469.78 336.213 469.898 335.021 470.346 333.938C470.795 332.855 471.555 331.929 472.53 331.277C473.504 330.626 474.651 330.278 475.823 330.278C477.395 330.278 478.903 330.903 480.015 332.015C481.126 333.126 481.751 334.634 481.751 336.206Z" fill="#FFCF23" stroke="#263238" stroke-width="0.619" stroke-linecap="round" stroke-linejoin="round"/>
<path d="M399.682 323.31C400.043 324.506 400.04 325.783 399.675 326.977C399.311 328.172 398.6 329.232 397.633 330.023C396.666 330.814 395.486 331.301 394.242 331.421C392.999 331.542 391.748 331.291 390.647 330.701C389.546 330.11 388.644 329.207 388.057 328.104C387.469 327.001 387.222 325.749 387.346 324.506C387.47 323.263 387.959 322.085 388.753 321.12C389.546 320.155 390.608 319.447 391.804 319.085C392.599 318.843 393.433 318.76 394.26 318.842C395.087 318.923 395.889 319.168 396.621 319.56C397.353 319.953 398.001 320.486 398.526 321.13C399.051 321.773 399.444 322.514 399.682 323.31Z" fill="#FFCF23" stroke="#263238" stroke-width="0.619" stroke-linecap="round" stroke-linejoin="round"/>
<path d="M403.554 347.532C405.337 344.787 404.556 341.115 401.811 339.332C399.065 337.549 395.394 338.329 393.61 341.075C391.827 343.821 392.608 347.492 395.353 349.275C398.099 351.059 401.771 350.278 403.554 347.532Z" fill="white" stroke="#263238" stroke-width="0.619" stroke-linecap="round" stroke-linejoin="round"/>
<path d="M418.727 412.464C428.003 412.464 435.523 405.212 435.523 396.266C435.523 387.32 428.003 380.068 418.727 380.068C409.45 380.068 401.931 387.32 401.931 396.266C401.931 405.212 409.45 412.464 418.727 412.464Z" fill="#FFCF23" stroke="#263238" stroke-width="0.619" stroke-linecap="round" stroke-linejoin="round"/>
<path d="M394.028 432.615L409.407 398.087C410.066 396.603 411.248 395.414 412.726 394.746C414.205 394.077 415.878 393.975 417.428 394.459C419.026 394.95 420.379 396.026 421.216 397.473C422.053 398.92 422.311 400.63 421.939 402.259L411.812 447.656L394.028 432.615Z" fill="#263238" stroke="#263238" stroke-width="0.619" stroke-linecap="round" stroke-linejoin="round"/>
<path d="M388.892 379.73L422.471 458.757L382.171 464.295C382.171 464.295 358.069 439.79 341.871 393.172L388.892 379.73Z" fill="#ADADAD" stroke="#263238" stroke-width="0.619" stroke-linecap="round" stroke-linejoin="round"/>
<path d="M388.892 379.665L390.465 372.164L424.057 452.764L422.471 458.692L388.892 379.665Z" fill="white" stroke="#263238" stroke-width="0.619" stroke-linecap="round" stroke-linejoin="round"/>
<path d="M390.465 372.164L344.64 385.983L341.871 393.107L388.892 379.665L390.465 372.164Z" fill="white" stroke="#263238" stroke-width="0.619" stroke-linecap="round" stroke-linejoin="round"/>
<path d="M345.03 400.608L391.258 386.386" stroke="#263238" stroke-width="0.619" stroke-linecap="round" stroke-linejoin="round"/>
<path d="M348.58 408.902L395.211 396.266" stroke="#263238" stroke-width="0.619" stroke-linecap="round" stroke-linejoin="round"/>
<path d="M352.141 417.599L399.162 404.963" stroke="#263238" stroke-width="0.619" stroke-linecap="round" stroke-linejoin="round"/>
<path d="M357.276 428.272L403.114 414.83" stroke="#263238" stroke-width="0.619" stroke-linecap="round" stroke-linejoin="round"/>
<path d="M362.138 436.748L407.859 424.71" stroke="#263238" stroke-width="0.619" stroke-linecap="round" stroke-linejoin="round"/>
<path d="M367.156 444.496L411.811 433.797" stroke="#263238" stroke-width="0.619" stroke-linecap="round" stroke-linejoin="round"/>
<path d="M372.941 451.945L414.567 442.104" stroke="#263238" stroke-width="0.619" stroke-linecap="round" stroke-linejoin="round"/>
<path d="M377.036 458.029L418.389 451.191" stroke="#263238" stroke-width="0.619" stroke-linecap="round" stroke-linejoin="round"/>
<path d="M463.46 412.464C472.736 412.464 480.256 405.212 480.256 396.266C480.256 387.32 472.736 380.068 463.46 380.068C454.184 380.068 446.664 387.32 446.664 396.266C446.664 405.212 454.184 412.464 463.46 412.464Z" fill="#FFCF23" stroke="#263238" stroke-width="0.619" stroke-linecap="round" stroke-linejoin="round"/>
<path d="M488.147 432.615L472.768 398.087C472.109 396.603 470.927 395.414 469.448 394.746C467.969 394.077 466.296 393.975 464.747 394.459C463.15 394.949 461.797 396.027 460.963 397.474C460.128 398.922 459.873 400.632 460.249 402.259L470.376 447.656L488.147 432.615Z" fill="#263238" stroke="#263238" stroke-width="0.619" stroke-linecap="round" stroke-linejoin="round"/>
<path d="M493.296 379.73L459.704 458.757L500.004 464.295C500.004 464.295 524.106 439.79 540.304 393.172L493.296 379.73Z" fill="#ADADAD" stroke="#263238" stroke-width="0.619" stroke-linecap="round" stroke-linejoin="round"/>
<path d="M493.295 379.665L491.709 372.164L458.117 452.764L459.703 458.692L493.295 379.665Z" fill="white" stroke="#263238" stroke-width="0.619" stroke-linecap="round" stroke-linejoin="round"/>
<path d="M491.709 372.164L537.547 385.983L540.316 393.107L493.295 379.665L491.709 372.164Z" fill="white" stroke="#263238" stroke-width="0.619" stroke-linecap="round" stroke-linejoin="round"/>
<path d="M537.144 400.608L490.916 386.386" stroke="#263238" stroke-width="0.619" stroke-linecap="round" stroke-linejoin="round"/>
<path d="M533.595 408.902L486.964 396.266" stroke="#263238" stroke-width="0.619" stroke-linecap="round" stroke-linejoin="round"/>
<path d="M530.033 417.599L483.012 404.963" stroke="#263238" stroke-width="0.619" stroke-linecap="round" stroke-linejoin="round"/>
<path d="M524.898 428.272L479.06 414.83" stroke="#263238" stroke-width="0.619" stroke-linecap="round" stroke-linejoin="round"/>
<path d="M520.036 436.748L474.328 424.71" stroke="#263238" stroke-width="0.619" stroke-linecap="round" stroke-linejoin="round"/>
<path d="M515.018 444.496L470.376 433.797" stroke="#263238" stroke-width="0.619" stroke-linecap="round" stroke-linejoin="round"/>
<path d="M509.246 451.945L467.607 442.104" stroke="#263238" stroke-width="0.619" stroke-linecap="round" stroke-linejoin="round"/>
<path d="M505.138 458.029L463.785 451.191" stroke="#263238" stroke-width="0.619" stroke-linecap="round" stroke-linejoin="round"/>
<path d="M523.91 312.143L528.278 314.054" stroke="#263238" stroke-width="0.619" stroke-miterlimit="10"/>
<path d="M521.18 313.781L525.548 320.606" stroke="#263238" stroke-width="0.619" stroke-miterlimit="10"/>
<path d="M518.724 314.054L517.905 318.422" stroke="#263238" stroke-width="0.619" stroke-miterlimit="10"/>
<path d="M529.37 285.675H540.004" stroke="#263238" stroke-width="0.619" stroke-miterlimit="10"/>
<path d="M521.18 286.221L536.455 290.589" stroke="#263238" stroke-width="0.619" stroke-miterlimit="10"/>
<path d="M526.913 280.501L536.728 279.136" stroke="#263238" stroke-width="0.619" stroke-miterlimit="10"/>
<path d="M491.709 314.327L494.439 322.244" stroke="#263238" stroke-width="0.619" stroke-miterlimit="10"/>
<path d="M495.258 313.781L502.889 326.339" stroke="#263238" stroke-width="0.619" stroke-miterlimit="10"/>
<path d="M497.988 306.423L505.346 308.88" stroke="#263238" stroke-width="0.619" stroke-miterlimit="10"/>
<path d="M538.639 302.328L536.182 305.006L537.963 308.178L534.648 306.657L532.191 309.335L532.607 305.721L529.305 304.2L532.867 303.485L533.296 299.871L535.077 303.043L538.639 302.328Z" fill="#FFCF23" stroke="#263238" stroke-width="0.619" stroke-linecap="round" stroke-linejoin="round"/>
<path d="M542.461 266.305L539.991 268.983L541.785 272.155L538.47 270.634L536.013 273.312L536.429 269.698L533.127 268.177L536.689 267.462L537.105 263.848L538.899 267.02L542.461 266.305Z" fill="#FFCF23" stroke="#263238" stroke-width="0.619" stroke-linecap="round" stroke-linejoin="round"/>
<path d="M502.616 329.342L500.159 332.02L501.94 335.192L498.638 333.671L496.168 336.349L496.584 332.735L493.282 331.214L496.844 330.499L497.273 326.885L499.054 330.057L502.616 329.342Z" fill="#FFCF23" stroke="#263238" stroke-width="0.619" stroke-linecap="round" stroke-linejoin="round"/>
<path d="M384.836 269.815C394.966 269.815 403.179 261.696 403.179 251.68C403.179 241.664 394.966 233.545 384.836 233.545C374.705 233.545 366.493 241.664 366.493 251.68C366.493 261.696 374.705 269.815 384.836 269.815Z" fill="#ADADAD" stroke="#263238" stroke-width="0.619" stroke-linecap="round" stroke-linejoin="round"/>
<path d="M464.773 264.862C474.904 264.862 483.116 256.742 483.116 246.727C483.116 236.711 474.904 228.592 464.773 228.592C454.642 228.592 446.43 236.711 446.43 246.727C446.43 256.742 454.642 264.862 464.773 264.862Z" fill="#ADADAD" stroke="#263238" stroke-width="0.619" stroke-linecap="round" stroke-linejoin="round"/>
<path d="M427.892 306.891C440.636 306.891 450.967 297.02 450.967 284.843C450.967 272.666 440.636 262.795 427.892 262.795C415.148 262.795 404.817 272.666 404.817 284.843C404.817 297.02 415.148 306.891 427.892 306.891Z" fill="#FFCF23" stroke="#263238" stroke-width="0.619" stroke-linecap="round" stroke-linejoin="round"/>
<path d="M411.005 273.52L414.19 287.508C415.141 290.975 417.287 293.995 420.249 296.033C423.21 298.072 426.797 298.998 430.375 298.649C433.951 298.302 437.29 296.706 439.806 294.14C442.321 291.575 443.852 288.205 444.129 284.622L445.208 270.634L411.005 273.52Z" fill="#263238" stroke="#263238" stroke-width="0.619" stroke-linecap="round" stroke-linejoin="round"/>
<path d="M389.984 214.591L381.339 249.21L467.451 242.203L454.685 209.235L389.984 214.591Z" fill="white" stroke="#263238" stroke-width="0.619" stroke-linecap="round" stroke-linejoin="round"/>
<path d="M381.339 249.21L396.575 287.118L464.162 280.527L467.451 242.203L381.339 249.21Z" fill="#E5E5E5" stroke="#263238" stroke-width="0.619" stroke-linecap="round" stroke-linejoin="round"/>
<path d="M420.066 264.667C419.832 270.049 415.126 274.287 409.497 274.716C403.868 275.145 398.356 271.622 397.147 266.292C395.847 260.182 400.41 254.176 407.625 253.721C414.84 253.266 420.313 258.531 420.066 264.667Z" fill="#FFCF23" stroke="#263238" stroke-width="0.619" stroke-linecap="round" stroke-linejoin="round"/>
<path d="M415.763 264.966C415.693 266.668 414.986 268.28 413.782 269.485C412.577 270.689 410.965 271.396 409.263 271.466C407.536 271.653 405.801 271.199 404.387 270.19C402.973 269.181 401.979 267.687 401.593 265.993C400.956 262.301 403.855 258.83 408.093 258.544C409.023 258.44 409.963 258.526 410.859 258.796C411.754 259.066 412.585 259.514 413.302 260.115C414.019 260.715 414.607 261.454 415.03 262.288C415.453 263.122 415.702 264.033 415.763 264.966Z" fill="white" stroke="#263238" stroke-width="0.619" stroke-linecap="round" stroke-linejoin="round"/>
<path d="M458.377 260.962C458.156 266.344 453.45 270.582 447.821 271.011C442.192 271.44 436.667 267.917 435.471 262.574C434.106 256.477 438.734 250.471 445.949 250.003C453.164 249.535 458.637 254.826 458.377 260.962Z" fill="#FFCF23" stroke="#263238" stroke-width="0.619" stroke-linecap="round" stroke-linejoin="round"/>
<path d="M454.074 261.261C454.007 262.963 453.3 264.578 452.095 265.783C450.891 266.987 449.276 267.694 447.574 267.761C445.845 267.944 444.11 267.487 442.696 266.476C441.282 265.465 440.289 263.97 439.904 262.275C439.267 258.583 442.166 255.125 446.404 254.839C447.334 254.731 448.276 254.814 449.173 255.083C450.07 255.351 450.902 255.799 451.62 256.4C452.338 257.001 452.926 257.742 453.347 258.578C453.769 259.414 454.017 260.327 454.074 261.261Z" fill="white" stroke="#263238" stroke-width="0.619" stroke-linecap="round" stroke-linejoin="round"/>
<path d="M420.482 280.293C419.69 280.301 418.925 280.003 418.348 279.46C417.771 278.917 417.426 278.172 417.386 277.381C417.346 276.59 417.613 275.814 418.132 275.216C418.651 274.617 419.381 274.242 420.17 274.17L436.654 272.519C437.464 272.438 438.273 272.682 438.903 273.198C439.534 273.713 439.933 274.458 440.014 275.268C440.095 276.079 439.851 276.888 439.335 277.518C438.82 278.148 438.075 278.548 437.265 278.629L420.846 280.28L420.482 280.293Z" fill="#263238" stroke="#263238" stroke-width="0.619" stroke-linecap="round" stroke-linejoin="round"/>
<path d="M391.57 231.621C395.009 231.621 397.797 228.833 397.797 225.394C397.797 221.955 395.009 219.167 391.57 219.167C388.131 219.167 385.343 221.955 385.343 225.394C385.343 228.833 388.131 231.621 391.57 231.621Z" fill="#FFCF23" stroke="#263238" stroke-width="0.619" stroke-linecap="round" stroke-linejoin="round"/>
<path d="M387.722 227.084C390.658 227.084 393.039 224.703 393.039 221.767C393.039 218.83 390.658 216.45 387.722 216.45C384.785 216.45 382.405 218.83 382.405 221.767C382.405 224.703 384.785 227.084 387.722 227.084Z" fill="#FFCF23" stroke="#263238" stroke-width="0.619" stroke-linecap="round" stroke-linejoin="round"/>
<path d="M386.695 216.112C386.693 216.939 386.445 217.747 385.983 218.434C385.522 219.121 384.867 219.655 384.102 219.97C383.337 220.285 382.496 220.366 381.685 220.203C380.873 220.04 380.129 219.64 379.545 219.054C378.961 218.468 378.563 217.722 378.403 216.911C378.242 216.099 378.326 215.258 378.643 214.494C378.96 213.73 379.497 213.077 380.185 212.617C380.873 212.158 381.682 211.913 382.509 211.913C383.06 211.913 383.605 212.022 384.114 212.233C384.623 212.444 385.085 212.753 385.474 213.143C385.863 213.534 386.171 213.997 386.38 214.506C386.59 215.015 386.697 215.561 386.695 216.112Z" fill="#FFCF23" stroke="#263238" stroke-width="0.619" stroke-linecap="round" stroke-linejoin="round"/>
<path d="M381.495 214.643L371.979 205.803" stroke="#263238" stroke-width="0.619" stroke-linecap="round" stroke-linejoin="round"/>
<path d="M452.722 227.318C456.161 227.318 458.949 224.53 458.949 221.091C458.949 217.652 456.161 214.864 452.722 214.864C449.283 214.864 446.495 217.652 446.495 221.091C446.495 224.53 449.283 227.318 452.722 227.318Z" fill="#FFCF23" stroke="#263238" stroke-width="0.619" stroke-linecap="round" stroke-linejoin="round"/>
<path d="M456.57 222.781C459.507 222.781 461.887 220.4 461.887 217.464C461.887 214.527 459.507 212.147 456.57 212.147C453.634 212.147 451.253 214.527 451.253 217.464C451.253 220.4 453.634 222.781 456.57 222.781Z" fill="#FFCF23" stroke="#263238" stroke-width="0.619" stroke-linecap="round" stroke-linejoin="round"/>
<path d="M457.597 211.809C457.6 212.636 457.847 213.444 458.309 214.131C458.771 214.818 459.425 215.352 460.19 215.667C460.955 215.982 461.797 216.063 462.608 215.9C463.419 215.737 464.164 215.337 464.748 214.751C465.332 214.166 465.729 213.42 465.89 212.608C466.05 211.796 465.967 210.955 465.649 210.191C465.332 209.427 464.796 208.774 464.107 208.315C463.419 207.855 462.611 207.61 461.783 207.61C461.232 207.61 460.687 207.719 460.178 207.93C459.67 208.141 459.208 208.451 458.819 208.841C458.43 209.231 458.122 209.694 457.912 210.203C457.703 210.713 457.595 211.258 457.597 211.809Z" fill="#FFCF23" stroke="#263238" stroke-width="0.619" stroke-linecap="round" stroke-linejoin="round"/>
<path d="M462.797 210.327L472.313 201.5" stroke="#263238" stroke-width="0.619" stroke-linecap="round" stroke-linejoin="round"/>
<path d="M448.861 438.984C448.861 441.987 446.872 444.418 444.415 444.418C441.958 444.418 439.982 441.987 439.982 438.984C439.982 435.981 441.971 433.55 444.415 433.55C446.859 433.55 448.861 435.981 448.861 438.984Z" fill="white" stroke="#263238" stroke-width="0.619" stroke-linecap="round" stroke-linejoin="round"/>
<path d="M457.649 443.534H457.311L444.974 441.727C444.391 441.617 443.872 441.286 443.527 440.803C443.182 440.32 443.038 439.722 443.123 439.134C443.209 438.547 443.518 438.015 443.987 437.65C444.455 437.286 445.047 437.116 445.637 437.177L457.974 438.971C458.572 439.029 459.123 439.318 459.51 439.776C459.898 440.234 460.091 440.826 460.048 441.424C460.006 442.023 459.731 442.581 459.283 442.98C458.835 443.379 458.249 443.587 457.649 443.56V443.534Z" fill="white" stroke="#263238" stroke-width="0.619" stroke-miterlimit="10"/>
<path d="M285.23 464.386C283.618 461.851 283.93 458.731 286.062 457.431C288.194 456.131 291.106 457.106 292.718 459.628C294.33 462.15 293.953 465.283 291.873 466.596C289.793 467.909 286.829 466.921 285.23 464.386Z" fill="white" stroke="#263238" stroke-width="0.619" stroke-linecap="round" stroke-linejoin="round"/>
<path d="M275.363 465.257C275.459 465.198 275.559 465.145 275.662 465.101L287.05 460.018C287.602 459.801 288.215 459.806 288.764 460.03C289.312 460.254 289.752 460.682 289.994 461.223C290.235 461.764 290.258 462.377 290.059 462.935C289.859 463.493 289.452 463.952 288.922 464.217L277.534 469.3C277.004 469.536 276.404 469.562 275.855 469.374C275.306 469.186 274.848 468.797 274.574 468.286C274.299 467.774 274.228 467.178 274.374 466.616C274.521 466.055 274.874 465.569 275.363 465.257Z" fill="white" stroke="#263238" stroke-width="0.619" stroke-miterlimit="10"/>
<path d="M579.849 406.146C578.237 403.611 578.614 400.504 580.681 399.191C582.748 397.878 585.725 398.866 587.337 401.388C588.949 403.91 588.572 407.043 586.505 408.356C584.438 409.669 581.448 408.681 579.849 406.146Z" fill="white" stroke="#263238" stroke-width="0.619" stroke-linecap="round" stroke-linejoin="round"/>
<path d="M569.995 407.03L570.281 406.874L581.669 401.791C581.947 401.652 582.25 401.57 582.561 401.552C582.871 401.533 583.182 401.577 583.475 401.682C583.767 401.787 584.036 401.95 584.264 402.161C584.492 402.372 584.674 402.628 584.801 402.912C584.927 403.196 584.995 403.502 585 403.813C585.005 404.124 584.947 404.432 584.829 404.72C584.711 405.008 584.536 405.269 584.315 405.487C584.094 405.705 583.831 405.876 583.541 405.99L572.166 411.073C571.636 411.308 571.036 411.335 570.487 411.147C569.938 410.958 569.48 410.57 569.206 410.058C568.931 409.547 568.86 408.951 569.006 408.389C569.153 407.828 569.506 407.342 569.995 407.03Z" fill="white" stroke="#263238" stroke-width="0.619" stroke-miterlimit="10"/>
<path d="M359.98 466.83C354.78 466.83 350.594 469.326 350.594 472.394C350.594 475.462 354.793 477.958 359.98 477.958C365.167 477.958 369.379 475.462 369.379 472.394C369.379 469.326 365.167 466.83 359.98 466.83ZM359.98 475.267C357.302 475.267 355.131 473.967 355.131 472.394C355.131 470.821 357.302 469.521 359.98 469.521C362.658 469.521 364.842 470.821 364.842 472.394C364.842 473.967 362.671 475.267 359.98 475.267Z" fill="white" stroke="#263238" stroke-width="0.619" stroke-miterlimit="10"/>
<path d="M444.584 467.727L438.175 465.127L431.753 467.727L430.167 473.447L434.613 478.036H441.737L446.17 473.447L444.584 467.727ZM439.982 475.033H436.368L434.106 472.706L434.912 469.807L438.175 468.507L441.425 469.807L442.231 472.706L439.982 475.033Z" fill="white" stroke="#263238" stroke-width="0.619" stroke-linecap="round" stroke-linejoin="round"/>
<path d="M566.212 384.67L559.79 382.07L553.368 384.67L551.782 390.403L556.228 394.992H563.352L567.798 390.403L566.212 384.67ZM561.597 391.989H557.983L555.734 389.662L556.527 386.75L559.79 385.45L563.053 386.75L563.859 389.662L561.597 391.989Z" fill="white" stroke="#263238" stroke-width="0.619" stroke-linecap="round" stroke-linejoin="round"/>
<path d="M487.497 480.779C487.316 480.779 487.135 480.748 486.964 480.688C486.091 480.32 485.355 479.688 484.858 478.881C484.143 477.776 483.558 475.813 484.689 472.771C485.085 471.658 485.749 470.66 486.622 469.864C487.495 469.069 488.55 468.5 489.694 468.208C491.163 467.853 492.694 467.843 494.166 468.179C495.639 468.515 497.014 469.188 498.183 470.145C498.34 470.272 498.47 470.429 498.565 470.607C498.661 470.784 498.72 470.979 498.739 471.18C498.759 471.381 498.738 471.584 498.678 471.777C498.618 471.969 498.521 472.148 498.391 472.303C498.133 472.616 497.76 472.814 497.355 472.853C496.951 472.892 496.547 472.769 496.233 472.511C495.436 471.875 494.505 471.427 493.509 471.202C492.514 470.977 491.481 470.98 490.487 471.211C489.816 471.384 489.198 471.72 488.687 472.19C488.177 472.659 487.791 473.247 487.562 473.902C486.405 476.957 487.796 477.802 488.082 477.88C488.448 478.043 488.737 478.34 488.889 478.711C489.042 479.081 489.046 479.496 488.901 479.869C488.783 480.142 488.587 480.374 488.337 480.536C488.087 480.698 487.795 480.783 487.497 480.779Z" fill="white" stroke="#263238" stroke-width="0.619" stroke-linecap="round" stroke-linejoin="round"/>
<path d="M519.191 486.421C518.706 486.423 518.223 486.349 517.761 486.2L492.814 478.075C492.224 477.901 491.675 477.61 491.2 477.22C490.724 476.831 490.332 476.349 490.045 475.805C489.759 475.261 489.585 474.665 489.532 474.052C489.48 473.439 489.551 472.823 489.742 472.238C489.932 471.653 490.238 471.112 490.64 470.648C491.043 470.183 491.535 469.804 492.087 469.532C492.638 469.261 493.239 469.103 493.853 469.067C494.467 469.032 495.082 469.12 495.661 469.326L520.621 477.451C521.657 477.795 522.537 478.496 523.105 479.429C523.672 480.362 523.889 481.466 523.717 482.544C523.545 483.622 522.995 484.604 522.166 485.314C521.337 486.024 520.283 486.417 519.191 486.421Z" fill="white" stroke="#263238" stroke-width="0.619" stroke-linecap="round" stroke-linejoin="round"/>
<path d="M492.06 477.867C492.06 477.867 493.048 471.523 500.978 471.367" stroke="#263238" stroke-width="0.619" stroke-linecap="round" stroke-linejoin="round"/>
<path d="M497.403 479.245C497.403 479.245 498.404 472.914 506.321 472.745" stroke="#263238" stroke-width="0.619" stroke-linecap="round" stroke-linejoin="round"/>
<path d="M502.161 481.026C502.161 481.026 503.149 474.695 511.066 474.526" stroke="#263238" stroke-width="0.619" stroke-linecap="round" stroke-linejoin="round"/>
<path d="M507.114 482.43C507.114 482.43 508.102 476.099 516.019 475.93" stroke="#263238" stroke-width="0.619" stroke-linecap="round" stroke-linejoin="round"/>
<path d="M512.067 484.198C512.067 484.198 513.055 477.867 520.972 477.698" stroke="#263238" stroke-width="0.619" stroke-linecap="round" stroke-linejoin="round"/>
<path d="M519.178 486.33C519 486.327 518.823 486.292 518.658 486.226C517.78 485.867 517.038 485.239 516.539 484.432C515.824 483.327 515.239 481.364 516.37 478.309C516.77 477.199 517.435 476.203 518.307 475.408C519.179 474.613 520.232 474.042 521.375 473.746C522.844 473.393 524.375 473.385 525.848 473.724C527.321 474.062 528.696 474.737 529.864 475.696C530.02 475.823 530.15 475.98 530.246 476.158C530.341 476.336 530.4 476.531 530.42 476.732C530.439 476.933 530.418 477.135 530.359 477.328C530.299 477.521 530.201 477.7 530.072 477.854C529.813 478.168 529.44 478.366 529.036 478.405C528.631 478.444 528.228 478.321 527.914 478.062C527.117 477.425 526.185 476.977 525.19 476.752C524.195 476.527 523.161 476.53 522.168 476.762C521.496 476.931 520.877 477.264 520.367 477.732C519.856 478.199 519.47 478.786 519.243 479.44C518.086 482.508 519.477 483.34 519.763 483.418C520.086 483.56 520.35 483.807 520.514 484.119C520.677 484.431 520.729 484.79 520.661 485.135C520.592 485.481 520.408 485.793 520.139 486.02C519.869 486.247 519.53 486.374 519.178 486.382V486.33Z" fill="white" stroke="#263238" stroke-width="0.619" stroke-linecap="round" stroke-linejoin="round"/>
</svg>
