<svg width="650" height="650" viewBox="0 0 650 650" fill="none" xmlns="http://www.w3.org/2000/svg">
<path d="M50.5569 347.88C50.5569 347.88 55.2889 444.847 137.176 507.078C219.063 569.309 331.123 570.531 421.876 573.924C512.629 577.317 581.412 523.744 590.616 445.653C599.82 367.562 530.179 346.853 491.127 259.441C452.075 172.029 455 142.857 374.517 90.818C294.034 38.779 170.3 75.998 106.6 171.262C42.8999 266.526 50.5569 347.88 50.5569 347.88Z" fill="#FFCF23" fill-opacity="0.5"/>
<path opacity="0.7" d="M50.5569 347.88C50.5569 347.88 55.2889 444.847 137.176 507.078C219.063 569.309 331.123 570.531 421.876 573.924C512.629 577.317 581.412 523.744 590.616 445.653C599.82 367.562 530.179 346.853 491.127 259.441C452.075 172.029 455 142.857 374.517 90.818C294.034 38.779 170.3 75.998 106.6 171.262C42.8999 266.526 50.5569 347.88 50.5569 347.88Z" fill="white"/>
<path d="M356.417 414.917V449.584H353.167V414.917H356.417Z" fill="#263238"/>
<path d="M362.194 449.584H359.667V414.917H363.237L369.075 439.982V414.917H371.583V449.584H368.654L362.194 421.548V449.584Z" fill="#263238"/>
<path d="M378.319 449.474V418.439H373.75V414.917H385.666V418.439H381.097V449.584L378.319 449.474Z" fill="#263238"/>
<path d="M397.274 430.269V433.736H391.476V446.062H398.667V449.584H388.917V414.917H398.667V418.549H391.552V430.379L397.274 430.269Z" fill="#263238"/>
<path d="M408.178 414.917C411.85 414.917 413.337 417.664 413.337 422.828V425.575C413.337 429.394 412.438 431.756 410.455 432.717C412.566 433.651 413.356 436.233 413.356 439.942V445.436C413.278 446.857 413.442 448.284 413.833 449.584H411.207C410.848 448.252 410.703 446.812 410.785 445.381V439.887C410.785 435.986 409.555 434.75 407.407 434.75H405.57V449.529H403V414.917H408.178ZM407.517 431.234C409.555 431.234 410.785 430.245 410.785 426.482V423.158C410.785 420.054 410.032 418.433 408.104 418.433H405.552V431.234H407.517Z" fill="#263238"/>
<path d="M419.607 449.584H417.083V414.917H420.648L426.496 439.982V414.917H429V449.584H426.096L419.627 421.548L419.607 449.584Z" fill="#263238"/>
<path d="M435.643 442.595L434.728 449.584H432.25L436.844 414.917H440.656L445.25 449.584H442.581L441.647 442.595H435.643ZM435.986 439.294H441.342L438.635 419.264L435.986 439.294Z" fill="#263238"/>
<path d="M448.5 449.584V414.917H451.23V446.062H458.25V449.584H448.5Z" fill="#263238"/>
<path d="M478.791 423.516V424.325H475.996V423.22C475.996 420.174 475.092 418.367 472.969 418.367C470.847 418.367 469.943 420.174 469.943 423.166C469.943 430.795 478.833 431.522 478.833 441.065C478.833 446.214 476.9 449.584 472.843 449.584C468.787 449.584 466.917 446.214 466.917 441.065V439.151H469.67V441.281C469.67 444.327 470.658 446.133 472.78 446.133C474.903 446.133 475.87 444.327 475.87 441.281C475.87 433.706 467.022 432.978 467.022 423.408C467.022 418.179 468.913 414.917 472.885 414.917C476.858 414.917 478.791 418.367 478.791 423.516Z" fill="#263238"/>
<path d="M490.499 430.269V433.736H484.732V446.062H491.833V449.584H482.083V414.917H491.833V418.549H484.732V430.379L490.499 430.269Z" fill="#263238"/>
<path d="M500.779 414.917C504.819 414.917 506.455 417.664 506.455 422.828V425.575C506.455 429.394 505.465 431.756 503.284 432.717C505.606 433.651 506.495 436.233 506.495 439.942V445.436C506.403 446.854 506.577 448.281 507 449.584H504.132C503.717 448.259 503.551 446.815 503.647 445.381V439.887C503.647 435.986 502.314 434.75 499.951 434.75H497.931V449.529H495.083V414.917H500.779ZM500.052 431.234C502.314 431.234 503.647 430.245 503.647 426.482V423.158C503.647 420.054 502.819 418.433 500.698 418.433H497.951V431.234H500.052Z" fill="#263238"/>
<path d="M512.19 414.917L516.436 445.182L520.578 414.917H523.25L518.362 449.584H514.075L509.167 414.917H512.19Z" fill="#263238"/>
<path d="M533.981 430.269V433.736H528.838V446.062H535.166V449.584H526.5V414.917H535.166V418.549H528.838V430.379L533.981 430.269Z" fill="#263238"/>
<path d="M544.63 414.917C549.037 414.917 550.822 417.664 550.822 422.828V425.575C550.822 429.394 549.742 431.756 547.362 432.717C549.896 433.651 550.866 436.233 550.866 439.942V445.436C550.765 446.854 550.955 448.281 551.417 449.584H548.288C547.835 448.259 547.654 446.815 547.759 445.381V439.887C547.759 435.986 546.283 434.75 543.705 434.75H541.501V449.529H538.417V414.917H544.63ZM543.837 431.234C546.283 431.234 547.759 430.245 547.759 426.482V423.158C547.759 420.054 546.855 418.433 544.542 418.433H541.523V431.234H543.837Z" fill="#263238"/>
<path d="M569.508 430.269V433.736H563.74V446.062H570.841V449.584H561.167V414.917H570.917V418.549H563.815V430.379L569.508 430.269Z" fill="#263238"/>
<path d="M579.285 414.917C583.7 414.917 585.487 417.664 585.487 422.828V425.575C585.487 429.394 584.406 431.756 582.022 432.717C584.56 433.651 585.531 436.233 585.531 439.942V445.436C585.442 446.854 585.632 448.277 586.083 449.584H582.949C582.496 448.259 582.314 446.815 582.419 445.381V439.887C582.419 435.986 580.963 434.75 578.38 434.75H576.173V449.529H573.083V414.917H579.285ZM578.491 431.234C580.963 431.234 582.419 430.245 582.419 426.482V423.158C582.419 420.054 581.515 418.433 579.197 418.433H576.195V431.234H578.491Z" fill="#263238"/>
<path d="M594.463 414.917C598.87 414.917 600.655 417.664 600.655 422.828V425.575C600.655 429.394 599.575 431.756 597.195 432.717C599.751 433.651 600.699 436.233 600.699 439.942V445.436C600.61 446.854 600.799 448.277 601.25 449.584H598.121C597.68 448.255 597.498 446.814 597.592 445.381V439.887C597.592 435.986 596.138 434.75 593.56 434.75H591.357V449.529H588.25V414.917H594.463ZM593.67 431.234C596.138 431.234 597.592 430.245 597.592 426.482V423.158C597.592 420.054 596.689 418.433 594.397 418.433H591.379V431.234H593.67Z" fill="#263238"/>
<path d="M603.417 423.462C603.417 418.26 605.197 414.917 608.814 414.917C612.432 414.917 614.25 418.26 614.25 423.462V441.038C614.25 446.187 612.376 449.584 608.814 449.584C605.253 449.584 603.417 446.187 603.417 441.038V423.462ZM606.003 441.227C606.003 444.327 606.921 446.133 608.814 446.133C610.707 446.133 611.607 444.327 611.607 441.227V423.274C611.607 420.201 610.726 418.367 608.814 418.367C606.903 418.367 606.003 420.201 606.003 423.274V441.227Z" fill="#263238"/>
<path d="M624.279 414.917C628.319 414.917 629.934 417.664 629.934 422.828V425.575C629.934 429.394 628.965 431.756 626.784 432.717C629.106 433.651 629.975 436.233 629.975 439.942V445.436C629.889 446.857 630.07 448.284 630.5 449.584H627.612C627.216 448.252 627.057 446.812 627.147 445.381V439.887C627.147 435.986 625.794 434.75 623.431 434.75H621.411V449.529H618.583V414.917H624.279ZM623.552 431.234C625.794 431.234 627.147 430.245 627.147 426.482V423.158C627.147 420.054 626.299 418.433 624.198 418.433H621.431V431.234H623.552Z" fill="#263238"/>
<path d="M415.01 338.306V350.771C415.01 360.359 419.272 363.811 425.941 363.811C432.61 363.811 436.872 360.359 436.872 350.771V321.26C436.872 311.672 432.61 308.028 425.941 308.028C419.272 308.028 415.01 311.672 415.01 321.26V325.287H395.066L398.902 247.43H454.514V266.606H417.887L416.161 298.568C418.043 295.411 420.754 292.831 424 291.107C427.245 289.382 430.901 288.58 434.57 288.787C450.104 288.787 458.009 299.718 458.009 319.47V349.301C458.009 370.779 447.355 383.052 426.559 383.052C405.763 383.052 395.109 370.779 395.109 349.301V338.306H415.01Z" fill="#263238"/>
<path d="M474.074 279.668C474.074 258.19 485.389 245.917 506.036 245.917C526.683 245.917 537.997 258.19 537.997 279.668V349.471C537.997 370.949 526.683 383.222 506.036 383.222C485.389 383.222 474.074 370.949 474.074 349.471V279.668ZM495.169 350.813C495.169 360.402 499.43 364.045 506.1 364.045C512.769 364.045 517.03 360.402 517.03 350.813V278.368C517.03 268.78 512.769 265.136 506.1 265.136C499.43 265.136 495.169 268.78 495.169 278.368V350.813Z" fill="#FFCF23"/>
<path d="M553.851 279.668C553.851 258.19 565.165 245.917 585.812 245.917C606.459 245.917 617.773 258.19 617.773 279.668V349.471C617.773 370.949 606.459 383.222 585.812 383.222C565.165 383.222 553.851 370.949 553.851 349.471V279.668ZM574.945 350.813C574.945 360.402 579.207 364.045 585.876 364.045C592.545 364.045 596.807 360.402 596.807 350.813V278.368C596.807 268.78 592.545 265.136 585.876 265.136C579.207 265.136 574.945 268.78 574.945 278.368V350.813Z" fill="#263238"/>
<path d="M621.647 398.667H107.25" stroke="#263238" stroke-width="1.33905" stroke-miterlimit="10"/>
<path d="M166.05 473.663C173.615 472.532 181.32 474.45 187.474 478.995C197.374 486.604 204.899 505.956 208.788 533.051C212.678 560.146 214.847 571.827 237.713 575.68C260.579 579.534 315.374 577.971 348.103 577.207C380.833 576.444 379.318 545.992 351.92 542.951C324.523 539.909 305.547 547.216 276.961 540.891C248.376 534.566 302.408 526.192 343.535 532.288C384.662 538.383 402.911 539.897 425.001 537.619" stroke="#263238" stroke-width="2.34248" stroke-linecap="round" stroke-linejoin="round"/>
<path d="M166.05 433.142C166.05 433.142 188.237 433.312 194.32 456.165C200.403 479.019 202.693 510.985 203.457 536.141C204.22 561.297 204.983 582.587 233.908 588.67C262.832 594.753 341.257 592.475 362.572 587.907C383.886 583.339 407.491 562.787 389.982 558.219C372.472 553.651 348.103 558.219 357.264 564.278C366.425 570.337 390.769 568.846 419.694 565.041" stroke="#263238" stroke-width="2.34248" stroke-linecap="round" stroke-linejoin="round"/>
<path d="M170.607 512.621C170.607 512.621 184.166 511.409 189.462 526.762C194.757 542.115 188.25 545.617 191.231 553.275C194.212 560.933 212.776 553.784 212.691 560.133C212.606 565.926 205.263 567.562 162.948 565.065C107.62 561.806 71.0127 570.373 73.9573 575.68C76.9019 580.988 121.107 576.892 110.492 585.108C99.8767 593.323 73.9573 583.896 53.9149 583.339C33.8725 582.781 30.3342 587.458 30.3342 587.458" stroke="#263238" stroke-width="2.34248" stroke-linecap="round" stroke-linejoin="round"/>
<path d="M172.242 296.153H39.0223C36.6399 296.153 34.7085 298.085 34.7085 300.467V552.851C34.7085 555.233 36.6399 557.165 39.0223 557.165H172.242C174.625 557.165 176.556 555.233 176.556 552.851V300.467C176.556 298.085 174.625 296.153 172.242 296.153Z" fill="#263238" stroke="#263238" stroke-width="1.17124" stroke-linecap="round" stroke-linejoin="round"/>
<path d="M173.102 335.244H38.1011V435.226H173.102V335.244Z" fill="#616161"/>
<path d="M173.102 451.476H38.1011V551.458H173.102V451.476Z" fill="#616161"/>
<path d="M156.356 463.654H79.7129V541.812H156.356V463.654Z" fill="#FFCF23" stroke="#263238" stroke-width="1.17124" stroke-linecap="round" stroke-linejoin="round"/>
<path d="M156.356 346.417H79.7129V365.708H156.356V346.417Z" fill="#FFCF23" stroke="#263238" stroke-width="1.17124" stroke-linecap="round" stroke-linejoin="round"/>
<path d="M156.356 383.46H79.7129V402.751H156.356V383.46Z" fill="#FFCF23" stroke="#263238" stroke-width="1.17124" stroke-linecap="round" stroke-linejoin="round"/>
<path d="M153.788 337.486L152.309 341.546H84.4148L82.9365 337.486H68.553V355.323H82.9365L84.4148 351.264H152.309L153.788 355.323H170.074V337.486H153.788Z" fill="#263238" stroke="#263238" stroke-width="1.17124" stroke-linecap="round" stroke-linejoin="round"/>
<path d="M153.788 356.947L152.309 360.995H84.4148L82.9365 356.947H68.553V374.772H82.9365L84.4148 370.725H152.309L153.788 374.772H170.074V356.947H153.788Z" fill="#263238" stroke="#263238" stroke-width="1.17124" stroke-linecap="round" stroke-linejoin="round"/>
<path d="M153.788 376.396L152.309 380.455H84.4148L82.9365 376.396H68.553V394.232H82.9365L84.4148 390.173H152.309L153.788 394.232H170.074V376.396H153.788Z" fill="#263238" stroke="#263238" stroke-width="1.17124" stroke-linecap="round" stroke-linejoin="round"/>
<path d="M153.788 395.844L152.309 399.904H84.4148L82.9365 395.844H68.553V413.681H82.9365L84.4148 409.634H152.309L153.788 413.681H170.074V395.844H153.788Z" fill="#263238" stroke="#263238" stroke-width="1.17124" stroke-linecap="round" stroke-linejoin="round"/>
<path d="M153.788 415.305L152.309 419.352H84.4148L82.9365 415.305H68.553V433.142H82.9365L84.4148 429.083H152.309L153.788 433.142H170.074V415.305H153.788Z" fill="#263238" stroke="#263238" stroke-width="1.17124" stroke-linecap="round" stroke-linejoin="round"/>
<path d="M153.788 454.215L152.309 458.262H84.4148L82.9365 454.215H68.553V472.04H82.9365L84.4148 467.992H152.309L153.788 472.04H170.074V454.215H153.788Z" fill="#263238" stroke="#263238" stroke-width="1.17124" stroke-linecap="round" stroke-linejoin="round"/>
<path d="M153.788 473.664L152.309 477.723H84.4148L82.9365 473.664H68.553V491.501H82.9365L84.4148 487.453H152.309L153.788 491.501H170.074V473.664H153.788Z" fill="#263238" stroke="#263238" stroke-width="1.17124" stroke-linecap="round" stroke-linejoin="round"/>
<path d="M153.788 493.124L152.309 497.171H84.4148L82.9365 493.124H68.553V510.948H82.9365L84.4148 506.901H152.309L153.788 510.948H170.074V493.124H153.788Z" fill="#263238" stroke="#263238" stroke-width="1.17124" stroke-linecap="round" stroke-linejoin="round"/>
<path d="M153.788 512.572L152.309 516.632H84.4148L82.9365 512.572H68.553V530.409H82.9365L84.4148 526.35H152.309L153.788 530.409H170.074V512.572H153.788Z" fill="#263238" stroke="#263238" stroke-width="1.17124" stroke-linecap="round" stroke-linejoin="round"/>
<path d="M153.788 532.033L152.309 536.08H84.4148L82.9365 532.033H68.553V549.858H82.9365L84.4148 545.811H152.309L153.788 549.858H170.074V532.033H153.788Z" fill="#263238" stroke="#263238" stroke-width="1.17124" stroke-linecap="round" stroke-linejoin="round"/>
<path d="M170.049 438.341H40.8152V450.519H170.049V438.341Z" fill="white"/>
<path d="M51.7212 444.302C51.7212 443.629 51.5215 442.97 51.1473 442.41C50.7732 441.85 50.2414 441.414 49.6192 441.156C48.997 440.898 48.3124 440.831 47.6519 440.962C46.9914 441.094 46.3846 441.418 45.9084 441.894C45.4322 442.37 45.1079 442.977 44.9766 443.638C44.8452 444.298 44.9126 444.983 45.1703 445.605C45.428 446.227 45.8645 446.759 46.4244 447.133C46.9844 447.507 47.6427 447.707 48.3162 447.707C48.7633 447.707 49.2061 447.619 49.6192 447.448C50.0323 447.277 50.4077 447.026 50.7239 446.71C51.0401 446.394 51.2909 446.018 51.462 445.605C51.6331 445.192 51.7212 444.749 51.7212 444.302Z" fill="#263238" stroke="#263238" stroke-width="1.17124" stroke-linecap="round" stroke-linejoin="round"/>
<path d="M59.6582 447.707C61.5387 447.707 63.0632 446.183 63.0632 444.302C63.0632 442.421 61.5387 440.897 59.6582 440.897C57.7777 440.897 56.2532 442.421 56.2532 444.302C56.2532 446.183 57.7777 447.707 59.6582 447.707Z" fill="#FFCF23" stroke="#263238" stroke-width="1.17124" stroke-linecap="round" stroke-linejoin="round"/>
<path d="M74.405 444.302C74.405 443.629 74.2053 442.97 73.8312 442.41C73.457 441.85 72.9252 441.414 72.303 441.156C71.6809 440.898 70.9962 440.831 70.3357 440.962C69.6752 441.094 69.0685 441.418 68.5923 441.894C68.1161 442.37 67.7918 442.977 67.6604 443.638C67.529 444.298 67.5964 444.983 67.8542 445.605C68.1119 446.227 68.5483 446.759 69.1083 447.133C69.6682 447.507 70.3265 447.707 71 447.707C71.9031 447.707 72.7691 447.348 73.4077 446.71C74.0463 446.071 74.405 445.205 74.405 444.302Z" fill="#263238" stroke="#263238" stroke-width="1.17124" stroke-linecap="round" stroke-linejoin="round"/>
<path d="M170.049 321.612H40.8152V333.79H170.049V321.612Z" fill="white"/>
<path d="M51.7212 327.599C51.7212 326.925 51.5215 326.267 51.1473 325.707C50.7732 325.147 50.2414 324.711 49.6192 324.453C48.997 324.195 48.3124 324.128 47.6519 324.259C46.9914 324.391 46.3846 324.715 45.9084 325.191C45.4322 325.667 45.1079 326.274 44.9766 326.935C44.8452 327.595 44.9126 328.28 45.1703 328.902C45.428 329.524 45.8645 330.056 46.4244 330.43C46.9844 330.804 47.6427 331.004 48.3162 331.004C48.7633 331.004 49.2061 330.916 49.6192 330.745C50.0323 330.574 50.4077 330.323 50.7239 330.007C51.0401 329.69 51.2909 329.315 51.462 328.902C51.6331 328.489 51.7212 328.046 51.7212 327.599Z" fill="white" stroke="#263238" stroke-width="1.17124" stroke-linecap="round" stroke-linejoin="round"/>
<path d="M63.0513 327.599C63.0513 326.925 62.8516 326.267 62.4774 325.707C62.1033 325.147 61.5715 324.711 60.9493 324.453C60.3271 324.195 59.6425 324.128 58.982 324.259C58.3214 324.391 57.7147 324.715 57.2385 325.191C56.7623 325.667 56.438 326.274 56.3066 326.935C56.1753 327.595 56.2427 328.28 56.5004 328.902C56.7581 329.524 57.1946 330.056 57.7545 330.43C58.3145 330.804 58.9728 331.004 59.6462 331.004C60.5493 331.004 61.4154 330.645 62.054 330.007C62.6925 329.368 63.0513 328.502 63.0513 327.599Z" fill="#FFCF23" stroke="#263238" stroke-width="1.17124" stroke-linecap="round" stroke-linejoin="round"/>
<path d="M74.405 327.599C74.405 326.925 74.2053 326.267 73.8312 325.707C73.457 325.147 72.9252 324.711 72.303 324.453C71.6809 324.195 70.9962 324.128 70.3357 324.259C69.6752 324.391 69.0685 324.715 68.5923 325.191C68.1161 325.667 67.7918 326.274 67.6604 326.935C67.529 327.595 67.5964 328.28 67.8542 328.902C68.1119 329.524 68.5483 330.056 69.1083 330.43C69.6682 330.804 70.3265 331.004 71 331.004C71.9031 331.004 72.7691 330.645 73.4077 330.007C74.0463 329.368 74.405 328.502 74.405 327.599Z" fill="white" stroke="#263238" stroke-width="1.17124" stroke-linecap="round" stroke-linejoin="round"/>
<path d="M170.049 305.944H40.8152V318.122H170.049V305.944Z" fill="white"/>
<path d="M51.7212 311.906C51.7212 311.233 51.5215 310.574 51.1473 310.015C50.7732 309.455 50.2414 309.018 49.6192 308.76C48.997 308.503 48.3124 308.435 47.6519 308.567C46.9914 308.698 46.3846 309.022 45.9084 309.499C45.4322 309.975 45.1079 310.581 44.9766 311.242C44.8452 311.902 44.9126 312.587 45.1703 313.209C45.428 313.831 45.8645 314.363 46.4244 314.737C46.9844 315.112 47.6427 315.311 48.3162 315.311C48.7633 315.311 49.2061 315.223 49.6192 315.052C50.0323 314.881 50.4077 314.63 50.7239 314.314C51.0401 313.998 51.2909 313.622 51.462 313.209C51.6331 312.796 51.7212 312.353 51.7212 311.906Z" fill="#FFCF23" stroke="#263238" stroke-width="1.17124" stroke-linecap="round" stroke-linejoin="round"/>
<path d="M63.0513 311.906C63.0513 311.233 62.8516 310.574 62.4774 310.015C62.1033 309.455 61.5715 309.018 60.9493 308.76C60.3271 308.503 59.6425 308.435 58.982 308.567C58.3214 308.698 57.7147 309.022 57.2385 309.499C56.7623 309.975 56.438 310.581 56.3066 311.242C56.1753 311.902 56.2427 312.587 56.5004 313.209C56.7581 313.831 57.1946 314.363 57.7545 314.737C58.3145 315.112 58.9728 315.311 59.6462 315.311C60.5493 315.311 61.4154 314.953 62.054 314.314C62.6925 313.675 63.0513 312.809 63.0513 311.906Z" fill="#263238" stroke="#263238" stroke-width="1.17124" stroke-linecap="round" stroke-linejoin="round"/>
<path d="M74.405 311.906C74.405 311.233 74.2053 310.574 73.8312 310.015C73.457 309.455 72.9252 309.018 72.303 308.76C71.6809 308.503 70.9962 308.435 70.3357 308.567C69.6752 308.698 69.0685 309.022 68.5923 309.499C68.1161 309.975 67.7918 310.581 67.6604 311.242C67.529 311.902 67.5964 312.587 67.8542 313.209C68.1119 313.831 68.5483 314.363 69.1083 314.737C69.6682 315.112 70.3265 315.311 71 315.311C71.9031 315.311 72.7691 314.953 73.4077 314.314C74.0463 313.675 74.405 312.809 74.405 311.906Z" fill="#263238" stroke="#263238" stroke-width="1.17124" stroke-linecap="round" stroke-linejoin="round"/>
<path d="M62.4575 337.789H41.1428V346.926H62.4575V337.789Z" fill="#263238" stroke="#263238" stroke-width="1.17124" stroke-linecap="round" stroke-linejoin="round"/>
<path d="M62.4575 357.578H41.1428V366.714H62.4575V357.578Z" fill="#263238" stroke="#263238" stroke-width="1.17124" stroke-linecap="round" stroke-linejoin="round"/>
<path d="M62.4575 377.377H41.1428V386.514H62.4575V377.377Z" fill="#FFCF23" stroke="#263238" stroke-width="1.17124" stroke-linecap="round" stroke-linejoin="round"/>
<path d="M62.4575 397.166H41.1428V406.302H62.4575V397.166Z" fill="#FFCF23" stroke="#263238" stroke-width="1.17124" stroke-linecap="round" stroke-linejoin="round"/>
<path d="M62.4575 416.965H41.1428V426.101H62.4575V416.965Z" fill="#FFCF23" stroke="#263238" stroke-width="1.17124" stroke-linecap="round" stroke-linejoin="round"/>
<path d="M62.4575 454.009H41.1428V463.145H62.4575V454.009Z" fill="#FFCF23" stroke="#263238" stroke-width="1.17124" stroke-linecap="round" stroke-linejoin="round"/>
<path d="M62.4575 473.809H41.1428V482.945H62.4575V473.809Z" fill="#263238" stroke="#263238" stroke-width="1.17124" stroke-linecap="round" stroke-linejoin="round"/>
<path d="M62.4575 493.596H41.1428V502.733H62.4575V493.596Z" fill="#FFCF23" stroke="#263238" stroke-width="1.17124" stroke-linecap="round" stroke-linejoin="round"/>
<path d="M62.4575 513.396H41.1428V522.533H62.4575V513.396Z" fill="#263238" stroke="#263238" stroke-width="1.17124" stroke-linecap="round" stroke-linejoin="round"/>
<path d="M62.4575 533.184H41.1428V542.321H62.4575V533.184Z" fill="#FFCF23" stroke="#263238" stroke-width="1.17124" stroke-linecap="round" stroke-linejoin="round"/>
<path d="M240.985 240.789C240.985 240.789 220.555 245.987 214.884 253.754C209.213 261.522 186.226 314.342 186.226 314.342C186.226 314.342 178.774 322.703 186.832 330.761C194.89 338.819 211.006 341.8 216.98 334.639C222.954 327.477 231.594 293.742 232.794 289.865C233.993 285.987 242.936 253.148 243.833 251.367C244.729 249.586 245.59 241.855 240.985 240.789Z" fill="#BDBDBD" stroke="#263238" stroke-width="0.5" stroke-linecap="round" stroke-linejoin="round"/>
<path d="M240.985 240.789C240.985 240.789 220.555 245.987 214.884 253.754C211.455 258.444 201.688 279.649 194.502 295.657C197.992 294.954 212.533 292.797 229.558 301.376C231.194 295.657 232.406 291.137 232.794 289.865C234.005 285.987 242.936 253.148 243.833 251.367C244.729 249.586 245.59 241.855 240.985 240.789Z" fill="#263238" stroke="#263238" stroke-width="0.5" stroke-linecap="round" stroke-linejoin="round"/>
<path d="M300.845 171.973C304.359 173.956 307.174 176.978 308.903 180.625C311.327 186.296 311.327 194.947 311.327 194.947C311.327 194.947 349.533 193.736 364.159 193.457C378.785 193.178 388.637 196.741 388.927 203.902C389.218 211.064 385.946 225.096 377.888 230.464C369.83 235.832 344.759 227.18 331.927 223.605C319.094 220.031 314.611 221.182 305.365 219.97C296.119 218.758 293.417 215.196 291.927 209.525C290.436 203.854 293.417 193.106 293.417 184.454C293.417 175.802 292.193 170.179 300.845 171.973Z" fill="#BDBDBD" stroke="#263238" stroke-width="0.5" stroke-linecap="round" stroke-linejoin="round"/>
<path d="M356.659 208.677C356.659 208.677 351.291 222.406 341.439 229.871C334.375 235.227 324.838 238.28 320.028 239.565C302.809 234.718 278.501 232.44 264.287 235.59C264.287 235.59 244.439 240.34 240.985 240.777C237.532 241.213 229.328 268.829 227.595 287.817C225.862 306.805 231.485 353.857 231.485 357.311C231.485 360.764 233.642 418.177 237.095 434.148C240.549 450.119 244.439 471.712 244.863 474.717C245.287 477.722 248.316 500.164 248.316 507.519C248.316 514.875 244.814 532.566 244.814 532.566C244.814 532.566 229.28 542.927 223.233 548.961C217.186 554.996 227.68 561.37 235.35 562.775C248.365 565.199 263.827 552.415 263.827 552.415L281.167 545.52C285.759 543.678 287.116 538.746 287.226 534.323L288.025 502.357C290.74 513.667 292.969 525.094 294.714 536.638C295.417 541.364 296.144 546.332 298.992 550.149C300.572 552.34 302.616 554.156 304.978 555.468C306.698 556.268 308.528 556.099 310.261 557.092C313.448 558.934 314.757 562.909 317.846 564.908C324.5 568.844 332.138 570.798 339.864 570.543C339.864 570.543 357.119 571.415 358.04 561.915C358.961 552.415 335.587 536.88 335.587 536.88C335.587 536.88 332.133 473.869 329.528 453.148C326.923 432.427 320.028 398.765 320.028 384.078C320.028 369.392 326.935 300.334 326.935 300.334C326.935 300.334 327.637 298.516 328.716 295.56L329.855 294.93C339.706 289.259 367.165 267.168 376.12 253.136C384.699 239.71 387.801 214.518 388.043 207.15" fill="#BDBDBD"/>
<path d="M356.659 208.677C356.659 208.677 351.291 222.406 341.439 229.871C334.375 235.227 324.838 238.28 320.028 239.565C302.809 234.718 278.501 232.44 264.287 235.59C264.287 235.59 244.439 240.34 240.985 240.777C237.532 241.213 229.328 268.829 227.595 287.817C225.862 306.805 231.485 353.857 231.485 357.311C231.485 360.764 233.642 418.177 237.095 434.148C240.549 450.119 244.439 471.712 244.863 474.717C245.287 477.722 248.316 500.164 248.316 507.519C248.316 514.875 244.814 532.566 244.814 532.566C244.814 532.566 229.28 542.927 223.233 548.961C217.186 554.996 227.68 561.37 235.35 562.775C248.365 565.199 263.827 552.415 263.827 552.415L281.167 545.52C285.759 543.678 287.116 538.746 287.226 534.323L288.025 502.357C290.74 513.667 292.969 525.094 294.714 536.638C295.417 541.364 296.144 546.332 298.992 550.149C300.572 552.34 302.616 554.156 304.978 555.468C306.698 556.268 308.528 556.099 310.261 557.092C313.448 558.934 314.757 562.909 317.846 564.908C324.5 568.844 332.138 570.798 339.864 570.543C339.864 570.543 357.119 571.415 358.04 561.915C358.961 552.415 335.587 536.88 335.587 536.88C335.587 536.88 332.133 473.869 329.528 453.148C326.923 432.427 320.028 398.765 320.028 384.078C320.028 369.392 326.935 300.334 326.935 300.334C326.935 300.334 327.637 298.516 328.716 295.56L329.855 294.93C339.707 289.259 367.165 267.168 376.12 253.136C384.699 239.71 387.801 214.518 388.043 207.15" stroke="#263238" stroke-width="0.5" stroke-linecap="round" stroke-linejoin="round"/>
<path d="M357.955 561.915C358.816 552.415 335.502 536.88 335.502 536.88C335.502 536.88 335.235 532.033 334.799 524.581C321.276 527.84 307.412 529.467 293.502 529.428C293.914 531.852 294.318 534.275 294.714 536.699C295.417 541.424 296.144 546.393 298.991 550.21C300.572 552.401 302.616 554.217 304.977 555.529C306.698 556.329 308.528 556.159 310.261 557.153C313.448 558.995 314.756 562.969 317.846 564.969C324.5 568.904 332.138 570.859 339.864 570.603C339.864 570.603 357.083 571.415 357.955 561.915Z" fill="#263238" stroke="#263238" stroke-width="0.5" stroke-linecap="round" stroke-linejoin="round"/>
<path d="M281.167 545.52C285.76 543.678 287.117 538.746 287.226 534.323C287.226 532.651 287.311 530.979 287.347 529.306C273.568 528.84 259.88 526.882 246.523 523.466C245.699 528.507 244.899 532.566 244.899 532.566C244.899 532.566 229.365 542.927 223.318 548.961C217.271 554.996 227.765 561.369 235.436 562.775C248.45 565.199 263.912 552.415 263.912 552.415L281.167 545.52Z" fill="#263238" stroke="#263238" stroke-width="0.5" stroke-linecap="round" stroke-linejoin="round"/>
<path d="M357.956 561.915C357.956 561.781 357.956 561.636 357.956 561.491C354.142 564.219 349.736 566.004 345.099 566.701C331.455 569.125 319.022 562.157 315.69 559.128C312.357 556.098 310.237 553.663 305.075 550.33C299.913 546.998 295.247 538.794 295.247 538.794L295.053 539.097C295.696 543.036 296.592 546.974 298.955 550.149C300.536 552.34 302.58 554.156 304.941 555.468C306.662 556.268 308.492 556.098 310.225 557.092C313.412 558.934 314.72 562.908 317.81 564.908C324.463 568.843 332.102 570.798 339.828 570.542C339.828 570.542 357.083 571.415 357.956 561.915Z" fill="white" stroke="#263238" stroke-width="0.5" stroke-linecap="round" stroke-linejoin="round"/>
<path d="M281.167 545.52C285.177 543.908 286.716 539.958 287.128 536.044C283.154 538.467 273.969 543.763 268.14 546.089C260.567 549.119 255.405 558.207 240.561 558.207C229.97 558.207 224.166 554.063 221.706 551.676C220.397 556.789 228.976 561.576 235.423 562.775C248.437 565.199 263.899 552.415 263.899 552.415L281.167 545.52Z" fill="white" stroke="#263238" stroke-width="0.5" stroke-linecap="round" stroke-linejoin="round"/>
<path d="M337.186 232.682C331.776 235.686 326.012 238.002 320.028 239.577C302.809 234.73 278.501 232.452 264.287 235.603C264.287 235.603 244.439 240.353 240.985 240.789C237.532 241.225 229.328 268.841 227.596 287.829C226.529 299.559 228.262 321.952 229.74 338.202C265.717 351.386 304.081 346.866 322.839 343.279C324.73 321.758 326.874 300.347 326.874 300.347C326.874 300.347 327.577 298.529 328.656 295.572L329.795 294.942C336.496 291.089 351.303 279.662 362.924 268.284C339.598 261.558 336.774 243.164 337.186 232.682Z" fill="#263238" stroke="#263238" stroke-width="0.5" stroke-linecap="round" stroke-linejoin="round"/>
<path d="M303.741 253.269C303.67 249.645 302.744 246.089 301.038 242.891C299.333 239.692 296.896 236.942 293.926 234.863C282.899 233.796 272.115 233.869 264.287 235.602C264.287 235.602 258.798 236.923 253.09 238.219C249.247 242.294 247.084 247.669 247.031 253.269C247.031 266.732 259.731 277.65 275.386 277.65C291.042 277.65 303.741 266.732 303.741 253.269Z" fill="#616161" stroke="#263238" stroke-width="0.5" stroke-linecap="round" stroke-linejoin="round"/>
<path d="M295.247 538.794C301.721 541.072 308.584 542.036 315.435 541.63C330.327 540.988 335.501 536.88 335.501 536.88C335.501 536.88 332.048 473.869 329.442 453.148C326.837 432.427 319.942 398.764 319.942 384.078C319.942 375.426 322.366 347.883 324.317 326.726L323.384 326.835C320.904 327.123 318.391 326.874 316.016 326.104C313.642 325.335 311.46 324.063 309.621 322.375C307.781 320.687 306.327 318.623 305.356 316.324C304.386 314.024 303.921 311.542 303.996 309.046L304.408 295.269C293.177 296.001 281.903 295.677 270.733 294.299C250.666 292.033 229.945 285.235 229.945 285.235L227.764 285.902C227.764 286.544 227.631 287.186 227.57 287.816C225.85 306.817 231.46 353.857 231.46 357.31C231.46 360.764 233.617 418.177 237.071 434.148C240.524 450.118 244.414 471.712 244.838 474.717C245.262 477.722 248.291 500.164 248.291 507.519C248.291 514.875 244.971 531.9 244.85 532.53C247.443 533.329 252.872 534.953 262.651 537.728C277.531 541.945 287.14 536.868 287.14 536.868C287.14 531.694 288 502.345 288 502.345C288 502.345 293.478 527.186 295.247 538.794Z" fill="white" stroke="#263238" stroke-width="0.5" stroke-linecap="round" stroke-linejoin="round"/>
<path d="M245.942 303.424L284.706 309.797V333.693L262.93 355.48L245.408 334.226L245.942 303.424Z" stroke="#263238" stroke-width="0.5" stroke-linecap="round" stroke-linejoin="round"/>
<path d="M273.896 437.795C271.097 422.042 269.049 406.484 269.049 395.311L253.515 384.951" stroke="#263238" stroke-width="0.5" stroke-linecap="round" stroke-linejoin="round"/>
<path d="M288.025 502.358C288.025 502.358 281.482 477.068 276.077 449.368" stroke="#263238" stroke-width="0.5" stroke-linecap="round" stroke-linejoin="round"/>
<path d="M299.573 368.471C299.925 369.869 300.463 371.214 301.173 372.47C305.959 380.952 312.854 382.031 312.854 382.031L313.921 359.722" stroke="#263238" stroke-width="0.5" stroke-linecap="round" stroke-linejoin="round"/>
<path d="M301.173 355.468C300.347 357.076 299.756 358.794 299.416 360.57" stroke="#263238" stroke-width="0.5" stroke-linecap="round" stroke-linejoin="round"/>
<path d="M320.209 423.327C320.767 426.271 321.336 429.167 321.894 431.93" stroke="#263238" stroke-width="0.5" stroke-linecap="round" stroke-linejoin="round"/>
<path d="M312.854 382.03C312.854 382.03 315.593 398.401 318.755 415.559" stroke="#263238" stroke-width="0.5" stroke-linecap="round" stroke-linejoin="round"/>
<path d="M261.778 226.417L261.536 239.14C261.536 239.14 257.15 242.654 256.277 251.864C255.405 261.073 264.178 269.64 274.041 269.64C283.905 269.64 292.472 261.958 294.011 254.942C295.55 247.926 293.563 237.832 293.563 237.832L292.908 222.479C292.908 222.479 283.214 228.61 274.041 226.865C264.868 225.12 262.203 221.812 262.203 221.812L261.778 226.417Z" fill="#BDBDBD" stroke="#263238" stroke-width="0.5" stroke-linecap="round" stroke-linejoin="round"/>
<path d="M254.884 193.215C254.884 193.215 254.29 200.485 255.865 202.267C257.44 204.048 259.609 205.417 260.009 203.842C260.409 202.267 260.591 194.002 260.991 192.233C261.391 190.464 255.078 188.247 254.884 193.215Z" fill="#BDBDBD" stroke="#263238" stroke-width="0.5" stroke-linecap="round" stroke-linejoin="round"/>
<path d="M258.737 193.093C258.737 193.093 256.931 207.634 256.931 214.675C256.931 221.715 254.205 224.369 262.99 228.949C271.775 233.529 279.385 234.111 285.456 231.978C291.527 229.846 294.871 224.708 295.15 220.443C295.429 216.177 295.453 209.537 295.453 209.537C295.453 209.537 303.935 201.951 302.142 196.208C300.348 190.464 296.374 197.722 296.374 197.722C298.045 192.733 298.864 187.498 298.797 182.236C298.494 174.335 292.424 173.427 289.988 173.427C287.552 173.427 272.684 168.858 265.717 173.366C258.749 177.874 258.737 193.093 258.737 193.093Z" fill="#BDBDBD" stroke="#263238" stroke-width="0.5" stroke-linecap="round" stroke-linejoin="round"/>
<path d="M296.399 197.662C298.07 192.673 298.889 187.437 298.822 182.176C298.519 174.275 292.448 173.366 290.013 173.366H289.855C288.571 175.523 286.983 178.844 286.983 178.844L288.195 179.449C288.195 179.449 286.983 186.138 289.407 187.047C291.83 187.956 290.619 190.077 290.619 193.724C290.619 197.371 292.751 200.098 293.963 200.098C294.92 200.098 296.387 197.674 297.041 196.62C296.641 197.202 296.399 197.662 296.399 197.662Z" fill="#263238" stroke="#263238" stroke-width="0.5" stroke-linecap="round" stroke-linejoin="round"/>
<path d="M272.405 198.534C272.405 198.534 269.848 200.885 271.024 202.667C272.199 204.448 276.537 205.417 277.725 203.248C278.133 202.519 278.278 201.671 278.134 200.848C277.991 200.025 277.568 199.276 276.937 198.728" stroke="#263238" stroke-width="0.5" stroke-linecap="round" stroke-linejoin="round"/>
<path d="M269.655 196.172C269.655 197.383 269.17 198.329 268.564 198.329C267.958 198.329 267.486 197.359 267.486 196.172C267.486 194.984 267.971 194.003 268.564 194.003C269.158 194.003 269.655 194.972 269.655 196.172Z" fill="#263238"/>
<path d="M282.742 196.729C282.742 197.941 282.257 198.898 281.663 198.898C281.07 198.898 280.573 197.929 280.573 196.729C280.573 195.53 281.057 194.572 281.663 194.572C282.269 194.572 282.742 195.517 282.742 196.729Z" fill="#263238"/>
<path d="M279.494 190.852C279.494 190.852 283.626 188.089 287.564 192.427" stroke="#263238" stroke-width="0.5" stroke-linecap="round" stroke-linejoin="round"/>
<path d="M273.218 210.228C272.698 209.967 272.13 209.819 271.549 209.794C270.968 209.769 270.389 209.867 269.849 210.083C269.39 210.274 268.977 210.56 268.639 210.924C268.3 211.288 268.043 211.72 267.886 212.191C267.886 212.191 265.365 214.215 268.019 215.099C270.673 215.984 276.501 215.923 277.968 215.863C278.555 215.781 279.086 215.473 279.449 215.004C279.811 214.535 279.976 213.943 279.907 213.354C279.919 213.116 279.869 212.878 279.76 212.666C279.652 212.453 279.489 212.272 279.289 212.143C278.678 211.145 277.727 210.401 276.611 210.049C275.496 209.697 274.29 209.761 273.218 210.228Z" fill="#666666" stroke="#263238" stroke-width="0.5" stroke-linecap="round" stroke-linejoin="round"/>
<path d="M267.316 212.954C271.397 212.309 275.568 212.557 279.543 213.681" stroke="#263238" stroke-width="0.5" stroke-linecap="round" stroke-linejoin="round"/>
<path d="M253.575 176.408L286.074 180.976C286.074 180.976 299.731 177.341 300.955 174.602C302.179 171.864 297.61 158.207 295.175 154.863C292.739 151.519 269.364 157.287 262.07 158.498C254.775 159.71 249.322 161.516 249.661 165.223C250.001 168.931 253.575 176.408 253.575 176.408Z" fill="#FFCF23" stroke="#263238" stroke-width="0.5" stroke-linecap="round" stroke-linejoin="round"/>
<path d="M253.575 176.408C253.575 176.408 235.048 191.592 234.745 193.094C234.442 194.597 261.767 195.215 270.273 193.397C278.78 191.58 286.026 180.94 286.026 180.94L253.575 176.408Z" fill="white" stroke="#263238" stroke-width="0.5" stroke-linecap="round" stroke-linejoin="round"/>
<path d="M233.327 377.716L284.221 347.871C285.906 349.133 287.946 349.832 290.051 349.87C292.156 349.909 294.22 349.284 295.95 348.084C297.68 346.885 298.989 345.171 299.692 343.187C300.395 341.202 300.455 339.047 299.865 337.026L289.238 343.242L286.814 339.061L297.453 332.833C295.98 331.325 294.07 330.32 291.993 329.959C289.917 329.599 287.779 329.901 285.884 330.824C283.989 331.746 282.433 333.243 281.436 335.1C280.439 336.957 280.053 339.081 280.331 341.17L229.377 371.015C227.692 369.754 225.652 369.054 223.547 369.016C221.442 368.977 219.378 369.602 217.648 370.802C215.917 372.001 214.608 373.715 213.906 375.699C213.203 377.684 213.143 379.84 213.733 381.86L224.082 375.802L226.505 379.994L216.157 386.053C217.628 387.564 219.538 388.572 221.615 388.934C223.692 389.296 225.83 388.994 227.726 388.07C229.621 387.147 231.177 385.649 232.172 383.79C233.167 381.931 233.55 379.806 233.267 377.716H233.327Z" fill="#FFCF23" stroke="#263238" stroke-width="0.5" stroke-linecap="round" stroke-linejoin="round"/>
<path d="M276.671 355.529C276.671 355.529 282.936 360.012 282.936 364.181C282.936 368.349 275.471 372.845 270.406 373.136C265.341 373.426 264.432 367.768 265.329 364.787C266.226 361.806 276.671 355.529 276.671 355.529Z" fill="#BDBDBD" stroke="#263238" stroke-width="0.5" stroke-linecap="round" stroke-linejoin="round"/>
<path d="M211.007 318.219C211.007 318.219 245.626 337.607 250.401 337.026C255.175 336.444 261.743 332.252 265.329 333.391C268.916 334.53 278.756 349.81 279.652 352.5C280.549 355.19 272.491 364.739 270.697 366.229C268.904 367.72 263.233 373.693 262.046 374.287C260.858 374.881 253.091 381.752 249.213 381.752C245.335 381.752 238.768 378.759 238.162 377.268C237.556 375.778 239.059 373.693 239.059 373.693L220.882 365.332C220.882 365.332 186.25 346.526 180.289 336.977C174.327 327.429 189.243 310.416 189.243 310.416" fill="#BDBDBD"/>
<path d="M211.007 318.219C211.007 318.219 245.626 337.607 250.401 337.026C255.175 336.444 261.743 332.252 265.329 333.391C268.916 334.53 278.756 349.81 279.652 352.5C280.549 355.19 272.491 364.739 270.697 366.229C268.904 367.72 263.233 373.693 262.046 374.287C260.858 374.881 253.091 381.752 249.213 381.752C245.335 381.752 238.768 378.759 238.162 377.268C237.556 375.778 239.059 373.693 239.059 373.693L220.882 365.332C220.882 365.332 186.25 346.526 180.289 336.977C174.327 327.429 189.243 310.416 189.243 310.416" stroke="#263238" stroke-width="0.5" stroke-linecap="round" stroke-linejoin="round"/>
<path d="M251.006 365.078C252.065 365.218 253.047 365.704 253.8 366.46C254.554 367.216 255.037 368.2 255.175 369.258C255.781 373.136 254.278 380.006 254.278 380.006" stroke="#263238" stroke-width="0.5" stroke-linecap="round" stroke-linejoin="round"/>
<path d="M257.865 359.407C257.865 359.407 262.046 359.71 262.046 363.587V374.336" stroke="#263238" stroke-width="0.5" stroke-linecap="round" stroke-linejoin="round"/>
<path d="M262.348 348.671C262.348 348.671 270.103 354.342 270.697 357.626C271.026 360.5 271.026 363.403 270.697 366.277" stroke="#263238" stroke-width="0.5" stroke-linecap="round" stroke-linejoin="round"/>
<path d="M296.92 328.205C298.665 328.205 303.282 316.644 303.282 312.306C303.282 307.968 305.305 276.184 309.934 261.413C313.254 250.834 316.114 242.667 317.471 238.874C313.945 237.977 310.201 237.178 306.299 236.451C303.984 243.467 296.92 265.363 294.036 279.286C290.57 296.045 291.431 315.99 291.721 317.723C292.012 319.456 295.211 328.205 296.92 328.205Z" fill="white" stroke="#263238" stroke-width="0.5" stroke-linecap="round" stroke-linejoin="round"/>
<path d="M303.293 293.137L293.372 291.834C292.557 291.727 291.809 292.301 291.702 293.116L290.663 301.034C290.556 301.849 291.13 302.596 291.945 302.703L301.866 304.006C302.68 304.113 303.428 303.539 303.535 302.724L304.575 294.806C304.682 293.992 304.108 293.244 303.293 293.137Z" fill="white" stroke="#263238" stroke-width="0.5" stroke-linecap="round" stroke-linejoin="round"/>
<path d="M300.682 295.653L295.553 294.972C294.737 294.864 293.987 295.438 293.879 296.254L293.364 300.134C293.256 300.95 293.83 301.699 294.646 301.807L299.775 302.488C300.591 302.596 301.34 302.022 301.448 301.206L301.963 297.327C302.072 296.511 301.498 295.761 300.682 295.653Z" fill="white" stroke="#263238" stroke-width="0.5" stroke-linecap="round" stroke-linejoin="round"/>
<path d="M232.2 323.866C233.945 323.866 238.562 312.306 238.562 307.968C238.562 303.63 240.585 271.845 245.214 257.074C248.147 247.719 250.146 241.746 251.273 238.631C246.753 239.649 242.464 240.582 241.034 240.764C239.967 240.897 238.465 243.6 236.829 247.816C234.914 253.754 232.576 261.473 230.77 268.998C229.358 275.198 228.326 281.478 227.68 287.804C227.273 294.151 227.245 300.515 227.595 306.865C227.595 307.083 227.62 307.253 227.668 307.374C227.85 309.131 230.467 323.866 232.2 323.866Z" fill="white" stroke="#263238" stroke-width="0.5" stroke-linecap="round" stroke-linejoin="round"/>
<path d="M238.786 284.838L228.821 283.775C228.003 283.687 227.269 284.28 227.181 285.099L226.333 293.051C226.245 293.87 226.838 294.604 227.657 294.691L237.621 295.754C238.44 295.842 239.174 295.249 239.261 294.431L240.11 286.478C240.197 285.66 239.605 284.925 238.786 284.838Z" fill="white" stroke="#263238" stroke-width="0.5" stroke-linecap="round" stroke-linejoin="round"/>
<path d="M236.148 286.605L231.003 286.057C230.185 285.969 229.45 286.562 229.363 287.38L228.948 291.272C228.86 292.091 229.453 292.825 230.272 292.913L235.417 293.461C236.235 293.549 236.969 292.956 237.057 292.138L237.472 288.246C237.559 287.427 236.967 286.693 236.148 286.605Z" fill="white" stroke="#263238" stroke-width="0.5" stroke-linecap="round" stroke-linejoin="round"/>
</svg>
