<svg width="650" height="650" viewBox="0 0 650 650" fill="none" xmlns="http://www.w3.org/2000/svg">
<path d="M509.132 133.497C470.964 108.134 424.827 98.6308 375.154 120.12C326.053 141.362 300.859 191.529 258.401 221.299C213.239 252.954 154.401 256.399 105.417 280.891C70.8109 298.233 47.4629 330.291 42.4579 368.758C32.6689 444.08 74.0999 520.273 144.196 550.524C187.915 569.387 238.446 568.321 281.905 549.224C315.263 534.573 344.11 511.069 377.338 495.82C435.032 469.3 502.593 470.6 557.57 436.891C615.758 401.245 622.271 337.753 607.841 279.162C594.724 225.914 558.623 166.4 509.132 133.497Z" fill="#FFCF23" fill-opacity="0.5"/>
<path opacity="0.7" d="M509.132 133.497C470.964 108.134 424.827 98.6308 375.154 120.12C326.053 141.362 300.859 191.529 258.401 221.299C213.239 252.954 154.401 256.399 105.417 280.891C70.8109 298.233 47.4629 330.291 42.4579 368.758C32.6689 444.08 74.0999 520.273 144.196 550.524C187.915 569.387 238.446 568.321 281.905 549.224C315.263 534.573 344.11 511.069 377.338 495.82C435.032 469.3 502.593 470.6 557.57 436.891C615.758 401.245 622.271 337.753 607.841 279.162C594.724 225.914 558.623 166.4 509.132 133.497Z" fill="white"/>
<path d="M301.847 563.004C264.316 563.004 229.853 556.582 199.407 543.933C147.238 522.236 102.557 479.492 79.8979 429.533C78.3379 426.114 76.8169 422.448 75.3739 418.665C60.1639 379.002 56.2509 333.385 64.0639 286.728C75.5039 218.374 110.201 159.055 159.224 124.007C196.924 97.0581 244.218 82.2251 292.448 82.2251C307.144 82.2233 321.807 83.603 336.245 86.3461C377.663 94.2371 412.672 115.375 434.837 145.847C438.737 151.294 442.546 156.858 446.186 162.253C454.259 174.2 461.877 185.497 471.783 196.053C487.63 212.953 505.583 227.903 519.48 239.044C533.377 250.185 547.664 262.795 560.274 281.19C570.88 297.054 578.823 314.544 583.791 332.969C608.972 423.956 540.501 501.8 459.849 531.7C421.408 546 362.778 562.965 301.86 562.965L301.847 563.004Z" fill="#263238" fill-opacity="0.9"/>
<path d="M280.8 126.776C280.8 127.532 280.576 128.271 280.156 128.899C279.736 129.528 279.139 130.018 278.441 130.307C277.742 130.596 276.974 130.672 276.232 130.525C275.491 130.377 274.81 130.013 274.275 129.479C273.741 128.944 273.377 128.263 273.229 127.522C273.082 126.78 273.158 126.012 273.447 125.313C273.736 124.615 274.226 124.018 274.855 123.598C275.483 123.178 276.222 122.954 276.978 122.954C277.992 122.954 278.964 123.357 279.681 124.074C280.397 124.79 280.8 125.762 280.8 126.776Z" fill="white"/>
<path d="M514.657 275.782C514.657 276.541 514.431 277.282 514.008 277.912C513.585 278.542 512.984 279.032 512.282 279.319C511.58 279.606 510.808 279.678 510.065 279.525C509.322 279.372 508.641 279.002 508.109 278.461C507.577 277.92 507.219 277.233 507.079 276.487C506.939 275.741 507.024 274.971 507.323 274.274C507.622 273.577 508.122 272.984 508.759 272.572C509.396 272.16 510.141 271.947 510.9 271.96C511.903 271.974 512.861 272.383 513.564 273.098C514.268 273.814 514.66 274.779 514.657 275.782Z" fill="white"/>
<path d="M106.405 304.98C108.516 304.98 110.227 303.269 110.227 301.158C110.227 299.047 108.516 297.336 106.405 297.336C104.294 297.336 102.583 299.047 102.583 301.158C102.583 303.269 104.294 304.98 106.405 304.98Z" fill="white"/>
<path d="M169.013 179.764C171.124 179.764 172.835 178.053 172.835 175.942C172.835 173.831 171.124 172.12 169.013 172.12C166.902 172.12 165.191 173.831 165.191 175.942C165.191 178.053 166.902 179.764 169.013 179.764Z" fill="white"/>
<path d="M324.311 111.124C324.308 111.502 324.194 111.87 323.983 112.182C323.771 112.495 323.472 112.738 323.122 112.88C322.773 113.023 322.389 113.059 322.019 112.984C321.649 112.909 321.31 112.726 321.044 112.458C320.778 112.19 320.597 111.85 320.525 111.479C320.452 111.109 320.491 110.725 320.636 110.377C320.781 110.029 321.026 109.731 321.34 109.521C321.654 109.312 322.023 109.2 322.4 109.2C322.653 109.198 322.903 109.247 323.136 109.343C323.37 109.44 323.582 109.581 323.76 109.761C323.938 109.94 324.078 110.153 324.173 110.387C324.267 110.621 324.314 110.872 324.311 111.124Z" fill="white"/>
<path d="M383.357 175.37C383.357 175.749 383.244 176.119 383.034 176.433C382.823 176.748 382.524 176.993 382.174 177.137C381.824 177.281 381.439 177.318 381.068 177.243C380.697 177.169 380.357 176.985 380.09 176.717C379.823 176.448 379.642 176.106 379.57 175.735C379.498 175.363 379.537 174.979 379.684 174.63C379.831 174.281 380.078 173.983 380.394 173.775C380.71 173.566 381.08 173.456 381.459 173.459C381.709 173.459 381.957 173.509 382.188 173.605C382.419 173.701 382.629 173.842 382.806 174.02C382.982 174.197 383.122 174.408 383.216 174.64C383.311 174.871 383.359 175.12 383.357 175.37Z" fill="white"/>
<path d="M122.759 221.845C123.814 221.845 124.67 220.989 124.67 219.934C124.67 218.879 123.814 218.023 122.759 218.023C121.703 218.023 120.848 218.879 120.848 219.934C120.848 220.989 121.703 221.845 122.759 221.845Z" fill="white"/>
<path d="M187.629 169.728C187.631 170.107 187.522 170.477 187.313 170.793C187.105 171.109 186.807 171.356 186.458 171.503C186.109 171.649 185.725 171.689 185.353 171.617C184.982 171.545 184.64 171.364 184.371 171.097C184.103 170.83 183.919 170.49 183.845 170.119C183.77 169.748 183.807 169.363 183.951 169.013C184.095 168.663 184.34 168.364 184.655 168.153C184.969 167.942 185.339 167.83 185.718 167.83C186.222 167.83 186.707 168.03 187.065 168.385C187.423 168.741 187.625 169.223 187.629 169.728Z" fill="white"/>
<path d="M275.626 107.549C276.681 107.549 277.537 106.693 277.537 105.638C277.537 104.583 276.681 103.727 275.626 103.727C274.57 103.727 273.715 104.583 273.715 105.638C273.715 106.693 274.57 107.549 275.626 107.549Z" fill="white"/>
<path d="M325.052 212.823C326.107 212.823 326.963 211.967 326.963 210.912C326.963 209.857 326.107 209.001 325.052 209.001C323.996 209.001 323.141 209.857 323.141 210.912C323.141 211.967 323.996 212.823 325.052 212.823Z" fill="white"/>
<path d="M80.4569 378.872C81.5123 378.872 82.3679 378.017 82.3679 376.961C82.3679 375.906 81.5123 375.05 80.4569 375.05C79.4015 375.05 78.5459 375.906 78.5459 376.961C78.5459 378.017 79.4015 378.872 80.4569 378.872Z" fill="white"/>
<path d="M112.255 407.42C113.31 407.42 114.166 406.565 114.166 405.509C114.166 404.454 113.31 403.598 112.255 403.598C111.2 403.598 110.344 404.454 110.344 405.509C110.344 406.565 111.2 407.42 112.255 407.42Z" fill="white"/>
<path d="M99.6319 419.055C100.687 419.055 101.543 418.199 101.543 417.144C101.543 416.088 100.687 415.233 99.6319 415.233C98.5765 415.233 97.7209 416.088 97.7209 417.144C97.7209 418.199 98.5765 419.055 99.6319 419.055Z" fill="white"/>
<path d="M229.372 114.673C230.427 114.673 231.283 113.817 231.283 112.762C231.283 111.707 230.427 110.851 229.372 110.851C228.317 110.851 227.461 111.707 227.461 112.762C227.461 113.817 228.317 114.673 229.372 114.673Z" fill="white"/>
<path d="M263.211 206.05C264.266 206.05 265.122 205.194 265.122 204.139C265.122 203.084 264.266 202.228 263.211 202.228C262.155 202.228 261.3 203.084 261.3 204.139C261.3 205.194 262.155 206.05 263.211 206.05Z" fill="white"/>
<path d="M291.534 199.95C296.58 199.132 300.009 194.379 299.191 189.333C298.374 184.287 293.621 180.859 288.574 181.676C283.528 182.493 280.1 187.246 280.917 192.293C281.735 197.339 286.488 200.767 291.534 199.95Z" fill="white"/>
<path d="M92.2999 270.933C97.4119 270.933 101.556 266.789 101.556 261.677C101.556 256.565 97.4119 252.421 92.2999 252.421C87.188 252.421 83.0439 256.565 83.0439 261.677C83.0439 266.789 87.188 270.933 92.2999 270.933Z" fill="white"/>
<path d="M155.922 231.218C159.102 231.218 161.681 228.64 161.681 225.459C161.681 222.279 159.102 219.7 155.922 219.7C152.741 219.7 150.163 222.279 150.163 225.459C150.163 228.64 152.741 231.218 155.922 231.218Z" fill="white"/>
<path d="M373.1 279.734C376.28 279.734 378.859 277.156 378.859 273.975C378.859 270.795 376.28 268.216 373.1 268.216C369.919 268.216 367.341 270.795 367.341 273.975C367.341 277.156 369.919 279.734 373.1 279.734Z" fill="white"/>
<path d="M381.784 125.177C377.169 124.54 376.662 124.033 376.025 119.418C375.401 124.033 374.894 124.54 370.279 125.177C374.894 125.801 375.401 126.308 376.025 130.923C376.662 126.308 377.169 125.801 381.784 125.177Z" fill="white"/>
<path d="M422.123 329.745H394.953L402.35 270.322V259.675H414.726V270.322L422.123 329.745Z" fill="white" stroke="#263238" stroke-width="1.07731" stroke-linecap="round" stroke-linejoin="round"/>
<path d="M469.859 329.745H444.132L450.814 270.582V259.675H463.177V270.322L469.859 329.745Z" fill="white" stroke="#263238" stroke-width="1.07731" stroke-linecap="round" stroke-linejoin="round"/>
<path d="M410.137 131.859C410.029 131.559 409.832 131.3 409.571 131.116C409.31 130.933 409 130.834 408.681 130.834C408.362 130.834 408.051 130.933 407.791 131.116C407.53 131.3 407.333 131.559 407.225 131.859L405.171 137.8C402.949 144.196 401.815 150.919 401.817 157.69V266.5H415.545V157.69C415.547 150.919 414.413 144.196 412.191 137.8L410.137 131.859Z" fill="white" stroke="#263238" stroke-width="1.07731" stroke-linecap="round" stroke-linejoin="round"/>
<path d="M417.664 265.616H399.711V274.079H417.664V265.616Z" fill="#263238" stroke="white" stroke-width="1.07731" stroke-linecap="round" stroke-linejoin="round"/>
<path d="M458.666 131.859C458.562 131.558 458.366 131.296 458.106 131.111C457.846 130.927 457.535 130.827 457.216 130.827C456.898 130.827 456.587 130.927 456.327 131.111C456.067 131.296 455.871 131.558 455.767 131.859L453.7 137.8C451.478 144.196 450.344 150.919 450.346 157.69V266.5H464.1V157.69C464.099 150.92 462.97 144.198 460.759 137.8L458.666 131.859Z" fill="white" stroke="#263238" stroke-width="1.07731" stroke-linecap="round" stroke-linejoin="round"/>
<path d="M434.447 101.478C434.307 101.261 434.114 101.082 433.887 100.958C433.66 100.834 433.406 100.77 433.147 100.77C432.888 100.77 432.634 100.834 432.407 100.958C432.18 101.082 431.987 101.261 431.847 101.478L427.336 109.057C422.247 117.583 419.552 127.324 419.536 137.254V241.124H446.602V137.254C446.585 127.324 443.891 117.583 438.802 109.057L434.447 101.478Z" fill="#263238" stroke="white" stroke-width="1.07731" stroke-linecap="round" stroke-linejoin="round"/>
<path d="M466.193 265.616H448.24V274.079H466.193V265.616Z" fill="#263238" stroke="white" stroke-width="1.07731" stroke-linecap="round" stroke-linejoin="round"/>
<path d="M424.814 167.024C424.814 167.024 417.521 203.801 403.273 218.049C398.608 222.508 394.393 227.415 390.689 232.7C389.162 235.014 388.353 237.728 388.362 240.5V254.553H427.791V163.059L424.814 167.024Z" fill="white" stroke="#263238" stroke-width="1.07731" stroke-linecap="round" stroke-linejoin="round"/>
<path d="M388.7 248.859H424.151" stroke="#263238" stroke-width="1.07731" stroke-linecap="round" stroke-linejoin="round"/>
<path d="M441.532 167.531C441.532 167.531 448.825 204.295 463.073 218.543C467.737 222.994 471.952 227.892 475.657 233.168C477.182 235.483 477.991 238.196 477.984 240.968V255.021H438.555V163.553L441.532 167.531Z" fill="white" stroke="#263238" stroke-width="1.07731" stroke-linecap="round" stroke-linejoin="round"/>
<path d="M442.039 248.859H477.477" stroke="#263238" stroke-width="1.07731" stroke-linecap="round" stroke-linejoin="round"/>
<path d="M434.018 140.907C433.521 140.855 433.02 140.855 432.523 140.907C431.047 141.103 429.679 141.786 428.635 142.849C427.592 143.911 426.933 145.291 426.764 146.77V147.095C425.464 153.465 423.852 161.733 423.852 168.961V256.62H442.832V169C442.832 161.772 441.22 153.504 439.907 147.134V146.809C439.74 145.303 439.066 143.899 437.996 142.827C436.926 141.755 435.523 141.078 434.018 140.907Z" fill="white" stroke="#263238" stroke-width="1.07731" stroke-linecap="round" stroke-linejoin="round"/>
<path d="M426.4 238.589H427.362C428.503 238.589 429.598 239.042 430.405 239.849C431.212 240.656 431.665 241.751 431.665 242.892V255.892H422.084V242.892C422.084 242.326 422.196 241.765 422.413 241.242C422.63 240.719 422.948 240.244 423.349 239.845C423.75 239.445 424.226 239.128 424.749 238.913C425.273 238.697 425.834 238.587 426.4 238.589Z" fill="white" stroke="#263238" stroke-width="1.07731" stroke-linecap="round" stroke-linejoin="round"/>
<path d="M433.095 255.021H420.55V263.484H433.095V255.021Z" fill="#263238" stroke="#263238" stroke-width="1.07731" stroke-linecap="round" stroke-linejoin="round"/>
<path d="M439.257 238.589H440.219C441.36 238.589 442.455 239.042 443.262 239.849C444.069 240.656 444.522 241.751 444.522 242.892V255.892H434.941V242.892C434.941 242.326 435.053 241.765 435.27 241.242C435.487 240.719 435.805 240.244 436.206 239.845C436.607 239.445 437.083 239.128 437.606 238.913C438.13 238.697 438.691 238.587 439.257 238.589Z" fill="white" stroke="#263238" stroke-width="1.07731" stroke-linecap="round" stroke-linejoin="round"/>
<path d="M446.017 255.021H433.472V263.484H446.017V255.021Z" fill="#263238" stroke="#263238" stroke-width="1.07731" stroke-linecap="round" stroke-linejoin="round"/>
<path d="M434.018 140.907C433.521 140.855 433.02 140.855 432.523 140.907C431.162 141.085 429.889 141.68 428.881 142.611C427.873 143.543 427.178 144.764 426.894 146.107H439.647C439.364 144.763 438.67 143.541 437.662 142.609C436.653 141.678 435.38 141.083 434.018 140.907Z" fill="#263238" stroke="#263238" stroke-width="1.07731" stroke-linecap="round" stroke-linejoin="round"/>
<path d="M429.442 156.611C428.065 157.549 426.946 158.818 426.187 160.301C425.429 161.784 425.055 163.434 425.1 165.1C425.1 165.321 425.1 165.542 425.1 165.763C425.151 164.218 425.565 162.708 426.308 161.353C427.051 159.998 428.102 158.837 429.377 157.963L429.442 156.611Z" fill="#263238"/>
<path d="M436.397 156.091C435.463 155.662 434.447 155.44 433.42 155.44C432.392 155.44 431.377 155.662 430.443 156.091V157.391C431.379 156.971 432.394 156.754 433.42 156.754C434.446 156.754 435.461 156.971 436.397 157.391V156.091Z" fill="#263238"/>
<path d="M437.398 156.611V157.911C438.675 158.782 439.728 159.943 440.471 161.298C441.214 162.654 441.627 164.166 441.675 165.711C441.675 165.49 441.675 165.269 441.675 165.048C441.719 163.397 441.35 161.761 440.604 160.288C439.857 158.815 438.755 157.551 437.398 156.611Z" fill="#263238"/>
<path d="M439.244 144.911C438.81 143.842 438.1 142.908 437.186 142.205C436.272 141.501 435.188 141.053 434.044 140.907C433.547 140.855 433.046 140.855 432.549 140.907C431.416 141.044 430.339 141.476 429.426 142.16C428.514 142.845 427.797 143.758 427.349 144.807" stroke="white" stroke-width="0.538656" stroke-linecap="round" stroke-linejoin="round"/>
<path d="M581.919 333.554C581.542 332.254 581.152 330.863 580.749 329.524C574.887 331.361 569.491 334.444 564.931 338.561C560.372 342.679 556.756 347.734 554.333 353.379C554.229 353.613 554.151 353.847 554.047 354.081C553.128 353.777 552.184 353.556 551.226 353.418C550.585 347.737 548.113 342.418 544.184 338.265C540.255 334.112 535.082 331.349 529.445 330.393C523.808 329.438 518.013 330.342 512.935 332.969C507.857 335.595 503.77 339.802 501.293 344.955C499.986 343.474 498.351 342.32 496.518 341.584C494.685 340.848 492.705 340.551 490.737 340.717C491.323 337.064 490.866 333.32 489.42 329.915C487.973 326.509 485.596 323.581 482.56 321.466C479.525 319.351 475.954 318.135 472.259 317.957C468.564 317.78 464.893 318.648 461.669 320.463C460.484 318.583 458.859 317.02 456.935 315.908C455.011 314.797 452.845 314.17 450.624 314.083C448.404 313.996 446.195 314.451 444.19 315.409C442.184 316.366 440.442 317.797 439.114 319.579C437.427 321.836 436.482 324.562 436.41 327.379C434.844 326.588 433.14 326.107 431.392 325.962C431.051 323.244 429.88 320.697 428.038 318.669C426.635 317.076 424.88 315.832 422.911 315.037C420.943 314.242 418.816 313.917 416.701 314.089C414.585 314.261 412.538 314.924 410.724 316.026C408.91 317.128 407.378 318.639 406.25 320.437C403.026 318.619 399.353 317.747 395.656 317.923C391.958 318.098 388.385 319.314 385.348 321.429C382.31 323.545 379.931 326.475 378.484 329.882C377.037 333.29 376.582 337.036 377.169 340.691C375.203 340.523 373.224 340.819 371.393 341.555C369.562 342.291 367.929 343.447 366.626 344.929C364.151 339.77 360.065 335.557 354.985 332.927C349.904 330.296 344.106 329.389 338.465 330.345C332.824 331.301 327.647 334.067 323.717 338.225C319.787 342.382 317.317 347.706 316.68 353.392C315.723 353.532 314.779 353.754 313.859 354.055L313.586 353.353C309.915 344.838 303.576 337.747 295.524 333.149C287.471 328.551 278.143 326.695 268.944 327.862C259.745 329.028 251.174 333.153 244.524 339.615C237.874 346.077 233.505 354.526 232.076 363.688C222.047 369.547 214.614 378.992 211.276 390.117C210.34 390.065 209.404 390.039 208.468 390.039C197.166 390.038 186.102 393.283 176.591 399.388C167.081 405.493 159.523 414.201 154.817 424.476C142.892 425.259 131.56 429.959 122.581 437.846C113.603 445.734 107.482 456.366 105.17 468.091C110.969 475.781 117.247 483.097 123.968 489.996H443.768C486.551 489.996 528.047 474.162 559.156 444.795C568.074 436.384 575.237 427.583 578.591 418.431C583.786 404.375 586.64 389.562 587.041 374.582C587.364 360.728 585.638 346.903 581.919 333.554Z" fill="white"/>
<path opacity="0.5" d="M583.089 374.4C575.053 374.399 567.171 376.602 560.3 380.77C556.096 374.629 549.665 370.368 542.371 368.892C535.077 367.417 527.495 368.842 521.235 372.866C517.948 367.175 513.219 362.452 507.525 359.172C501.83 355.893 495.371 354.172 488.8 354.185C487.591 354.185 486.382 354.25 485.199 354.367C482.978 351.017 479.539 348.665 475.612 347.808C471.686 346.952 467.579 347.658 464.165 349.778C464.165 349.453 464.165 349.128 464.165 348.803C464.166 345.897 463.35 343.049 461.81 340.585C460.269 338.122 458.066 336.141 455.453 334.87C452.839 333.6 449.921 333.09 447.032 333.4C444.142 333.709 441.399 334.826 439.114 336.622C437.413 335.163 435.382 334.142 433.198 333.645C431.013 333.148 428.74 333.192 426.576 333.772C424.412 334.352 422.422 335.451 420.778 336.974C419.135 338.497 417.887 340.397 417.144 342.511C415.185 341.148 412.907 340.317 410.531 340.098C408.154 339.88 405.762 340.281 403.588 341.264C401.414 342.246 399.531 343.776 398.125 345.703C396.718 347.631 395.836 349.89 395.564 352.261C393.016 351.191 390.261 350.706 387.5 350.841C384.74 350.976 382.046 351.727 379.614 353.041C377.182 354.354 375.076 356.195 373.449 358.429C371.823 360.663 370.717 363.233 370.214 365.95C368.146 364.528 365.761 363.635 363.268 363.349C360.775 363.064 358.25 363.394 355.914 364.312H355.407C353.462 364.313 351.524 364.549 349.635 365.014C347.603 363.872 345.31 363.272 342.979 363.272C340.124 363.272 337.34 364.159 335.011 365.811C332.683 367.462 330.924 369.795 329.979 372.489C328.115 371.195 325.961 370.379 323.708 370.114C321.454 369.849 319.17 370.142 317.057 370.968C307.268 368.589 296.961 369.61 287.828 373.862C278.695 378.114 271.28 385.345 266.799 394.368C262.377 394.632 258.11 396.088 254.448 398.58C250.786 401.072 247.867 404.509 245.999 408.525C238.311 402.792 228.974 399.699 219.383 399.709C209.793 399.719 200.462 402.831 192.786 408.58C185.109 414.329 179.498 422.407 176.79 431.607C174.083 440.807 174.423 450.637 177.762 459.628C170.15 455.104 161.355 452.971 152.516 453.505C144.403 454.002 136.581 456.704 129.891 461.32C123.202 465.937 117.899 472.292 114.556 479.7C137.912 506.824 167.223 528.18 200.2 542.1C230.399 554.658 264.615 561.028 301.886 561.028C362.518 561.028 420.901 544.128 459.186 529.828C526.526 504.855 585.286 446.173 587.106 374.504C585.767 374.465 584.441 374.4 583.089 374.4Z" fill="#263238"/>
<path d="M566.202 420.745C561.999 414.604 555.567 410.343 548.273 408.867C540.979 407.392 533.397 408.817 527.137 412.841C523.86 407.159 519.144 402.441 513.463 399.162C507.783 395.882 501.339 394.157 494.78 394.16C493.558 394.16 492.362 394.225 491.179 394.342C488.957 390.993 485.52 388.64 481.594 387.781C477.668 386.922 473.562 387.625 470.145 389.74C470.145 389.428 470.145 389.103 470.145 388.765C470.144 385.86 469.326 383.014 467.784 380.552C466.243 378.09 464.04 376.112 461.427 374.843C458.814 373.574 455.897 373.065 453.009 373.375C450.12 373.685 447.378 374.802 445.094 376.597C443.393 375.138 441.362 374.117 439.178 373.62C436.993 373.123 434.72 373.167 432.556 373.747C430.392 374.327 428.402 375.426 426.758 376.949C425.115 378.472 423.867 380.372 423.124 382.486C421.165 381.123 418.887 380.292 416.511 380.073C414.135 379.855 411.742 380.256 409.568 381.239C407.394 382.221 405.511 383.751 404.105 385.678C402.698 387.606 401.816 389.865 401.544 392.236C398.752 391.064 395.716 390.595 392.701 390.869C389.686 391.144 386.784 392.153 384.25 393.81C381.716 395.466 379.627 397.719 378.166 400.371C376.704 403.022 375.916 405.992 375.869 409.019C372.941 406.868 369.572 405.396 366.004 404.707C362.437 404.018 358.762 404.13 355.244 405.036C351.725 405.942 348.452 407.618 345.661 409.944C342.87 412.269 340.631 415.186 339.105 418.483C333.31 414.151 326.544 411.301 319.396 410.18C312.248 409.059 304.935 409.701 298.092 412.052C291.249 414.402 285.084 418.388 280.133 423.664C275.182 428.941 271.596 435.346 269.685 442.325C265.628 443.234 261.994 445.48 259.368 448.703C256.741 451.926 255.274 455.939 255.203 460.096C252.276 457.946 248.908 456.473 245.341 455.784C241.775 455.095 238.101 455.208 234.583 456.113C231.066 457.019 227.794 458.696 225.004 461.021C222.214 463.347 219.976 466.263 218.452 469.56C211.845 464.627 203.996 461.629 195.783 460.902C187.57 460.176 179.316 461.749 171.946 465.445C164.576 469.142 158.38 474.816 154.05 481.834C149.721 488.851 147.43 496.935 147.433 505.18C147.433 505.427 147.433 505.661 147.433 505.908H147.238V510.978C163.4 523.704 181.217 534.174 200.2 542.1C230.399 554.658 264.615 561.028 301.886 561.028C362.518 561.028 420.901 544.128 459.186 529.828C513.214 509.782 561.73 468.039 579.722 415.311C574.943 416.353 570.373 418.19 566.202 420.745Z" fill="#263238"/>
<path opacity="0.5" d="M311.077 259.675C300.119 252.501 287.319 248.654 274.222 248.599H274.014C257.918 248.595 242.073 252.584 227.9 260.211C213.726 267.837 201.666 278.862 192.801 292.297C183.937 305.731 178.545 321.155 177.109 337.187C175.673 353.218 178.237 369.355 184.573 384.151C190.908 398.947 200.817 411.94 213.409 421.964C226.002 431.988 240.886 438.731 256.726 441.587C272.566 444.444 288.867 443.324 304.168 438.33C319.469 433.336 333.291 424.622 344.396 412.971C360.137 388.177 365.467 358.177 359.229 329.478C352.992 300.78 335.689 275.698 311.077 259.675Z" fill="white" stroke="#263238" stroke-width="0.5" stroke-miterlimit="10"/>
<path d="M302.77 259.675C302.601 259.558 302.432 259.467 302.276 259.35C327.847 281.957 344.253 316.745 344.253 355.771C344.336 378.617 338.514 401.097 327.353 421.031C330.417 418.519 333.33 415.828 336.076 412.971C351.818 388.179 357.15 358.179 350.915 329.481C344.68 300.783 327.381 275.7 302.77 259.675Z" fill="white"/>
<path d="M344.396 412.971C333.291 424.615 319.47 433.322 304.173 438.312C288.875 443.301 272.578 444.417 256.744 441.559C240.909 438.701 226.03 431.958 213.442 421.936C200.854 411.914 190.949 398.925 184.615 384.133C178.282 369.341 175.717 353.209 177.151 337.182C178.586 321.156 183.975 305.735 192.834 292.303C201.694 278.871 213.748 267.848 227.916 260.22C242.084 252.592 257.923 248.6 274.014 248.599H274.222C287.319 248.654 300.12 252.501 311.077 259.675C330.553 272.373 345.593 290.82 354.107 312.455C343.683 285.021 323.38 262.475 297.185 249.244C270.989 236.012 240.794 233.051 212.527 240.942C184.26 248.833 159.964 267.006 144.409 291.892C128.855 316.778 123.165 346.58 128.458 375.447C133.75 404.313 149.642 430.158 173.014 447.907C196.386 465.657 225.548 474.028 254.776 471.378C284.003 468.727 311.184 455.247 330.982 433.583C350.78 411.919 361.764 383.636 361.777 354.289C361.777 354.068 361.777 353.847 361.777 353.626C361.719 374.654 355.691 395.234 344.396 412.971Z" fill="#FFCF23" stroke="#263238" stroke-width="0.5" stroke-miterlimit="10"/>
<path d="M144.3 304.824C134.718 325.531 131.361 348.576 134.639 371.156C137.916 393.735 147.686 414.875 162.76 432.003" fill="#FFCF23"/>
<path d="M144.3 304.824C134.718 325.531 131.361 348.576 134.639 371.156C137.916 393.735 147.686 414.875 162.76 432.003" stroke="#263238" stroke-width="2" stroke-linecap="round" stroke-linejoin="round"/>
<path d="M158.938 281.112C155.882 284.955 153.069 288.984 150.514 293.176L158.938 281.112Z" fill="#FFCF23"/>
<path d="M158.938 281.112C155.882 284.955 153.069 288.984 150.514 293.176" stroke="#263238" stroke-width="2" stroke-linecap="round" stroke-linejoin="round"/>
<mask id="mask0_1826_3647" style="mask-type:luminance" maskUnits="userSpaceOnUse" x="176" y="248" width="186" height="196">
<path d="M311.077 259.675C300.119 252.501 287.319 248.654 274.222 248.599H274.014C257.918 248.595 242.073 252.584 227.9 260.211C213.726 267.837 201.666 278.862 192.801 292.297C183.937 305.731 178.545 321.155 177.109 337.187C175.673 353.218 178.237 369.355 184.573 384.151C190.908 398.947 200.817 411.94 213.409 421.964C226.002 431.988 240.886 438.731 256.726 441.587C272.566 444.444 288.867 443.324 304.168 438.33C319.469 433.336 333.291 424.622 344.396 412.971C360.137 388.177 365.467 358.177 359.229 329.478C352.992 300.78 335.689 275.698 311.077 259.675Z" fill="white"/>
</mask>
<g mask="url(#mask0_1826_3647)">
<path d="M181.792 280.02C199.992 262.548 225.394 254.93 250.38 258.219C254.059 258.7 257.959 259.363 262.08 260.26C286.468 265.629 300.612 290.992 302.562 292.461C304.512 293.93 299.637 308.061 299.637 308.061C299.637 308.061 319.137 365.131 316.706 373.919C314.275 382.707 284.024 392.457 284.024 392.457L288.418 410.501L195.741 428.545C195.741 428.545 187.941 393.445 177.684 379.288C167.427 365.131 159.575 349.193 162.084 319.774C163.488 302.575 171.886 289.562 181.792 280.02Z" fill="white"/>
<mask id="mask1_1826_3647" style="mask-type:luminance" maskUnits="userSpaceOnUse" x="161" y="257" width="156" height="172">
<path d="M181.792 280.02C199.992 262.548 225.394 254.93 250.38 258.219C254.059 258.7 257.959 259.363 262.08 260.26C286.468 265.629 300.612 290.992 302.562 292.461C304.512 293.93 299.637 308.061 299.637 308.061C299.637 308.061 319.137 365.131 316.706 373.919C314.275 382.707 284.024 392.457 284.024 392.457L288.418 410.501L195.741 428.545C195.741 428.545 187.941 393.445 177.684 379.288C167.427 365.131 159.575 349.193 162.084 319.774C163.488 302.575 171.886 289.562 181.792 280.02Z" fill="white"/>
</mask>
<g mask="url(#mask1_1826_3647)">
<path opacity="0.5" d="M286.52 388.141C271.817 389.025 243.763 374.777 233.077 352.508C226.502 339.045 215.718 328.092 202.358 321.308C189.33 317.596 175.711 316.422 162.24 317.85C162.162 318.474 162.084 319.15 162.032 319.735C159.523 349.154 167.388 365.092 177.632 379.249C187.876 393.406 195.689 428.506 195.689 428.506L288.366 410.462L283.972 392.418C291.778 389.855 299.361 386.655 306.644 382.85C300.482 385.372 293.098 387.738 286.52 388.141Z" fill="black"/>
</g>
<path d="M181.792 280.02C199.992 262.548 225.394 254.93 250.38 258.219C254.059 258.7 257.959 259.363 262.08 260.26C286.468 265.629 300.612 290.992 302.562 292.461C304.512 293.93 299.637 308.061 299.637 308.061C299.637 308.061 319.137 365.131 316.706 373.919C314.275 382.707 284.024 392.457 284.024 392.457L288.418 410.501L195.741 428.545C195.741 428.545 187.941 393.445 177.684 379.288C167.427 365.131 159.575 349.193 162.084 319.774C163.488 302.575 171.886 289.562 181.792 280.02Z" stroke="#263238" stroke-width="0.5" stroke-miterlimit="10"/>
<path d="M276.653 285.623C276.653 285.623 277.628 286.598 268.853 286.598C260.078 286.598 244.946 285.142 240.071 289.536C235.196 293.93 227.383 306.605 230.321 306.605C233.259 306.605 237.146 302.211 240.071 302.211C242.373 302.114 244.659 301.787 246.896 301.236C246.896 301.236 234.702 308.555 239.096 309.036C243.49 309.517 263.003 306.605 268.359 303.186C273.715 299.767 277.628 297.336 278.122 294.411C278.616 291.486 280.072 289.536 276.653 285.623Z" fill="#263238" stroke="#263238" stroke-width="0.5" stroke-miterlimit="10"/>
<path d="M297.063 285.298C296.686 286.065 294.762 289.471 291.291 289.042C289.052 288.806 286.974 287.767 285.441 286.117C285.846 287.877 286.008 289.683 285.922 291.486C285.922 295.386 286.416 298.311 288.847 301.236C291.278 304.161 299.585 308.061 299.585 308.061C299.585 308.061 302.51 299.286 302.51 292.461C301.886 291.993 300.053 289.146 297.063 285.298Z" fill="#263238" stroke="#263238" stroke-width="0.5" stroke-miterlimit="10"/>
<path d="M283.972 299.78C283.972 299.78 303.472 309.036 304.46 311.974C305.448 314.912 299.585 326.118 299.585 326.118" fill="white"/>
<path d="M283.972 299.78C283.972 299.78 303.472 309.036 304.46 311.974C305.448 314.912 299.585 326.118 299.585 326.118" stroke="#263238" stroke-width="0.5" stroke-miterlimit="10"/>
<path d="M304.46 312C304.46 312 275.197 330.044 279.097 332.475C282.997 334.906 293.722 331.019 296.66 328.575C299.598 326.131 304.941 318.305 304.46 312Z" fill="#263238" stroke="#263238" stroke-width="0.5" stroke-miterlimit="10"/>
<path d="M300.443 337.87C300.443 337.87 289.874 340.678 286.442 341.042C283.01 341.406 276.497 346.034 279.422 346.138C282.347 346.242 293.267 341.302 296.192 341.406C299.117 341.51 303.992 341.64 304.304 340.392C304.928 338 300.443 337.87 300.443 337.87Z" fill="#263238" stroke="#263238" stroke-width="0.5" stroke-miterlimit="10"/>
<path d="M284.388 394.147C283.205 394.251 282.126 394.329 281.177 394.368C270.491 394.823 256.477 394.017 242.879 387.244C236.709 383.865 231.21 379.384 226.655 374.023C240.824 366.32 255.979 360.59 271.7 356.993C273.596 356.546 275.238 355.365 276.263 353.708C277.288 352.052 277.613 350.056 277.166 348.159C276.72 346.263 275.538 344.622 273.882 343.597C272.225 342.572 270.229 342.246 268.333 342.693C250.62 346.733 233.58 353.3 217.737 362.193C207.025 344.981 200.98 322.023 211.237 300.469C225.394 270.686 255.242 263.12 265.837 261.339C264.602 260.949 263.341 260.598 262.054 260.312C257.985 259.415 254.085 258.752 250.354 258.271C225.368 254.982 199.927 262.6 181.766 280.072C171.86 289.614 163.462 302.627 162.006 319.826C159.497 349.245 167.362 365.183 177.606 379.34C187.85 393.497 195.663 428.597 195.663 428.597L288.34 410.553L284.388 394.147Z" fill="#263238"/>
</g>
<path d="M311.077 259.675C300.119 252.501 287.319 248.654 274.222 248.599H274.014C257.918 248.595 242.073 252.584 227.9 260.211C213.726 267.837 201.666 278.862 192.801 292.297C183.937 305.731 178.545 321.155 177.109 337.187C175.673 353.218 178.237 369.355 184.573 384.151C190.908 398.947 200.817 411.94 213.409 421.964C226.002 431.988 240.886 438.731 256.726 441.587C272.566 444.444 288.867 443.324 304.168 438.33C319.469 433.336 333.291 424.622 344.396 412.971C360.137 388.177 365.467 358.177 359.229 329.478C352.992 300.78 335.69 275.698 311.077 259.675Z" stroke="#263238" stroke-width="0.5" stroke-miterlimit="10"/>
<path d="M164.814 374.987C174.402 374.694 181.836 363.397 181.42 349.755C181.003 336.113 172.893 325.291 163.305 325.584C153.717 325.877 146.283 337.173 146.7 350.816C147.117 364.458 155.227 375.28 164.814 374.987Z" fill="#263238"/>
<path d="M371.8 459.836C371.8 459.836 361.777 453.817 361.114 443.807C360.451 433.797 361.777 429.78 361.777 429.78C361.777 429.78 298.324 389.025 166.062 434.447C166.062 434.447 150.033 436.449 152.035 443.807C154.037 451.165 157.378 454.493 157.378 460.499C157.378 466.505 144.69 474.5 139.334 475.865C137.397 476.346 129.558 480.363 119.834 485.602C142.272 509.967 169.678 529.233 200.2 542.1C230.399 554.658 264.615 561.028 301.886 561.028C347.815 561.028 392.444 551.304 427.986 540.423L427.206 479.843L371.8 459.836Z" fill="white"/>
<path d="M179.881 532.415C164.385 499.915 144.404 470.938 125.983 470.522C123.5 470.522 118.183 472.342 110.968 475.449C130.067 498.687 153.465 518.028 179.881 532.415Z" fill="#FFCF23"/>
<path d="M166.062 434.447C166.062 434.447 150.033 436.449 152.035 443.807C154.037 451.165 157.378 454.493 157.378 460.499C157.311 461.737 156.907 462.933 156.208 463.957C187.993 454.376 283.491 429.208 361.4 445.9C361.257 445.205 361.161 444.502 361.114 443.794C360.438 433.771 361.777 429.767 361.777 429.767C361.777 429.767 298.324 389.025 166.062 434.447Z" fill="#263238" stroke="#263238" stroke-width="0.5" stroke-linejoin="round"/>
<path d="M151.281 455C149.019 455.005 146.813 454.291 144.983 452.962C143.152 451.633 141.79 449.758 141.094 447.605C140.397 445.453 140.401 443.135 141.106 440.986C141.811 438.836 143.179 436.965 145.015 435.643C163.527 422.266 205.036 410.943 253.331 406.094C301.015 401.31 343.694 404.027 364.702 413.205C367.06 414.477 368.854 416.588 369.729 419.12C370.604 421.652 370.496 424.42 369.427 426.876C368.357 429.333 366.404 431.298 363.954 432.382C361.505 433.466 358.737 433.591 356.2 432.731C341.796 426.439 305.084 422.331 255.528 427.297C205.374 432.341 170.196 443.794 157.573 452.907C155.752 454.258 153.548 454.991 151.281 455Z" fill="white" stroke="#263238" stroke-width="0.5" stroke-miterlimit="10"/>
<path d="M233.415 425.009C237.315 424.645 241.358 424.385 245.401 424.281" stroke="#263238" stroke-width="2" stroke-linecap="round" stroke-linejoin="round"/>
<path d="M148.018 450.489C171.292 438.596 196.301 430.461 222.118 426.387" stroke="#263238" stroke-width="2" stroke-linecap="round" stroke-linejoin="round"/>
<path d="M152.516 468.143C148.81 471.447 144.508 474.015 139.841 475.709C154.011 485.511 168.22 507.988 179.881 532.415C186.483 535.991 193.265 539.224 200.2 542.1C200.616 542.282 201.045 542.438 201.5 542.607C184.106 500.123 162.305 477.009 152.516 468.143Z" fill="#263238"/>
<path d="M396.708 469.118C396.694 469.017 396.672 468.917 396.643 468.819L379.054 462.462C387.065 490.807 393.553 519.561 398.489 548.6C400.725 548.054 402.935 547.508 405.132 546.936L395.343 474.344C395.208 473.426 395.26 472.49 395.494 471.592C395.729 470.694 396.141 469.853 396.708 469.118Z" fill="#263238"/>
<path d="M474.422 501.8C466.011 495.547 442.754 479.908 404.651 466.7C403.514 466.306 402.295 466.21 401.11 466.42C399.924 466.63 398.813 467.14 397.88 467.9C396.947 468.661 396.225 469.648 395.781 470.766C395.337 471.885 395.186 473.099 395.343 474.292L405.132 546.884C423.422 542.141 441.459 536.47 459.173 529.893C464.182 528.047 469.127 526.01 474.006 523.783L477.1 508.885C477.375 507.572 477.268 506.207 476.794 504.952C476.32 503.697 475.497 502.603 474.422 501.8Z" fill="#FFCF23"/>
<path d="M333.047 476.528L345.748 535.314L407.94 538.902L401.193 486.551L333.047 476.528Z" fill="#FFCF23" stroke="#263238" stroke-width="0.5" stroke-linecap="round" stroke-linejoin="round"/>
<path d="M333.047 476.528L325.039 488.553L337.064 548.002L345.748 535.314L333.047 476.528Z" fill="#263238" stroke="#263238" stroke-width="0.5" stroke-linecap="round" stroke-linejoin="round"/>
<path d="M345.8 535.314L337.09 548.691L393.146 549.848C395.815 549.241 398.446 548.609 401.037 547.95L408.59 539.318L345.8 535.314Z" fill="#263238"/>
<path d="M222.144 520.455C230.997 520.455 238.173 514.076 238.173 506.207C238.173 498.338 230.997 491.959 222.144 491.959C213.291 491.959 206.115 498.338 206.115 506.207C206.115 514.076 213.291 520.455 222.144 520.455Z" fill="#263238"/>
<path d="M261.326 515.112C270.179 515.112 277.355 508.733 277.355 500.864C277.355 492.995 270.179 486.616 261.326 486.616C252.474 486.616 245.297 492.995 245.297 500.864C245.297 508.733 252.474 515.112 261.326 515.112Z" fill="#263238"/>
<path d="M327.475 46.7278V53.0459H322.079V46.3588C322.079 37.1351 318.574 30.2636 309.166 30.2636C299.758 30.2636 296.253 37.2274 296.253 46.3588V90.7244C296.253 99.948 299.804 106.681 309.166 106.681C318.528 106.681 322.079 99.8558 322.079 90.7244V72.2772H310.78V67.2042H327.475V90.2632C327.475 102.577 322.079 111.8 309.028 111.8C295.977 111.8 290.581 102.577 290.581 90.2632V46.6356C290.581 34.3221 295.931 25.0522 309.028 25.0522C322.126 25.0522 327.475 34.4143 327.475 46.7278Z" fill="#FFCF23"/>
<path d="M409.53 44.7482C409.53 32.0658 415.387 22.75 428.577 22.75C441.767 22.75 447.854 31.9736 447.854 44.7482V89.2983C447.854 101.981 441.997 111.297 428.577 111.297C415.156 111.297 409.53 102.073 409.53 89.2983V44.7482ZM415.249 89.6672C415.249 98.8908 418.984 106.085 428.577 106.085C438.169 106.085 442.135 99.1214 442.135 89.6672V44.3793C442.135 35.1557 438.262 27.9613 428.577 27.9613C418.892 27.9613 415.249 34.9251 415.249 44.3793V89.6672Z" fill="#FFCF23"/>
<path d="M456.942 44.7482C456.942 32.0658 462.799 22.75 475.943 22.75C489.086 22.75 495.22 31.9736 495.22 44.7482V89.2983C495.22 101.981 489.409 111.297 475.943 111.297C462.476 111.297 456.942 102.073 456.942 89.2983V44.7482ZM462.661 89.6672C462.661 98.8908 466.396 106.085 475.943 106.085C485.489 106.085 489.501 99.1214 489.501 89.6672V44.3793C489.501 35.1557 485.674 27.9613 475.943 27.9613C466.212 27.9613 462.661 34.9251 462.661 44.3793V89.6672Z" fill="#FFCF23"/>
<path d="M401.687 44.8881V46.7328H396.199V44.5192C396.199 35.2956 392.74 28.3317 383.286 28.3317C373.832 28.3317 370.327 35.2033 370.327 44.3808C370.327 65.5489 401.779 65.9179 401.779 89.8993C401.779 102.443 396.337 111.667 383.009 111.667C369.681 111.667 364.239 102.443 364.239 89.8993V85.2875H369.727V89.8993C369.727 99.1229 373.324 105.948 382.917 105.948C392.509 105.948 396.061 99.2151 396.061 89.8993C396.061 69.0078 364.608 68.6388 364.608 44.3808C364.608 31.3294 370.327 22.8898 383.055 22.7515C395.784 22.6131 401.687 32.344 401.687 44.8881Z" fill="#FFCF23"/>
<path d="M566.301 98.7114V109.641H560.721V98.7114H566.301Z" fill="#FFCF23"/>
<path d="M581.985 98.7114V109.641H576.405V98.7114H581.985Z" fill="#FFCF23"/>
<path d="M597.523 98.7114V109.641H591.943V98.7114H597.523Z" fill="#FFCF23"/>
<path d="M120.311 44.4255V50.7437H114.915V44.0565C114.915 34.8329 111.41 27.9614 102.002 27.9614C92.5942 27.9614 89.0892 34.9251 89.0892 44.0565V88.4222C89.0892 97.6458 92.6403 104.379 102.002 104.379C111.364 104.379 114.915 97.5536 114.915 88.4222V87.6607V81.9061H120.246L120.311 87.6607C120.311 99.9742 114.915 109.498 101.864 109.498C88.8126 109.498 83.4167 100.274 83.4167 87.961V44.3333C83.4167 32.0198 88.7664 22.75 101.864 22.75C114.961 22.75 120.311 32.112 120.311 44.4255Z" fill="#FFCF23"/>
<path d="M180.609 110.324H175.49V25.0522H182.823L200.81 110.22H196.206L180.609 34.3219V110.324Z" fill="#FFCF23"/>
<path d="M217.625 110.324H222.745V25.0522H215.412L196.206 110.22H200.81L217.625 34.3219V110.324Z" fill="#FFCF23"/>
<path d="M129.453 44.3332C129.453 31.8813 135.172 22.75 147.901 22.75C160.629 22.75 166.763 31.9736 166.763 44.3332V87.9608C166.763 100.367 161.044 109.498 147.901 109.498C134.757 109.498 129.453 100.274 129.453 87.9608V44.3332ZM135.034 88.3298C135.034 97.5535 138.677 104.379 148.085 104.379C157.493 104.379 161.367 97.5535 161.367 88.3298V43.9642C161.367 34.7406 157.585 27.869 148.085 27.869C138.585 27.869 135.034 34.6945 135.034 43.9642V88.3298Z" fill="#FFCF23"/>
<path d="M230.733 110.324L230.733 25.0522H236.36V110.324H230.733Z" fill="#FFCF23"/>
<path d="M249.664 110.324H244.544V25.0522H251.877L277.473 97.0424V25.0522H282.592V110.324H276.366L249.664 34.3219V110.324Z" fill="#FFCF23"/>
<path d="M509.769 110.324H504.65V25.0522H511.982L537.578 97.0424V25.0522H542.697V110.324H536.471L509.769 34.3219V110.324Z" fill="#FFCF23"/>
</svg>
