<svg width="351" height="351" viewBox="0 0 351 351" fill="none" xmlns="http://www.w3.org/2000/svg">
<g clip-path="url(#clip0_1479_3068)">
<path d="M334.005 194.489C324.535 223.194 304.127 254.665 274.089 264.907C228.712 280.393 224.64 317.606 142.302 317.353C130.279 317.37 118.289 316.082 106.543 313.513C100.8 312.237 95.1443 310.595 89.6103 308.599C40.8213 291 14.1102 249.147 10.2843 204.423C5.26496 145.595 45.293 115.921 71.3583 98.4206C97.4235 80.9197 127.188 15.9707 208.157 15.5846C220.517 15.4738 232.849 16.7906 244.907 19.5088C272.397 25.8268 300.688 41.0391 317.683 64.2262C318.954 65.9671 320.175 67.7362 321.354 69.5754C344.303 105.258 346.921 155.346 334.005 194.489Z" fill="#FFCF23" fill-opacity="0.5"/>
<path opacity="0.7" d="M334.005 194.489C324.535 223.194 304.127 254.665 274.089 264.907C228.712 280.393 224.64 317.606 142.302 317.353C130.279 317.37 118.289 316.082 106.543 313.513C100.8 312.237 95.1443 310.595 89.6103 308.599C40.8213 291 14.1102 249.147 10.2843 204.423C5.26496 145.595 45.293 115.921 71.3583 98.4206C97.4235 80.9197 127.188 15.9707 208.157 15.5846C220.517 15.4738 232.849 16.7906 244.907 19.5088C272.397 25.8268 300.688 41.0391 317.683 64.2262C318.954 65.9671 320.175 67.7362 321.354 69.5754C344.303 105.258 346.921 155.346 334.005 194.489Z" fill="white"/>
<path d="M334.047 321.755H21.2778C21.1847 321.755 21.0954 321.718 21.0296 321.652C20.9637 321.586 20.9268 321.497 20.9268 321.404C20.9268 321.311 20.9637 321.221 21.0296 321.156C21.0954 321.09 21.1847 321.053 21.2778 321.053H334.047C334.14 321.053 334.229 321.09 334.295 321.156C334.361 321.221 334.398 321.311 334.398 321.404C334.398 321.497 334.361 321.586 334.295 321.652C334.229 321.718 334.14 321.755 334.047 321.755Z" fill="#263238"/>
<path d="M29.3577 147.223L28.5083 146.718L29.5753 145.23L27.9888 144.612L28.3328 143.692L29.8561 144.5L29.6946 142.646H30.7827L30.6072 144.5L32.1376 143.692L32.4745 144.612L30.888 145.23L31.9621 146.704L31.0916 147.216L30.2282 145.538L29.3577 147.223Z" fill="#263238"/>
<path d="M34.7068 147.223L33.8574 146.718L34.9174 145.23L33.3379 144.612L33.6959 143.699L35.2192 144.507L35.0578 142.653H36.1459L35.9704 144.507L37.5007 143.699L37.8377 144.619L36.2512 145.237L37.3252 146.711L36.4548 147.223L35.5913 145.546L34.7068 147.223Z" fill="#263238"/>
<path d="M40.0561 147.223L39.2067 146.718L40.2667 145.23L38.6802 144.612L39.0312 143.692L40.5475 144.5L40.386 142.646H41.4812L41.3057 144.5L42.822 143.699L43.173 144.612L41.5865 145.23L42.6605 146.704L41.79 147.216L40.9266 145.538L40.0561 147.223Z" fill="#263238"/>
<path d="M45.4052 147.223L44.5558 146.718L45.6299 145.223L44.0293 144.612L44.3803 143.692L45.8966 144.5L45.7352 142.646H46.8233L46.6478 144.5L48.1851 143.692L48.5221 144.612L46.9356 145.23L48.0096 146.704L47.1321 147.216L46.2757 145.538L45.4052 147.223Z" fill="#263238"/>
<path d="M50.7473 147.223L49.9049 146.711L50.9649 145.223L49.3784 144.612L49.7294 143.692L51.2457 144.507L51.0843 142.653H52.1724L51.9969 144.507L53.5343 143.699L53.8642 144.619L52.2847 145.237L53.3517 146.718L52.4742 147.23L51.6178 145.553L50.7473 147.223Z" fill="#263238"/>
<path d="M56.0967 147.223L55.2543 146.711L56.3143 145.223L54.7559 144.612L55.1069 143.692L56.6232 144.5L56.4617 142.646H57.5498L57.3743 144.5L58.9117 143.692L59.2416 144.612L57.6551 145.23L58.7362 146.704L57.8587 147.216L57.0023 145.538L56.0967 147.223Z" fill="#263238"/>
<path d="M61.446 147.223L60.5966 146.718L61.6637 145.23L60.0771 144.612L60.4281 143.692L61.9445 144.5L61.776 142.653H62.8641L62.6886 144.507L64.2189 143.699L64.584 144.612L62.9975 145.23L64.0715 146.704L63.201 147.216L62.3446 145.539L61.446 147.223Z" fill="#263238"/>
<path d="M66.7952 147.223L65.9458 146.718L67.0128 145.23L65.4263 144.612L65.7703 143.692L67.2936 144.5L67.1321 142.646H68.2202L68.0447 144.5L69.5751 143.692L69.912 144.612L68.3255 145.23L69.3996 146.704L68.5291 147.216L67.6657 145.538L66.7952 147.223Z" fill="#263238"/>
<path d="M72.1443 147.223L71.2949 146.711L72.3549 145.223L70.7754 144.619L71.1194 143.699L72.6427 144.507L72.4813 142.653H73.5694L73.3939 144.507L74.9242 143.699L75.2612 144.619L73.6746 145.237L74.7487 146.711L73.8782 147.223L73.0078 145.546L72.1443 147.223Z" fill="#263238"/>
<path d="M119.909 32.8186L119.059 32.2921L120.119 30.7968L118.533 30.1861L118.884 29.2735L120.4 30.0808L120.239 28.2205H121.334L121.158 30.0808L122.689 29.2735L123.026 30.1861L121.439 30.8038L122.513 32.2921L121.643 32.7975L120.779 31.1197L119.909 32.8186Z" fill="#263238"/>
<path d="M125.251 32.8186L124.408 32.3131L125.468 30.8179L123.882 30.1861L124.233 29.2735L125.749 30.0808L125.588 28.2205H126.676L126.5 30.0808L128.038 29.2735L128.375 30.1861L126.788 30.8038L127.862 32.2921L126.985 32.7975L126.128 31.1197L125.251 32.8186Z" fill="#263238"/>
<path d="M130.572 32.8186L129.729 32.3131L130.789 30.8179L129.231 30.1861L129.582 29.2735L131.098 30.0808L130.937 28.2205H132.025L131.849 30.0808L133.38 29.3015L133.71 30.2141L132.123 30.8319L133.211 32.2921L132.334 32.7975L131.477 31.1197L130.572 32.8186Z" fill="#263238"/>
<path d="M135.949 32.8186L135.107 32.3131L136.188 30.8179L134.581 30.1861L134.932 29.2735L136.448 30.0808L136.286 28.2205H137.375L137.199 30.0808L138.729 29.2735L139.066 30.1861L137.48 30.8038L138.554 32.2921L137.683 32.7975L136.827 31.1197L135.949 32.8186Z" fill="#263238"/>
<path d="M141.299 32.8186L140.449 32.2921L141.516 30.7968L139.93 30.1861L140.281 29.2735L141.804 30.1088L141.643 28.2485H142.731L142.555 30.1088L144.086 29.3015L144.422 30.2141L142.836 30.8319L143.91 32.2921L143.04 32.7975L142.176 31.1197L141.299 32.8186Z" fill="#263238"/>
<path d="M146.648 32.8186L145.798 32.2921L146.865 30.7968L145.314 30.1861L145.658 29.2735L147.181 30.0808L147.02 28.2205H148.108L147.932 30.0808L149.463 29.2735L149.8 30.1861L148.213 30.8038L149.252 32.2921L148.382 32.7975L147.518 31.1197L146.648 32.8186Z" fill="#263238"/>
<path d="M151.997 32.8186L151.147 32.2921L152.207 30.7968L150.628 30.1861L150.972 29.2735L152.495 30.0808L152.334 28.2485H153.422L153.246 30.1088L154.777 29.3015L155.142 30.1861L153.555 30.8038L154.601 32.2921L153.731 32.7975L152.867 31.1197L151.997 32.8186Z" fill="#263238"/>
<path d="M157.346 32.8186L156.497 32.2921L157.557 30.7968L155.97 30.1861L156.321 29.2735L157.838 30.0808L157.676 28.2205H158.771L158.596 30.0808L160.126 29.2735L160.463 30.1861L158.877 30.8038L159.951 32.2921L159.08 32.7975L158.217 31.1197L157.346 32.8186Z" fill="#263238"/>
<path d="M162.696 32.8186L161.846 32.2921L162.906 30.7968L161.32 30.1861L161.671 29.2735L163.187 30.0808L163.026 28.2205H164.114L163.945 30.0808L165.476 29.2735L165.813 30.1861L164.226 30.8038L165.3 32.2921L164.423 32.7975L163.566 31.1408L162.696 32.8186Z" fill="#263238"/>
<path d="M283.489 103.004L282.647 102.492L283.707 100.997L282.12 100.393L282.471 99.4803L283.987 100.288L283.826 98.4343H284.914L284.739 100.288L286.276 99.4803L286.606 100.393L285.026 101.018L286.1 102.492L285.223 103.004L284.367 101.32L283.489 103.004Z" fill="#263238"/>
<path d="M288.838 103.005L287.995 102.492L289.055 100.997L287.469 100.386L287.82 99.4735L289.336 100.281L289.175 98.4275H290.263L290.087 100.281L291.625 99.4735L291.955 100.386L290.368 101.011L291.449 102.485L290.572 102.998L289.715 101.313L288.838 103.005Z" fill="#263238"/>
<path d="M294.187 103.004L293.338 102.492L294.405 100.997L292.818 100.393L293.169 99.4803L294.686 100.288L294.524 98.4343H295.612L295.437 100.288L296.967 99.4803L297.304 100.393L295.718 101.018L296.792 102.492L295.921 103.004L295.065 101.32L294.187 103.004Z" fill="#263238"/>
<path d="M299.537 103.004L298.687 102.492L299.754 100.997L298.168 100.393L298.512 99.4803L300.035 100.288L299.874 98.4343H300.962L300.786 100.288L302.317 99.4803L302.654 100.393L301.067 101.018L302.141 102.492L301.271 103.004L300.407 101.32L299.537 103.004Z" fill="#263238"/>
<path d="M304.886 103.004L304.036 102.492L305.096 100.997L303.517 100.393L303.861 99.4803L305.384 100.288L305.222 98.4343H306.311L306.135 100.288L307.665 99.4803L308.002 100.393L306.416 101.018L307.476 102.492L306.605 103.004L305.742 101.32L304.886 103.004Z" fill="#263238"/>
<path d="M310.235 103.005L309.385 102.492L310.445 100.997L308.88 100.386L309.224 99.4735L310.747 100.281L310.586 98.4275H311.688L311.512 100.281L313.043 99.4735L313.38 100.386L311.793 101.011L312.867 102.485L311.997 102.998L311.133 101.313L310.235 103.005Z" fill="#263238"/>
<path d="M315.584 103.004L314.735 102.492L315.795 100.997L314.208 100.393L314.559 99.4803L316.075 100.288L315.914 98.4343H317.009L316.833 100.288L318.364 99.4803L318.708 100.386L317.121 101.011L318.195 102.485L317.325 102.997L316.461 101.313L315.584 103.004Z" fill="#263238"/>
<path d="M320.927 103.004L320.112 102.492L321.172 100.997L319.586 100.393L319.937 99.4803L321.453 100.288L321.292 98.4343H322.38L322.204 100.288L323.742 99.4803L324.079 100.393L322.492 101.018L323.566 102.492L322.689 103.004L321.832 101.32L320.927 103.004Z" fill="#263238"/>
<path d="M326.275 103.004L325.433 102.492L326.493 100.997L324.906 100.393L325.257 99.4803L326.774 100.288L326.612 98.4343H327.7L327.525 100.288L329.062 99.4803L329.392 100.393L327.813 101.018L328.887 102.492L328.009 103.004L327.153 101.32L326.275 103.004Z" fill="#263238"/>
<path d="M51.2462 128.529C46.7269 128.529 42.3927 126.734 39.1964 123.539C36.0001 120.344 34.2035 116.011 34.2017 111.492C34.2017 108.122 35.2007 104.828 37.0725 102.027C38.9443 99.2252 41.6048 97.0414 44.7176 95.7517C47.8304 94.462 51.2557 94.1241 54.5605 94.781C57.8652 95.4378 60.9011 97.0598 63.2841 99.4418C65.6671 101.824 67.2903 104.859 67.9485 108.163C68.6067 111.468 68.2703 114.893 66.9818 118.007C65.6934 121.12 63.5107 123.781 60.7099 125.654C57.909 127.527 54.6156 128.528 51.2462 128.529ZM51.2462 95.1491C46.9136 95.1547 42.7601 96.8783 39.6964 99.9419C36.6328 103.005 34.9092 107.159 34.9037 111.492C34.9092 115.824 36.633 119.976 39.6969 123.039C42.7607 126.101 46.9143 127.823 51.2462 127.827C53.4204 127.872 55.5817 127.483 57.6035 126.682C59.6253 125.881 61.4669 124.685 63.0205 123.163C64.574 121.642 65.8083 119.825 66.6509 117.82C67.4935 115.816 67.9275 113.663 67.9275 111.488C67.9275 109.314 67.4935 107.161 66.6509 105.156C65.8083 103.151 64.574 101.335 63.0205 99.8131C61.4669 98.2914 59.6253 97.0951 57.6035 96.2942C55.5817 95.4933 53.4204 95.104 51.2462 95.1491Z" fill="#263238"/>
<path d="M51.2462 116.195C49.7981 116.195 48.3824 115.766 47.1784 114.961C45.9743 114.157 45.0358 113.013 44.4817 111.675C43.9275 110.337 43.7825 108.865 44.065 107.445C44.3475 106.025 45.0449 104.72 46.0688 103.696C47.0928 102.672 48.3975 101.975 49.8178 101.692C51.2381 101.41 52.7102 101.555 54.0481 102.109C55.386 102.663 56.5295 103.601 57.3341 104.806C58.1386 106.01 58.568 107.425 58.568 108.873C58.5662 110.815 57.7942 112.676 56.4215 114.049C55.0488 115.421 53.1875 116.193 51.2462 116.195ZM51.2462 102.261C49.9366 102.261 48.6564 102.649 47.5677 103.377C46.4789 104.104 45.6304 105.139 45.1296 106.349C44.6287 107.559 44.498 108.89 44.754 110.174C45.01 111.459 45.6412 112.638 46.5677 113.564C47.4942 114.489 48.6744 115.119 49.959 115.374C51.2436 115.629 52.5749 115.496 53.7844 114.994C54.9939 114.492 56.0273 113.643 56.7538 112.553C57.4804 111.464 57.8674 110.183 57.866 108.873C57.8623 107.119 57.1635 105.439 55.9226 104.199C54.6817 102.959 53.0001 102.262 51.2462 102.261Z" fill="#263238"/>
<path d="M51.2462 128.529C47.4245 128.544 43.7113 127.259 40.7162 124.886C40.6641 124.845 40.6251 124.791 40.6039 124.728C40.5827 124.666 40.5802 124.599 40.5968 124.535C41.129 122.106 42.4751 119.933 44.412 118.375C46.3489 116.816 48.7602 115.967 51.2462 115.967C53.7321 115.967 56.1434 116.816 58.0803 118.375C60.0172 119.933 61.3633 122.106 61.8955 124.535C61.9096 124.599 61.9052 124.666 61.8828 124.729C61.8605 124.791 61.8211 124.845 61.7691 124.886C58.7694 127.246 55.0632 128.529 51.2462 128.529ZM41.3269 124.472C44.1687 126.661 47.6588 127.842 51.2462 127.827C54.8292 127.829 58.3129 126.649 61.1584 124.472C60.6217 122.246 59.3518 120.266 57.5533 118.85C55.7547 117.433 53.532 116.663 51.2426 116.663C48.9533 116.663 46.7306 117.433 44.932 118.85C43.1334 120.266 41.8636 122.246 41.3269 124.472Z" fill="#263238"/>
<path d="M309.372 300.975C304.852 300.975 300.518 299.181 297.322 295.986C294.126 292.791 292.329 288.457 292.327 283.938C292.327 280.569 293.326 277.275 295.198 274.473C297.07 271.671 299.73 269.488 302.843 268.198C305.956 266.908 309.381 266.57 312.686 267.227C315.991 267.884 319.027 269.506 321.41 271.888C323.793 274.27 325.416 277.305 326.074 280.61C326.732 283.914 326.396 287.34 325.107 290.453C323.819 293.566 321.636 296.228 318.835 298.101C316.034 299.974 312.741 300.974 309.372 300.975ZM309.372 267.595C305.039 267.601 300.886 269.325 297.822 272.388C294.758 275.452 293.035 279.605 293.029 283.938C293.029 288.272 294.751 292.429 297.816 295.494C300.881 298.559 305.037 300.28 309.372 300.28C313.706 300.28 317.863 298.559 320.928 295.494C323.992 292.429 325.714 288.272 325.714 283.938C325.711 279.605 323.988 275.45 320.924 272.386C317.86 269.322 313.705 267.599 309.372 267.595Z" fill="#263238"/>
<path d="M309.372 288.642C307.924 288.642 306.508 288.212 305.304 287.408C304.1 286.603 303.161 285.46 302.607 284.122C302.053 282.784 301.908 281.312 302.19 279.891C302.473 278.471 303.17 277.166 304.194 276.142C305.218 275.118 306.523 274.421 307.943 274.138C309.364 273.856 310.836 274.001 312.174 274.555C313.512 275.109 314.655 276.048 315.46 277.252C316.264 278.456 316.694 279.872 316.694 281.32C316.692 283.261 315.92 285.122 314.547 286.495C313.174 287.868 311.313 288.64 309.372 288.642ZM309.372 274.7C308.062 274.7 306.783 275.088 305.694 275.815C304.605 276.543 303.757 277.577 303.256 278.786C302.755 279.996 302.624 281.327 302.879 282.611C303.134 283.895 303.765 285.075 304.691 286.001C305.617 286.926 306.796 287.557 308.08 287.812C309.364 288.068 310.695 287.937 311.905 287.436C313.115 286.935 314.148 286.086 314.876 284.997C315.603 283.909 315.992 282.629 315.992 281.32C315.99 279.565 315.292 277.882 314.051 276.641C312.809 275.4 311.127 274.702 309.372 274.7Z" fill="#263238"/>
<path d="M309.371 300.976C305.55 300.991 301.837 299.706 298.841 297.332C298.79 297.291 298.75 297.237 298.728 297.175C298.705 297.113 298.701 297.046 298.715 296.981C299.25 294.555 300.598 292.384 302.535 290.827C304.473 289.271 306.883 288.423 309.368 288.423C311.853 288.423 314.263 289.271 316.2 290.827C318.138 292.384 319.485 294.555 320.021 296.981C320.035 297.046 320.03 297.113 320.008 297.175C319.986 297.237 319.946 297.291 319.894 297.332C316.895 299.692 313.188 300.976 309.371 300.976ZM299.452 296.946C302.294 299.136 305.784 300.316 309.371 300.302C312.954 300.298 316.436 299.119 319.284 296.946C318.747 294.721 317.477 292.74 315.679 291.324C313.88 289.908 311.657 289.138 309.368 289.138C307.079 289.138 304.856 289.908 303.057 291.324C301.259 292.74 299.989 294.721 299.452 296.946Z" fill="#263238"/>
<path d="M319.249 87.3359H291.751C291.659 87.3341 291.571 87.2965 291.505 87.2311C291.44 87.1656 291.402 87.0774 291.4 86.9849V60.0912C291.4 59.9981 291.437 59.9089 291.503 59.843C291.569 59.7772 291.658 59.7402 291.751 59.7402H319.249C319.342 59.7402 319.431 59.7772 319.497 59.843C319.563 59.9089 319.6 59.9981 319.6 60.0912V86.9849C319.598 87.0774 319.56 87.1656 319.495 87.2311C319.429 87.2965 319.341 87.3341 319.249 87.3359ZM292.102 86.6339H318.898V60.4422H292.102V86.6339Z" fill="#263238"/>
<path d="M318.553 60.4493H313.85V53.9136C313.882 52.7967 313.69 51.6846 313.285 50.6432C312.88 49.6018 312.27 48.6522 311.492 47.8507C310.713 47.0492 309.782 46.4121 308.752 45.977C307.723 45.5419 306.617 45.3177 305.5 45.3177C304.382 45.3177 303.276 45.5419 302.247 45.977C301.218 46.4121 300.286 47.0492 299.508 47.8507C298.729 48.6522 298.119 49.6018 297.714 50.6432C297.309 51.6846 297.117 52.7967 297.149 53.9136V60.4493H292.446V53.9136C292.406 52.1739 292.713 50.4437 293.351 48.8247C293.989 47.2056 294.944 45.7304 296.16 44.4857C297.376 43.2411 298.829 42.252 300.433 41.5768C302.037 40.9016 303.759 40.5537 305.5 40.5537C307.24 40.5537 308.962 40.9016 310.566 41.5768C312.17 42.252 313.623 43.2411 314.839 44.4857C316.055 45.7304 317.01 47.2056 317.648 48.8247C318.286 50.4437 318.594 52.1739 318.553 53.9136V60.4493ZM314.552 59.7473H317.851V53.9136C317.891 52.2668 317.6 50.6288 316.997 49.0958C316.394 47.5629 315.49 46.1661 314.34 44.9875C313.189 43.8088 311.814 42.8723 310.296 42.2328C308.778 41.5934 307.147 41.264 305.5 41.264C303.852 41.264 302.222 41.5934 300.704 42.2328C299.185 42.8723 297.81 43.8088 296.66 44.9875C295.509 46.1661 294.605 47.5629 294.002 49.0958C293.399 50.6288 293.109 52.2668 293.148 53.9136V59.7473H296.447V53.9136C296.414 52.7037 296.623 51.4992 297.063 50.3715C297.502 49.2438 298.164 48.2156 299.008 47.3479C299.852 46.4801 300.861 45.7904 301.976 45.3194C303.091 44.8484 304.289 44.6057 305.5 44.6057C306.71 44.6057 307.908 44.8484 309.023 45.3194C310.138 45.7904 311.148 46.4801 311.992 47.3479C312.835 48.2156 313.497 49.2438 313.937 50.3715C314.376 51.4992 314.586 52.7037 314.552 53.9136V59.7473Z" fill="#263238"/>
<path d="M306.648 80.0702H304.352C304.259 80.0702 304.17 80.0332 304.104 79.9674C304.038 79.9015 304.001 79.8123 304.001 79.7192V73.71C303.28 73.3695 302.697 72.7936 302.347 72.0771C301.996 71.3606 301.901 70.5463 302.075 69.7681C302.25 68.99 302.684 68.2945 303.307 67.7961C303.929 67.2977 304.703 67.0261 305.5 67.0261C306.298 67.0261 307.071 67.2977 307.694 67.7961C308.316 68.2945 308.751 68.99 308.925 69.7681C309.1 70.5463 309.004 71.3606 308.654 72.0771C308.304 72.7936 307.72 73.3695 306.999 73.71V79.7402C306.994 79.8296 306.954 79.9136 306.889 79.9749C306.824 80.0363 306.738 80.0703 306.648 80.0702ZM304.703 79.3682H306.297V73.4573C306.297 73.3862 306.319 73.3169 306.359 73.2581C306.399 73.1994 306.456 73.1539 306.522 73.1274C307.131 72.8893 307.639 72.4457 307.956 71.8732C308.273 71.3007 308.381 70.6353 308.26 69.9921C308.139 69.3488 307.797 68.7681 307.293 68.3502C306.789 67.9324 306.155 67.7037 305.5 67.7037C304.846 67.7037 304.212 67.9324 303.708 68.3502C303.204 68.7681 302.862 69.3488 302.741 69.9921C302.62 70.6353 302.727 71.3007 303.044 71.8732C303.362 72.4457 303.869 72.8893 304.479 73.1274C304.545 73.1539 304.601 73.1994 304.641 73.2581C304.681 73.3169 304.703 73.3862 304.703 73.4573V79.3682Z" fill="#263238"/>
<path d="M64.3522 309.154H36.8549C36.7618 309.154 36.6725 309.117 36.6067 309.051C36.5409 308.985 36.5039 308.896 36.5039 308.803V281.909C36.5057 281.817 36.5433 281.729 36.6087 281.663C36.6741 281.598 36.7624 281.56 36.8549 281.558H64.3522C64.4448 281.56 64.533 281.598 64.5985 281.663C64.6639 281.729 64.7014 281.817 64.7032 281.909V308.803C64.7032 308.896 64.6663 308.985 64.6004 309.051C64.5346 309.117 64.4453 309.154 64.3522 309.154ZM37.2059 308.452H64.0012V282.26H37.2059V308.452Z" fill="#263238"/>
<path d="M63.6573 282.274H58.9679V275.732C58.9049 273.559 57.9976 271.496 56.4384 269.982C54.8793 268.467 52.7913 267.62 50.6177 267.62C48.444 267.62 46.356 268.467 44.7969 269.982C43.2378 271.496 42.3304 273.559 42.2674 275.732V282.274H37.564V275.732C37.643 272.322 39.0531 269.079 41.4925 266.695C43.9319 264.312 47.2071 262.977 50.6177 262.977C54.0282 262.977 57.3034 264.312 59.7428 266.695C62.1823 269.079 63.5923 272.322 63.6713 275.732L63.6573 282.274ZM59.6559 281.572H62.9553V275.732C62.8784 272.507 61.5433 269.44 59.2353 267.186C56.9273 264.933 53.8294 263.671 50.6036 263.671C47.3778 263.671 44.2799 264.933 41.9719 267.186C39.6639 269.44 38.3288 272.507 38.2519 275.732V281.572H41.5513V275.732C41.617 273.375 42.5995 271.136 44.29 269.492C45.9804 267.848 48.2455 266.928 50.6036 266.928C52.9617 266.928 55.2268 267.848 56.9173 269.492C58.6077 271.136 59.5903 273.375 59.6559 275.732V281.572Z" fill="#263238"/>
<path d="M51.7511 301.86H49.4556C49.3625 301.86 49.2732 301.823 49.2074 301.757C49.1416 301.691 49.1046 301.602 49.1046 301.509V295.542C48.5036 295.259 47.9952 294.811 47.6386 294.251C47.2819 293.69 47.0917 293.04 47.0898 292.376C47.0898 291.445 47.4596 290.552 48.1179 289.894C48.7761 289.236 49.6689 288.866 50.5998 288.866C51.5308 288.866 52.4235 289.236 53.0818 289.894C53.74 290.552 54.1098 291.445 54.1098 292.376C54.1087 293.04 53.9194 293.689 53.5641 294.249C53.2087 294.81 52.7018 295.258 52.1021 295.542V301.572C52.0872 301.654 52.0437 301.728 51.9794 301.78C51.9151 301.833 51.8342 301.861 51.7511 301.86ZM49.8417 301.158H51.4352V295.254C51.4357 295.183 51.4573 295.114 51.4973 295.055C51.5373 294.996 51.5939 294.951 51.6599 294.924C52.2696 294.686 52.777 294.243 53.0943 293.67C53.4117 293.098 53.5191 292.432 53.3979 291.789C53.2768 291.146 52.9347 290.565 52.4309 290.147C51.927 289.729 51.293 289.501 50.6385 289.501C49.9839 289.501 49.3499 289.729 48.846 290.147C48.3422 290.565 48.0001 291.146 47.879 291.789C47.7578 292.432 47.8652 293.098 48.1826 293.67C48.4999 294.243 49.0073 294.686 49.617 294.924C49.683 294.951 49.7396 294.996 49.7796 295.055C49.8196 295.114 49.8412 295.183 49.8417 295.254V301.158Z" fill="#263238"/>
<path d="M41.0673 175.745L-20.8408 213.898" stroke="#263238" stroke-width="1.404" stroke-linecap="round" stroke-linejoin="round"/>
<path d="M49.2414 178.328L-0.362305 208.887" stroke="#263238" stroke-width="1.404" stroke-linecap="round" stroke-linejoin="round"/>
<path d="M70.9023 164.97L55.9165 174.199" stroke="#263238" stroke-width="1.404" stroke-linecap="round" stroke-linejoin="round"/>
<path d="M182.293 64.1711L178.308 66.6229" stroke="#263238" stroke-width="1.404" stroke-linecap="round" stroke-linejoin="round"/>
<path d="M249.561 22.7085L187.653 60.8616" stroke="#263238" stroke-width="1.404" stroke-linecap="round" stroke-linejoin="round"/>
<path d="M262.31 85.9951V76.9253H256.315L89.9971 243.236V258.308L262.31 85.9951Z" fill="white"/>
<path d="M89.9971 124.135V183.222L196.301 76.9253H137.207L89.9971 124.135Z" fill="white"/>
<path d="M236.659 305.019L262.31 279.368V220.281L177.571 305.019H236.659Z" fill="white"/>
<path d="M267.519 60.5405H84.788C80.8296 60.5405 77.6206 63.7495 77.6206 67.7079V314.236C77.6206 318.195 80.8296 321.404 84.788 321.404H267.519C271.477 321.404 274.686 318.195 274.686 314.236V67.7079C274.686 63.7495 271.477 60.5405 267.519 60.5405Z" fill="#263238"/>
<path d="M262.31 76.9253H89.9971V305.026H262.31V76.9253Z" fill="#FFCF23"/>
<path opacity="0.2" d="M77.6206 100.533V173.513L190.593 60.5405H117.614L77.6206 100.533Z" fill="white"/>
<path opacity="0.2" d="M274.686 69.1962V66.9077C274.686 65.219 274.015 63.5995 272.821 62.4054C271.627 61.2113 270.008 60.5405 268.319 60.5405H264.725L77.6206 247.645V266.262L274.686 69.1962Z" fill="white"/>
<path opacity="0.2" d="M274.686 308.045V235.065L188.34 321.404H261.327L274.686 308.045Z" fill="white"/>
<path d="M216.553 166.634H135.746V180.337H216.553V166.634Z" fill="white"/>
<path d="M216.56 180.688H135.746C135.653 180.688 135.564 180.651 135.498 180.585C135.432 180.519 135.395 180.43 135.395 180.337V166.634C135.397 166.541 135.434 166.453 135.5 166.388C135.565 166.322 135.653 166.285 135.746 166.283H216.56C216.653 166.285 216.741 166.322 216.806 166.388C216.872 166.453 216.909 166.541 216.911 166.634V180.337C216.911 180.43 216.874 180.519 216.808 180.585C216.743 180.651 216.653 180.688 216.56 180.688ZM136.097 179.986H216.216V166.985H136.097V179.986Z" fill="#263238"/>
<path d="M216.553 192.152H135.746V205.855H216.553V192.152Z" fill="white"/>
<path d="M216.56 206.213H135.746C135.653 206.211 135.565 206.173 135.5 206.108C135.434 206.043 135.397 205.954 135.395 205.862V192.152C135.397 192.059 135.434 191.971 135.5 191.906C135.565 191.84 135.653 191.803 135.746 191.801H216.56C216.653 191.803 216.741 191.84 216.806 191.906C216.872 191.971 216.909 192.059 216.911 192.152V205.862C216.909 205.954 216.872 206.043 216.806 206.108C216.741 206.173 216.653 206.211 216.56 206.213ZM136.097 205.511H216.216V192.503H136.097V205.511Z" fill="#263238"/>
<path d="M194.742 217.838H157.557C155.681 217.838 154.16 219.359 154.16 221.236V228.143C154.16 230.02 155.681 231.541 157.557 231.541H194.742C196.619 231.541 198.14 230.02 198.14 228.143V221.236C198.14 219.359 196.619 217.838 194.742 217.838Z" fill="#263238"/>
<path d="M194.742 231.892H157.536C156.547 231.885 155.601 231.487 154.904 230.787C154.206 230.086 153.812 229.139 153.809 228.15V221.243C153.81 220.248 154.207 219.294 154.911 218.591C155.615 217.889 156.569 217.494 157.564 217.494H194.77C195.765 217.494 196.718 217.889 197.421 218.592C198.124 219.295 198.519 220.248 198.519 221.243V228.15C198.517 228.644 198.418 229.133 198.227 229.588C198.036 230.043 197.757 230.457 197.407 230.804C197.056 231.152 196.64 231.427 196.183 231.613C195.725 231.8 195.236 231.895 194.742 231.892ZM157.536 218.189C156.728 218.189 155.952 218.51 155.379 219.081C154.807 219.652 154.484 220.427 154.483 221.236V228.15C154.484 228.959 154.807 229.734 155.379 230.305C155.952 230.876 156.728 231.197 157.536 231.197H194.742C195.55 231.197 196.325 230.876 196.897 230.305C197.468 229.733 197.789 228.958 197.789 228.15V221.243C197.789 220.435 197.468 219.66 196.897 219.088C196.325 218.517 195.55 218.196 194.742 218.196L157.536 218.189Z" fill="#263238"/>
<path d="M190.032 123.433C190.028 126.181 189.209 128.867 187.679 131.15C186.149 133.433 183.976 135.211 181.435 136.26C178.895 137.308 176.1 137.58 173.405 137.041C170.71 136.502 168.236 135.176 166.294 133.23C164.353 131.285 163.031 128.807 162.498 126.111C161.964 123.415 162.241 120.621 163.295 118.083C164.349 115.544 166.131 113.375 168.418 111.85C170.704 110.324 173.391 109.511 176.14 109.512C177.968 109.506 179.78 109.861 181.47 110.559C183.16 111.257 184.696 112.282 185.988 113.576C187.279 114.871 188.302 116.408 188.996 118.1C189.69 119.792 190.042 121.604 190.032 123.433Z" fill="white"/>
<path d="M176.139 137.676C172.769 137.678 169.506 136.486 166.932 134.31C164.357 132.134 162.638 129.116 162.078 125.792C161.519 122.468 162.155 119.053 163.875 116.154C165.596 113.255 168.288 111.06 171.473 109.958C174.659 108.856 178.132 108.919 181.275 110.136C184.419 111.353 187.029 113.645 188.643 116.604C190.256 119.564 190.769 122.999 190.089 126.301C189.409 129.602 187.58 132.556 184.928 134.637C182.422 136.605 179.327 137.676 176.139 137.676ZM176.139 109.884C173.322 109.883 170.574 110.761 168.279 112.396C165.983 114.03 164.255 116.34 163.335 119.004C162.415 121.667 162.348 124.551 163.145 127.254C163.941 129.957 165.561 132.344 167.779 134.082C170.159 135.972 173.114 136.993 176.153 136.974C179.692 136.894 183.059 135.431 185.534 132.9C188.008 130.369 189.394 126.969 189.394 123.429C189.394 119.889 188.008 116.49 185.534 113.959C183.059 111.427 179.692 109.965 176.153 109.884H176.139Z" fill="#263238"/>
<path d="M180.239 125.366C182.506 123.098 182.506 119.423 180.239 117.155C177.972 114.888 174.296 114.888 172.028 117.155C169.761 119.423 169.761 123.098 172.028 125.366C174.296 127.633 177.972 127.633 180.239 125.366Z" fill="#263238"/>
<path d="M176.132 127.413C174.914 127.413 173.724 127.052 172.712 126.376C171.699 125.699 170.91 124.738 170.444 123.613C169.978 122.488 169.856 121.25 170.094 120.056C170.331 118.861 170.918 117.764 171.779 116.903C172.64 116.042 173.737 115.456 174.931 115.218C176.125 114.981 177.363 115.103 178.488 115.569C179.613 116.035 180.575 116.824 181.251 117.836C181.928 118.849 182.289 120.039 182.289 121.257C182.289 122.065 182.129 122.866 181.82 123.613C181.511 124.36 181.057 125.038 180.485 125.61C179.914 126.182 179.235 126.635 178.488 126.945C177.741 127.254 176.941 127.413 176.132 127.413ZM176.132 115.809C175.053 115.809 173.998 116.129 173.101 116.729C172.204 117.329 171.505 118.181 171.092 119.178C170.679 120.175 170.572 121.272 170.783 122.33C170.994 123.389 171.514 124.361 172.278 125.123C173.041 125.886 174.014 126.405 175.072 126.614C176.131 126.824 177.228 126.715 178.224 126.301C179.221 125.887 180.072 125.187 180.671 124.289C181.269 123.391 181.588 122.336 181.587 121.257C181.579 119.815 181.001 118.435 179.979 117.418C178.957 116.401 177.574 115.83 176.132 115.83V115.809Z" fill="#263238"/>
<path d="M184.718 134.356C182.273 136.284 179.25 137.333 176.136 137.333C173.022 137.333 169.999 136.284 167.554 134.356C167.986 132.401 169.072 130.653 170.632 129.4C172.193 128.147 174.134 127.463 176.136 127.463C178.137 127.463 180.079 128.147 181.639 129.4C183.2 130.653 184.286 132.401 184.718 134.356Z" fill="#263238"/>
<path d="M176.139 137.676C172.946 137.677 169.846 136.604 167.336 134.63C167.285 134.59 167.246 134.537 167.223 134.476C167.201 134.415 167.196 134.349 167.21 134.286C167.648 132.245 168.773 130.416 170.397 129.104C172.02 127.792 174.045 127.077 176.132 127.077C178.22 127.077 180.244 127.792 181.868 129.104C183.491 130.416 184.616 132.245 185.055 134.286C185.07 134.349 185.066 134.414 185.045 134.475C185.024 134.536 184.986 134.59 184.935 134.63C182.427 136.601 179.329 137.674 176.139 137.676ZM167.94 134.216C170.29 136.021 173.175 136.991 176.139 136.974C179.095 136.973 181.97 136.004 184.324 134.216C183.884 132.375 182.835 130.736 181.349 129.564C179.863 128.391 178.025 127.754 176.132 127.754C174.239 127.754 172.401 128.391 170.915 129.564C169.429 130.736 168.381 132.375 167.94 134.216Z" fill="#263238"/>
<path d="M167.778 153.345V147.287H168.887V152.58H170.355V153.345H167.778Z" fill="#263238"/>
<path d="M172.531 153.429C172.172 153.445 171.815 153.362 171.499 153.191C171.244 153.025 171.053 152.778 170.958 152.489C170.839 152.146 170.782 151.784 170.79 151.422V149.154C170.782 148.796 170.839 148.439 170.958 148.101C171.049 147.81 171.241 147.561 171.499 147.399C171.821 147.247 172.174 147.167 172.531 147.167C172.888 147.167 173.24 147.247 173.563 147.399C173.821 147.563 174.015 147.811 174.11 148.101C174.23 148.439 174.287 148.796 174.279 149.154V151.429C174.287 151.787 174.23 152.144 174.11 152.482C174.009 152.769 173.817 153.015 173.563 153.184C173.249 153.362 172.891 153.447 172.531 153.429ZM172.531 152.615C172.676 152.625 172.821 152.583 172.938 152.496C173.025 152.403 173.086 152.289 173.113 152.166C173.142 152.015 173.156 151.862 173.156 151.709V148.901C173.157 148.748 173.143 148.595 173.113 148.445C173.087 148.325 173.026 148.215 172.938 148.129C172.821 148.042 172.676 148 172.531 148.01C172.387 148.001 172.246 148.043 172.131 148.129C172.038 148.213 171.974 148.323 171.948 148.445C171.919 148.595 171.904 148.748 171.906 148.901V151.709C171.905 151.862 171.919 152.015 171.948 152.166C171.969 152.292 172.03 152.408 172.124 152.496C172.241 152.583 172.385 152.625 172.531 152.615Z" fill="#263238"/>
<path d="M176.617 153.429C176.28 153.447 175.946 153.358 175.662 153.177C175.427 152.999 175.251 152.754 175.157 152.475C175.049 152.115 174.997 151.741 175.002 151.366V149.316C174.992 148.935 175.045 148.556 175.157 148.193C175.245 147.905 175.431 147.656 175.683 147.491C175.999 147.305 176.363 147.217 176.729 147.238C177.069 147.222 177.408 147.295 177.712 147.448C177.953 147.581 178.14 147.795 178.238 148.052C178.356 148.356 178.411 148.681 178.4 149.007V149.316H177.347V148.972C177.349 148.805 177.335 148.638 177.305 148.473C177.286 148.353 177.23 148.243 177.143 148.157C177.021 148.075 176.877 148.032 176.729 148.032C176.582 148.032 176.437 148.075 176.315 148.157C176.224 148.265 176.168 148.397 176.153 148.537C176.13 148.704 176.119 148.873 176.118 149.042V151.583C176.117 151.765 176.136 151.946 176.174 152.124C176.201 152.259 176.267 152.384 176.364 152.482C176.48 152.572 176.625 152.617 176.771 152.608C176.922 152.617 177.071 152.567 177.185 152.468C177.285 152.365 177.353 152.236 177.382 152.096C177.421 151.909 177.44 151.718 177.438 151.527V150.958H176.785V150.256H178.435V153.331H177.733L177.656 152.734C177.576 152.926 177.451 153.094 177.291 153.226C177.096 153.369 176.858 153.441 176.617 153.429Z" fill="#263238"/>
<path d="M179.305 153.345V147.287H180.414V153.345H179.305Z" fill="#263238"/>
<path d="M181.334 153.345V147.287H182.106L183.58 150.74V147.287H184.493V153.345H183.791L182.303 149.723V153.345H181.334Z" fill="#263238"/>
<path d="M163.11 176.981C162.756 177.003 162.403 176.91 162.106 176.715C161.868 176.545 161.696 176.296 161.622 176.013C161.532 175.65 161.489 175.277 161.496 174.903V170.888H162.303V174.938C162.303 175.174 162.322 175.408 162.359 175.64C162.384 175.827 162.462 176.002 162.584 176.146C162.654 176.212 162.737 176.263 162.827 176.295C162.918 176.328 163.014 176.342 163.11 176.335C163.208 176.343 163.305 176.33 163.397 176.297C163.489 176.264 163.573 176.213 163.644 176.146C163.765 176.002 163.843 175.827 163.868 175.64C163.906 175.408 163.924 175.174 163.925 174.938V170.888H164.725V174.903C164.731 175.277 164.689 175.65 164.599 176.013C164.522 176.293 164.354 176.54 164.121 176.715C163.822 176.911 163.467 177.004 163.11 176.981Z" fill="#CCCCCC"/>
<path d="M167.076 176.981C166.771 176.992 166.468 176.914 166.206 176.757C165.972 176.605 165.789 176.388 165.679 176.132C165.553 175.841 165.482 175.529 165.469 175.212L166.22 175.009C166.231 175.22 166.264 175.429 166.318 175.634C166.361 175.817 166.451 175.986 166.578 176.125C166.716 176.245 166.893 176.312 167.076 176.312C167.26 176.312 167.437 176.245 167.575 176.125C167.695 175.977 167.755 175.789 167.743 175.598C167.764 175.349 167.697 175.101 167.554 174.896C167.416 174.711 167.258 174.541 167.083 174.391L166.065 173.492C165.882 173.334 165.732 173.141 165.623 172.924C165.524 172.681 165.477 172.421 165.483 172.159C165.472 171.969 165.501 171.779 165.566 171.6C165.631 171.422 165.732 171.258 165.862 171.12C166.15 170.867 166.525 170.736 166.908 170.755C167.122 170.752 167.336 170.785 167.54 170.853C167.714 170.907 167.872 171.006 167.996 171.141C168.124 171.281 168.222 171.446 168.284 171.625C168.364 171.851 168.414 172.088 168.431 172.327L167.729 172.524C167.715 172.336 167.685 172.151 167.638 171.969C167.6 171.815 167.517 171.676 167.399 171.569C167.26 171.464 167.09 171.407 166.915 171.407C166.74 171.407 166.57 171.464 166.43 171.569C166.368 171.635 166.32 171.714 166.29 171.8C166.26 171.885 166.248 171.977 166.255 172.067C166.248 172.225 166.279 172.381 166.346 172.524C166.425 172.662 166.527 172.786 166.648 172.889L167.673 173.787C167.911 173.989 168.117 174.225 168.284 174.489C168.461 174.786 168.551 175.127 168.544 175.472C168.551 175.742 168.485 176.009 168.354 176.244C168.237 176.458 168.059 176.632 167.842 176.743C167.612 176.889 167.348 176.972 167.076 176.981Z" fill="#CCCCCC"/>
<path d="M169.183 176.904V170.846H171.527V171.471H170.025V173.478H171.246V174.096H170.025V176.322H171.548V176.904H169.183Z" fill="#CCCCCC"/>
<path d="M172.201 176.904V170.846H173.395C173.737 170.833 174.078 170.888 174.398 171.007C174.652 171.099 174.862 171.282 174.988 171.52C175.126 171.811 175.191 172.131 175.178 172.453C175.179 172.669 175.153 172.883 175.1 173.092C175.058 173.27 174.977 173.435 174.862 173.577C174.75 173.715 174.598 173.815 174.427 173.864L175.29 176.904H174.476L173.682 174.096H173.023V176.904H172.201ZM173.044 173.457H173.395C173.593 173.462 173.79 173.431 173.977 173.366C174.122 173.308 174.24 173.198 174.307 173.057C174.386 172.866 174.422 172.66 174.412 172.453C174.438 172.183 174.369 171.913 174.216 171.688C174.112 171.594 173.99 171.524 173.856 171.483C173.723 171.442 173.582 171.43 173.444 171.45H173.072L173.044 173.457Z" fill="#CCCCCC"/>
<path d="M176.083 176.904V170.846H176.659L178.379 174.868V170.846H179.081V176.904H178.547L176.799 172.769V176.904H176.083Z" fill="#CCCCCC"/>
<path d="M179.712 176.904L180.997 170.846H181.818L183.117 176.904H182.317L182.036 175.381H180.8L180.513 176.904H179.712ZM180.906 174.798H181.917L181.411 172.067L180.906 174.798Z" fill="#CCCCCC"/>
<path d="M183.7 176.904L183.813 170.846H184.627L185.701 175.76L186.775 170.846H187.596L187.709 176.904H187.007L186.943 172.503L185.954 176.904H185.476L184.458 172.503L184.388 176.904H183.7Z" fill="#CCCCCC"/>
<path d="M188.656 176.904V170.846H191.001V171.471H189.499V173.478H190.72V174.096H189.499V176.322H191.022V176.904H188.656Z" fill="#CCCCCC"/>
<path d="M160.962 201.987V195.929H162.464C162.767 195.912 163.068 195.98 163.335 196.125C163.554 196.258 163.722 196.461 163.812 196.701C163.918 196.991 163.968 197.298 163.959 197.606C163.966 197.892 163.909 198.175 163.791 198.435C163.686 198.661 163.515 198.849 163.3 198.975C163.045 199.109 162.759 199.174 162.471 199.165H161.804V201.973L160.962 201.987ZM161.804 198.561H162.197C162.393 198.569 162.588 198.54 162.773 198.477C162.841 198.453 162.903 198.415 162.955 198.365C163.007 198.316 163.048 198.256 163.075 198.189C163.139 198.004 163.167 197.809 163.159 197.613C163.166 197.389 163.145 197.165 163.096 196.946C163.08 196.875 163.048 196.809 163.001 196.753C162.955 196.697 162.896 196.653 162.829 196.624C162.629 196.554 162.417 196.523 162.204 196.532H161.804V198.561Z" fill="#CCCCCC"/>
<path d="M163.938 201.987L165.23 195.928H166.044L167.336 201.987H166.536L166.262 200.463H165.027L164.732 201.987H163.938ZM165.139 199.881H166.15L165.637 197.15L165.139 199.881Z" fill="#CCCCCC"/>
<path d="M169.379 202.057C169.073 202.067 168.771 201.989 168.509 201.832C168.276 201.682 168.093 201.467 167.982 201.214C167.857 200.921 167.785 200.607 167.771 200.288L168.523 200.091C168.537 200.299 168.57 200.506 168.621 200.709C168.667 200.891 168.756 201.059 168.881 201.2C168.946 201.265 169.024 201.315 169.11 201.348C169.196 201.381 169.287 201.395 169.379 201.39C169.47 201.396 169.562 201.383 169.648 201.352C169.734 201.321 169.812 201.271 169.877 201.207C169.999 201.059 170.059 200.871 170.046 200.681C170.057 200.444 169.991 200.209 169.856 200.014C169.715 199.831 169.558 199.662 169.386 199.508L168.368 198.617C168.183 198.457 168.032 198.261 167.926 198.041C167.822 197.795 167.772 197.529 167.779 197.262C167.767 197.072 167.795 196.883 167.861 196.705C167.928 196.527 168.031 196.365 168.165 196.23C168.301 196.104 168.461 196.006 168.636 195.942C168.811 195.878 168.997 195.849 169.183 195.858C169.397 195.855 169.611 195.888 169.814 195.956C169.988 196.013 170.145 196.112 170.271 196.244C170.399 196.386 170.497 196.554 170.558 196.735C170.642 196.961 170.692 197.197 170.706 197.437L170.004 197.634C169.99 197.449 169.959 197.266 169.913 197.086C169.875 196.93 169.792 196.789 169.674 196.679C169.534 196.574 169.364 196.518 169.19 196.518C169.015 196.518 168.845 196.574 168.705 196.679C168.643 196.746 168.595 196.824 168.565 196.91C168.534 196.996 168.523 197.087 168.53 197.178C168.523 197.335 168.554 197.491 168.621 197.634C168.698 197.774 168.8 197.897 168.923 197.999L169.948 198.898C170.183 199.102 170.388 199.338 170.558 199.6C170.737 199.896 170.828 200.237 170.818 200.582C170.826 200.854 170.76 201.123 170.629 201.362C170.51 201.572 170.331 201.743 170.116 201.853C169.892 201.982 169.638 202.052 169.379 202.057Z" fill="#CCCCCC"/>
<path d="M172.917 202.057C172.611 202.067 172.309 201.989 172.047 201.832C171.814 201.683 171.631 201.468 171.52 201.214C171.395 200.921 171.323 200.607 171.31 200.288L172.061 200.091C172.075 200.3 172.108 200.506 172.159 200.709C172.205 200.891 172.294 201.06 172.419 201.2C172.484 201.265 172.562 201.316 172.648 201.348C172.734 201.381 172.825 201.395 172.917 201.39C173.008 201.397 173.1 201.384 173.186 201.352C173.272 201.321 173.35 201.271 173.416 201.207C173.537 201.06 173.597 200.871 173.584 200.681C173.594 200.445 173.53 200.212 173.402 200.014C173.257 199.835 173.099 199.666 172.931 199.509L171.913 198.617C171.724 198.461 171.573 198.264 171.471 198.041C171.366 197.8 171.315 197.539 171.324 197.276C171.312 197.087 171.34 196.897 171.406 196.719C171.473 196.541 171.576 196.379 171.71 196.244C171.849 196.115 172.013 196.016 172.191 195.952C172.37 195.888 172.559 195.861 172.749 195.872C172.963 195.869 173.177 195.903 173.38 195.97C173.555 196.025 173.712 196.125 173.837 196.258C173.965 196.402 174.065 196.569 174.132 196.75C174.209 196.976 174.256 197.212 174.272 197.452L173.57 197.648C173.56 197.463 173.529 197.279 173.479 197.101C173.443 196.945 173.363 196.803 173.247 196.694C173.111 196.583 172.938 196.528 172.763 196.539C172.583 196.53 172.408 196.591 172.271 196.708C172.209 196.774 172.161 196.852 172.131 196.938C172.101 197.024 172.089 197.115 172.096 197.206C172.089 197.363 172.12 197.52 172.187 197.662C172.267 197.802 172.371 197.926 172.496 198.027L173.521 198.926C173.752 199.132 173.955 199.368 174.125 199.628C174.304 199.924 174.394 200.265 174.384 200.611C174.39 200.882 174.328 201.15 174.202 201.39C174.079 201.597 173.902 201.767 173.689 201.881C173.451 202.006 173.185 202.066 172.917 202.057Z" fill="#CCCCCC"/>
<path d="M175.816 201.987L174.798 195.928H175.5L176.153 200.281L176.968 195.95H177.606L178.428 200.309L179.067 195.928H179.768L178.793 201.987H178.182L177.333 197.501L176.483 201.987H175.816Z" fill="#CCCCCC"/>
<path d="M181.973 202.057C181.631 202.075 181.292 201.992 180.997 201.818C180.746 201.652 180.56 201.404 180.471 201.116C180.361 200.781 180.308 200.43 180.316 200.077V197.775C180.306 197.426 180.361 197.078 180.478 196.75C180.572 196.478 180.755 196.246 180.997 196.09C181.294 195.922 181.632 195.842 181.973 195.858C182.313 195.844 182.651 195.924 182.949 196.09C183.189 196.247 183.371 196.479 183.468 196.75C183.582 197.079 183.637 197.426 183.63 197.775V200.07C183.635 200.421 183.581 200.77 183.468 201.102C183.378 201.388 183.195 201.635 182.949 201.804C182.656 201.984 182.316 202.072 181.973 202.057ZM181.973 201.39C182.155 201.405 182.336 201.355 182.485 201.25C182.603 201.15 182.684 201.014 182.717 200.864C182.756 200.669 182.775 200.472 182.773 200.274V197.62C182.775 197.425 182.756 197.229 182.717 197.038C182.685 196.891 182.603 196.759 182.485 196.666C182.329 196.578 182.152 196.532 181.973 196.532C181.794 196.532 181.617 196.578 181.46 196.666C181.34 196.757 181.258 196.889 181.229 197.038C181.183 197.228 181.162 197.424 181.166 197.62V200.274C181.163 200.472 181.184 200.67 181.229 200.864C181.258 201.015 181.34 201.152 181.46 201.25C181.61 201.355 181.791 201.405 181.973 201.39Z" fill="#CCCCCC"/>
<path d="M184.458 201.987V195.928H185.679C186.021 195.919 186.362 195.974 186.683 196.09C186.933 196.188 187.141 196.369 187.273 196.602C187.411 196.893 187.476 197.214 187.463 197.536C187.464 197.751 187.438 197.966 187.385 198.175C187.345 198.355 187.263 198.523 187.147 198.666C187.029 198.798 186.879 198.898 186.711 198.954L187.575 201.987H186.732L185.939 199.143H185.328V201.987H184.458ZM185.307 198.54H185.623C185.824 198.548 186.024 198.517 186.213 198.448C186.286 198.421 186.352 198.38 186.409 198.327C186.465 198.274 186.511 198.21 186.543 198.14C186.62 197.948 186.653 197.742 186.641 197.536C186.664 197.267 186.598 196.998 186.452 196.771C186.348 196.678 186.225 196.608 186.092 196.567C185.958 196.526 185.818 196.514 185.679 196.532H185.328L185.307 198.54Z" fill="#CCCCCC"/>
<path d="M188.34 201.987V195.928H189.66C190.026 195.913 190.392 195.982 190.727 196.132C190.981 196.265 191.18 196.484 191.288 196.75C191.41 197.077 191.467 197.425 191.457 197.775V200.007C191.467 200.375 191.41 200.741 191.288 201.088C191.194 201.379 191 201.628 190.741 201.79C190.431 201.956 190.081 202.034 189.73 202.015L188.34 201.987ZM189.189 201.383H189.667C189.901 201.404 190.136 201.339 190.326 201.2C190.465 201.062 190.547 200.877 190.558 200.681C190.589 200.404 190.603 200.125 190.6 199.846V197.88C190.607 197.624 190.588 197.367 190.544 197.115C190.531 197.03 190.501 196.949 190.455 196.876C190.409 196.804 190.349 196.741 190.277 196.694C190.085 196.587 189.865 196.538 189.646 196.553H189.189V201.383Z" fill="#CCCCCC"/>
<path d="M167.182 227.448C166.864 227.459 166.55 227.387 166.269 227.238C166.022 227.094 165.828 226.875 165.715 226.613C165.578 226.293 165.507 225.95 165.504 225.602L166.452 225.413C166.461 225.623 166.491 225.833 166.543 226.037C166.574 226.193 166.65 226.337 166.76 226.452C166.811 226.502 166.871 226.541 166.938 226.567C167.004 226.592 167.075 226.603 167.147 226.599C167.218 226.605 167.29 226.593 167.356 226.565C167.422 226.537 167.48 226.493 167.526 226.438C167.604 226.317 167.643 226.174 167.638 226.03C167.647 225.799 167.583 225.571 167.455 225.377C167.317 225.19 167.157 225.021 166.978 224.872L166.213 224.17C166.01 223.993 165.837 223.785 165.7 223.552C165.567 223.292 165.502 223.002 165.511 222.71C165.498 222.506 165.529 222.301 165.602 222.11C165.675 221.919 165.787 221.745 165.932 221.601C166.249 221.329 166.659 221.19 167.076 221.215C167.317 221.208 167.556 221.251 167.778 221.341C167.959 221.423 168.115 221.548 168.235 221.706C168.35 221.864 168.433 222.043 168.48 222.233C168.538 222.436 168.573 222.646 168.586 222.857L167.645 223.026C167.64 222.853 167.619 222.682 167.582 222.513C167.558 222.382 167.497 222.26 167.406 222.162C167.359 222.118 167.302 222.083 167.241 222.061C167.179 222.04 167.113 222.031 167.048 222.036C166.977 222.031 166.905 222.043 166.84 222.071C166.774 222.1 166.715 222.143 166.669 222.197C166.577 222.31 166.529 222.452 166.536 222.598C166.529 222.775 166.573 222.95 166.662 223.103C166.766 223.256 166.891 223.393 167.034 223.51L167.785 224.177C168.036 224.387 168.252 224.636 168.424 224.914C168.612 225.22 168.704 225.574 168.691 225.932C168.697 226.218 168.624 226.5 168.48 226.746C168.357 226.97 168.172 227.152 167.947 227.273C167.71 227.394 167.447 227.454 167.182 227.448Z" fill="#E5E5E5"/>
<path d="M169.323 227.371V221.306H170.411V227.371H169.323Z" fill="#E5E5E5"/>
<path d="M172.868 227.448C172.533 227.467 172.201 227.378 171.92 227.195C171.679 227.024 171.501 226.777 171.415 226.493C171.308 226.12 171.265 225.73 171.289 225.342V223.306C171.281 222.927 171.331 222.548 171.436 222.183C171.525 221.895 171.711 221.647 171.962 221.481C172.281 221.302 172.644 221.217 173.008 221.235C173.35 221.222 173.69 221.292 173.998 221.439C174.236 221.576 174.422 221.788 174.525 222.043C174.638 222.348 174.693 222.672 174.686 222.997V223.313H173.626V222.969C173.639 222.803 173.639 222.637 173.626 222.471C173.606 222.348 173.547 222.235 173.458 222.148C173.34 222.068 173.199 222.031 173.058 222.043C172.981 222.034 172.904 222.042 172.831 222.066C172.759 222.091 172.692 222.13 172.636 222.183C172.545 222.288 172.486 222.417 172.468 222.555C172.457 222.726 172.457 222.897 172.468 223.068V225.602C172.464 225.786 172.481 225.969 172.517 226.149C172.542 226.287 172.611 226.413 172.714 226.507C172.829 226.593 172.97 226.636 173.114 226.627C173.264 226.638 173.413 226.59 173.528 226.493C173.63 226.392 173.699 226.262 173.724 226.121C173.767 225.935 173.786 225.744 173.781 225.553V224.984H173.128V224.282H174.777V227.357H174.075L173.991 226.753C173.917 226.948 173.791 227.118 173.626 227.244C173.41 227.409 173.138 227.482 172.868 227.448Z" fill="#E5E5E5"/>
<path d="M175.5 227.371V221.306H176.273L177.747 224.767V221.306H178.659V227.371H177.957L176.476 223.749V227.371H175.5Z" fill="#E5E5E5"/>
<path d="M181.46 227.371V221.306H182.52V227.371H181.46Z" fill="#E5E5E5"/>
<path d="M183.489 227.371V221.306H184.254L185.729 224.767V221.306H186.641V227.371H185.939L184.458 223.749V227.371H183.489Z" fill="#E5E5E5"/>
</g>
<defs>
<clipPath id="clip0_1479_3068">
<rect width="351" height="351" fill="white"/>
</clipPath>
</defs>
</svg>
