<svg width="170" height="43" viewBox="0 0 170 43" fill="none" xmlns="http://www.w3.org/2000/svg">
<rect x="132.005" y="33.7856" width="26.6461" height="6" fill="#FFCF23"/>
<path d="M5.65393 7.46741C4.50787 7.46741 3.56554 7.13633 2.82697 6.47416C2.11386 5.78652 1.7573 4.94607 1.7573 3.95281C1.7573 2.93408 2.11386 2.09363 2.82697 1.43146C3.56554 0.743818 4.50787 0.399997 5.65393 0.399997C6.77453 0.399997 7.69139 0.743818 8.4045 1.43146C9.14307 2.09363 9.51236 2.93408 9.51236 3.95281C9.51236 4.94607 9.14307 5.78652 8.4045 6.47416C7.69139 7.13633 6.77453 7.46741 5.65393 7.46741ZM8.90112 9.68314V31H2.36854V9.68314H8.90112Z" fill="#FFCF23"/>
<path d="M23.2622 31.3056C21.403 31.3056 19.7476 30.9873 18.2959 30.3506C16.8442 29.7139 15.6981 28.8479 14.8577 27.7528C14.0172 26.6322 13.5461 25.3843 13.4442 24.009H19.9004C19.9768 24.7476 20.3206 25.3461 20.9318 25.8045C21.5431 26.2629 22.2944 26.4921 23.1858 26.4921C24.0008 26.4921 24.6247 26.3393 25.0577 26.0337C25.5161 25.7026 25.7453 25.2824 25.7453 24.773C25.7453 24.1618 25.427 23.7161 24.7903 23.436C24.1536 23.1303 23.1221 22.7993 21.6959 22.4427C20.1678 22.0861 18.8944 21.7169 17.8757 21.3348C16.8569 20.9273 15.9783 20.3034 15.2397 19.4629C14.5011 18.597 14.1318 17.4382 14.1318 15.9865C14.1318 14.764 14.4629 13.6562 15.1251 12.6629C15.8127 11.6442 16.806 10.8419 18.1049 10.2562C19.4292 9.67041 20.9955 9.37753 22.8038 9.37753C25.4779 9.37753 27.579 10.0397 29.1071 11.364C30.6607 12.6884 31.5521 14.4457 31.7813 16.636H25.7453C25.6435 15.8974 25.3124 15.3116 24.7521 14.8787C24.2172 14.4457 23.5041 14.2292 22.6127 14.2292C21.8487 14.2292 21.2629 14.382 20.8554 14.6876C20.448 14.9678 20.2442 15.3625 20.2442 15.8719C20.2442 16.4831 20.5626 16.9416 21.1993 17.2472C21.8614 17.5528 22.8802 17.8584 24.2554 18.164C25.8345 18.5715 27.1206 18.979 28.1139 19.3865C29.1071 19.7685 29.973 20.4052 30.7116 21.2966C31.4757 22.1625 31.8704 23.3341 31.8959 24.8112C31.8959 26.0592 31.5393 27.1798 30.8262 28.173C30.1386 29.1408 29.1326 29.9049 27.8083 30.4652C26.5094 31.0255 24.994 31.3056 23.2622 31.3056ZM58.6228 9.68314L45.2521 41.1236H38.2228L43.1127 30.2742L34.4408 9.68314H41.7374L46.6655 23.0157L51.5554 9.68314H58.6228ZM70.6121 31.3056C68.7529 31.3056 67.0975 30.9873 65.6458 30.3506C64.1941 29.7139 63.048 28.8479 62.2076 27.7528C61.3671 26.6322 60.896 25.3843 60.7941 24.009H67.2503C67.3267 24.7476 67.6705 25.3461 68.2817 25.8045C68.893 26.2629 69.6443 26.4921 70.5357 26.4921C71.3507 26.4921 71.9746 26.3393 72.4076 26.0337C72.866 25.7026 73.0952 25.2824 73.0952 24.773C73.0952 24.1618 72.7769 23.7161 72.1402 23.436C71.5035 23.1303 70.472 22.7993 69.0458 22.4427C67.5177 22.0861 66.2443 21.7169 65.2256 21.3348C64.2068 20.9273 63.3282 20.3034 62.5896 19.4629C61.851 18.597 61.4817 17.4382 61.4817 15.9865C61.4817 14.764 61.8128 13.6562 62.475 12.6629C63.1626 11.6442 64.1559 10.8419 65.4548 10.2562C66.7791 9.67041 68.3454 9.37753 70.1537 9.37753C72.8278 9.37753 74.9289 10.0397 76.457 11.364C78.0106 12.6884 78.902 14.4457 79.1312 16.636H73.0952C72.9934 15.8974 72.6623 15.3116 72.102 14.8787C71.5671 14.4457 70.854 14.2292 69.9626 14.2292C69.1986 14.2292 68.6128 14.382 68.2053 14.6876C67.7978 14.9678 67.5941 15.3625 67.5941 15.8719C67.5941 16.4831 67.9125 16.9416 68.5492 17.2472C69.2113 17.5528 70.2301 17.8584 71.6053 18.164C73.1844 18.5715 74.4705 18.979 75.4638 19.3865C76.457 19.7685 77.3229 20.4052 78.0615 21.2966C78.8256 22.1625 79.2203 23.3341 79.2458 24.8112C79.2458 26.0592 78.8892 27.1798 78.1761 28.173C77.4885 29.1408 76.4825 29.9049 75.1581 30.4652C73.8593 31.0255 72.3439 31.3056 70.6121 31.3056ZM96.0784 25.4607V31H92.7548C90.3862 31 88.5398 30.427 87.2154 29.2809C85.8911 28.1094 85.2289 26.212 85.2289 23.5888V15.1079H82.6312V9.68314H85.2289V4.48764H91.7615V9.68314H96.0401V15.1079H91.7615V23.6652C91.7615 24.3019 91.9143 24.7603 92.2199 25.0404C92.5255 25.3206 93.0349 25.4607 93.748 25.4607H96.0784ZM120.767 19.9978C120.767 20.609 120.728 21.2457 120.652 21.9079H105.868C105.97 23.2322 106.39 24.2509 107.128 24.964C107.892 25.6517 108.822 25.9955 109.917 25.9955C111.547 25.9955 112.68 25.3079 113.317 23.9326H120.27C119.913 25.3333 119.264 26.594 118.322 27.7146C117.405 28.8352 116.246 29.7139 114.845 30.3506C113.444 30.9873 111.878 31.3056 110.146 31.3056C108.058 31.3056 106.199 30.8599 104.569 29.9685C102.939 29.0772 101.665 27.8037 100.749 26.1483C99.8317 24.4929 99.3733 22.5573 99.3733 20.3416C99.3733 18.1258 99.819 16.1903 100.71 14.5348C101.627 12.8794 102.901 11.606 104.531 10.7146C106.161 9.82322 108.032 9.37753 110.146 9.37753C112.209 9.37753 114.043 9.81049 115.647 10.6764C117.252 11.5423 118.5 12.7775 119.391 14.382C120.308 15.9865 120.767 17.8584 120.767 19.9978ZM114.081 18.2787C114.081 17.1581 113.699 16.2667 112.935 15.6045C112.171 14.9423 111.216 14.6112 110.07 14.6112C108.975 14.6112 108.045 14.9296 107.281 15.5663C106.543 16.203 106.084 17.1071 105.906 18.2787H114.081ZM152.368 9.45393C155.017 9.45393 157.118 10.2562 158.671 11.8607C160.25 13.4652 161.04 15.6936 161.04 18.5461V31H154.545V19.4247C154.545 18.0494 154.176 16.9925 153.438 16.2539C152.724 15.4899 151.731 15.1079 150.458 15.1079C149.184 15.1079 148.178 15.4899 147.44 16.2539C146.727 16.9925 146.37 18.0494 146.37 19.4247V31H139.876V19.4247C139.876 18.0494 139.506 16.9925 138.768 16.2539C138.055 15.4899 137.062 15.1079 135.788 15.1079C134.515 15.1079 133.509 15.4899 132.77 16.2539C132.057 16.9925 131.7 18.0494 131.7 19.4247V31H125.168V9.68314H131.7V12.3573C132.363 11.4659 133.229 10.7655 134.298 10.2562C135.368 9.72135 136.578 9.45393 137.927 9.45393C139.532 9.45393 140.958 9.79775 142.206 10.4854C143.479 11.173 144.473 12.1536 145.186 13.427C145.924 12.2554 146.93 11.3004 148.204 10.5618C149.477 9.82322 150.865 9.45393 152.368 9.45393ZM74.6305 33.2955V40H72.9973V33.2955H74.6305ZM80.8758 33.2955V34.6039H79.0994V40H77.4663V34.6039H75.6898V33.2955H80.8758ZM83.8721 37.3258C83.8721 36.7783 83.974 36.2976 84.1778 35.8837C84.3879 35.4698 84.6712 35.1515 85.0278 34.9287C85.3843 34.7058 85.7822 34.5944 86.2216 34.5944C86.5972 34.5944 86.9251 34.6708 87.2053 34.8236C87.4918 34.9764 87.7115 35.177 87.8643 35.4253V34.6708H89.4974V40H87.8643V39.2455C87.7051 39.4938 87.4822 39.6944 87.1957 39.8472C86.9156 40 86.5877 40.0764 86.212 40.0764C85.7791 40.0764 85.3843 39.965 85.0278 39.7421C84.6712 39.5129 84.3879 39.1914 84.1778 38.7775C83.974 38.3573 83.8721 37.8734 83.8721 37.3258ZM87.8643 37.3354C87.8643 36.9279 87.7497 36.6064 87.5205 36.3708C87.2976 36.1352 87.0238 36.0174 86.6991 36.0174C86.3744 36.0174 86.0974 36.1352 85.8682 36.3708C85.6454 36.6 85.5339 36.9184 85.5339 37.3258C85.5339 37.7333 85.6454 38.0581 85.8682 38.3C86.0974 38.5356 86.3744 38.6534 86.6991 38.6534C87.0238 38.6534 87.2976 38.5356 87.5205 38.3C87.7497 38.0644 87.8643 37.7429 87.8643 37.3354ZM90.593 37.3354C90.593 36.7815 90.7044 36.2976 90.9272 35.8837C91.1565 35.4698 91.4716 35.1515 91.8728 34.9287C92.2802 34.7058 92.745 34.5944 93.2671 34.5944C93.9357 34.5944 94.4928 34.7695 94.9385 35.1197C95.3905 35.4698 95.6866 35.9633 95.8267 36.6H94.0885C93.942 36.1925 93.6587 35.9888 93.2385 35.9888C92.9392 35.9888 92.7005 36.1066 92.5222 36.3421C92.3439 36.5713 92.2548 36.9024 92.2548 37.3354C92.2548 37.7684 92.3439 38.1026 92.5222 38.3382C92.7005 38.5674 92.9392 38.682 93.2385 38.682C93.6587 38.682 93.942 38.4783 94.0885 38.0708H95.8267C95.6866 38.6948 95.3905 39.185 94.9385 39.5416C94.4864 39.8981 93.9293 40.0764 93.2671 40.0764C92.745 40.0764 92.2802 39.965 91.8728 39.7421C91.4716 39.5193 91.1565 39.2009 90.9272 38.7871C90.7044 38.3732 90.593 37.8893 90.593 37.3354ZM96.6143 37.3258C96.6143 36.7783 96.7162 36.2976 96.9199 35.8837C97.13 35.4698 97.4134 35.1515 97.7699 34.9287C98.1265 34.7058 98.5244 34.5944 98.9637 34.5944C99.3394 34.5944 99.6673 34.6708 99.9474 34.8236C100.234 34.9764 100.454 35.177 100.606 35.4253V34.6708H102.24V40H100.606V39.2455C100.447 39.4938 100.224 39.6944 99.9379 39.8472C99.6577 40 99.3298 40.0764 98.9542 40.0764C98.5212 40.0764 98.1265 39.965 97.7699 39.7421C97.4134 39.5129 97.13 39.1914 96.9199 38.7775C96.7162 38.3573 96.6143 37.8734 96.6143 37.3258ZM100.606 37.3354C100.606 36.9279 100.492 36.6064 100.263 36.3708C100.04 36.1352 99.766 36.0174 99.4413 36.0174C99.1165 36.0174 98.8396 36.1352 98.6104 36.3708C98.3875 36.6 98.2761 36.9184 98.2761 37.3258C98.2761 37.7333 98.3875 38.0581 98.6104 38.3C98.8396 38.5356 99.1165 38.6534 99.4413 38.6534C99.766 38.6534 100.04 38.5356 100.263 38.3C100.492 38.0644 100.606 37.7429 100.606 37.3354ZM103.335 37.3258C103.335 36.7783 103.437 36.2976 103.641 35.8837C103.851 35.4698 104.134 35.1515 104.491 34.9287C104.847 34.7058 105.245 34.5944 105.685 34.5944C106.035 34.5944 106.353 34.6676 106.64 34.814C106.933 34.9605 107.162 35.1579 107.327 35.4062V32.9326H108.96V40H107.327V39.236C107.174 39.4906 106.955 39.6944 106.668 39.8472C106.388 40 106.06 40.0764 105.685 40.0764C105.245 40.0764 104.847 39.965 104.491 39.7421C104.134 39.5129 103.851 39.1914 103.641 38.7775C103.437 38.3573 103.335 37.8734 103.335 37.3258ZM107.327 37.3354C107.327 36.9279 107.213 36.6064 106.983 36.3708C106.761 36.1352 106.487 36.0174 106.162 36.0174C105.837 36.0174 105.56 36.1352 105.331 36.3708C105.108 36.6 104.997 36.9184 104.997 37.3258C104.997 37.7333 105.108 38.0581 105.331 38.3C105.56 38.5356 105.837 38.6534 106.162 38.6534C106.487 38.6534 106.761 38.5356 106.983 38.3C107.213 38.0644 107.327 37.7429 107.327 37.3354ZM115.404 37.2494C115.404 37.4022 115.395 37.5614 115.376 37.727H111.68C111.705 38.0581 111.81 38.3127 111.995 38.491C112.186 38.6629 112.418 38.7489 112.692 38.7489C113.099 38.7489 113.383 38.577 113.542 38.2331H115.28C115.191 38.5833 115.029 38.8985 114.793 39.1787C114.564 39.4588 114.274 39.6785 113.924 39.8376C113.574 39.9968 113.182 40.0764 112.749 40.0764C112.227 40.0764 111.762 39.965 111.355 39.7421C110.947 39.5193 110.629 39.2009 110.4 38.7871C110.171 38.3732 110.056 37.8893 110.056 37.3354C110.056 36.7815 110.167 36.2976 110.39 35.8837C110.619 35.4698 110.938 35.1515 111.345 34.9287C111.753 34.7058 112.221 34.5944 112.749 34.5944C113.265 34.5944 113.723 34.7026 114.125 34.9191C114.526 35.1356 114.838 35.4444 115.06 35.8455C115.29 36.2466 115.404 36.7146 115.404 37.2494ZM113.733 36.8197C113.733 36.5395 113.637 36.3167 113.446 36.1511C113.255 35.9856 113.017 35.9028 112.73 35.9028C112.456 35.9028 112.224 35.9824 112.033 36.1416C111.848 36.3007 111.734 36.5268 111.689 36.8197H113.733ZM123.305 34.6135C123.967 34.6135 124.492 34.814 124.88 35.2152C125.275 35.6163 125.473 36.1734 125.473 36.8865V40H123.849V37.1062C123.849 36.7624 123.757 36.4981 123.572 36.3135C123.394 36.1225 123.145 36.027 122.827 36.027C122.509 36.027 122.257 36.1225 122.073 36.3135C121.894 36.4981 121.805 36.7624 121.805 37.1062V40H120.182V37.1062C120.182 36.7624 120.089 36.4981 119.905 36.3135C119.726 36.1225 119.478 36.027 119.16 36.027C118.841 36.027 118.59 36.1225 118.405 36.3135C118.227 36.4981 118.138 36.7624 118.138 37.1062V40H116.505V34.6708H118.138V35.3393C118.303 35.1165 118.52 34.9414 118.787 34.814C119.055 34.6803 119.357 34.6135 119.695 34.6135C120.096 34.6135 120.452 34.6994 120.764 34.8713C121.083 35.0433 121.331 35.2884 121.509 35.6067C121.694 35.3139 121.945 35.0751 122.264 34.8904C122.582 34.7058 122.929 34.6135 123.305 34.6135ZM132.297 34.6708L128.955 42.5309H127.197L128.42 39.8185L126.252 34.6708H128.076L129.308 38.0039L130.531 34.6708H132.297Z" fill="black"/>
</svg>
