<svg width="138" height="126" viewBox="0 0 138 126" fill="none" xmlns="http://www.w3.org/2000/svg">
<g clip-path="url(#clip0_1106_3939)">
<path d="M50.8467 95.0563L49.1407 90.5885L51.1426 85.0645L59.9449 60.7756L91.0575 69.8738L99.1809 48.7529L114.209 51.9211L119.571 56.7139L122.495 63.4563L113.072 93.1067L108.035 95.2188L100.156 96.681L89.9515 91.9694L85.1274 104.967L81.0657 106.51L72.3737 108.297L52.9587 96.3555L50.8467 95.0563Z" fill="#886302"/>
<path d="M59.9449 60.7756L91.0575 69.8738M59.9449 60.7756L69.8554 72.1483M59.9449 60.7756L67.2559 81.4902M59.9449 60.7756L63.6816 94.5689M59.9449 60.7756L51.1426 85.0645M59.9449 60.7756L56.8665 76.4537M72.3737 108.297L52.9587 96.3555M72.3737 108.297L73.9171 107.657L75.2981 107.084L76.6791 106.51M72.3737 108.297L81.0657 106.51L85.1274 104.967M76.6791 106.51L82.0405 91.9694M76.6791 106.51L85.1274 104.967M82.0405 91.9694L66.4436 84.2522M82.0405 91.9694L77.329 92.6366M66.4436 84.2522L67.2559 81.4902M66.4436 84.2522L63.6816 94.5689M66.4436 84.2522L77.329 92.6366M66.4436 84.2522L78.2225 86.5538M67.2559 81.4902L91.0575 69.8738M67.2559 81.4902L72.7798 82.3838M67.2559 81.4902L69.8554 72.1483M67.2559 81.4902L78.2225 86.5538M100.156 96.681L102.633 95.625M100.156 96.681L89.9515 91.9694M100.156 96.681L108.035 95.2188L113.072 93.1067M105.111 94.5689L102.633 95.625M105.111 94.5689L106.167 94.375L112.178 93.2708L113.072 93.1067M105.111 94.5689L110.554 78.3527L116.971 59.2321M116.971 59.2321L116.357 57.6074M116.971 59.2321L117.865 59.9154L121.195 62.4624L122.495 63.4563M114.209 51.9211L99.1809 48.7529M114.209 51.9211L114.67 53.1396M114.209 51.9211L119.571 56.7139L122.495 63.4563M99.1809 48.7529L91.0575 69.8738M99.1809 48.7529L100.156 88.3139M99.1809 48.7529L102.674 53.7894M91.0575 69.8738L100.156 88.3139M91.0575 69.8738L72.7798 82.3838M91.0575 69.8738L69.8554 72.1483M100.156 88.3139L112.016 65.8121M100.156 88.3139L102.633 95.625M100.156 88.3139L72.7798 82.3838M102.674 53.7894L114.67 53.1396M102.674 53.7894L112.016 65.8121M114.67 53.1396L116.357 57.6074M112.016 65.8121L116.357 57.6074M63.6816 94.5689L52.9587 96.3555M63.6816 94.5689L77.329 92.6366M52.9587 96.3555L50.8467 95.0563L49.1407 90.5885L51.1426 85.0645M52.9587 96.3555L51.1426 85.0645M52.9587 96.3555L56.8665 76.4537M51.1426 85.0645L56.8665 76.4537M78.2225 86.5538L89.9515 91.9694M89.9515 91.9694L85.1274 104.967M122.495 63.4563L113.072 93.1067" stroke="#FECA00" stroke-width="0.324936"/>
<path fill-rule="evenodd" clip-rule="evenodd" d="M49.1407 90.5885L50.8467 95.0563L52.9587 96.3555L72.3737 108.297L81.0657 106.51L85.1274 104.967L89.9515 91.9694L100.156 96.681L108.035 95.2188L113.072 93.1067L113.072 93.1064L108.036 95.2185L100.156 96.6807L102.634 95.6246L105.111 94.5686L110.554 78.3524L116.971 59.2318L116.358 57.6071L114.67 53.1392L114.21 51.9215L114.209 51.9211L99.1809 48.7529L91.0575 69.8738L59.9449 60.7756L51.1426 85.0645L49.1407 90.5885ZM82.0407 91.9691L66.4438 84.2519L78.2227 86.5535L89.9517 91.9691H82.0407Z" fill="#FFE377" fill-opacity="0.2"/>
<path d="M121.195 62.4622L116.504 69.4675M116.504 69.4675L110.554 78.3526L117.052 80.5153M116.504 69.4675L117.865 59.9153" stroke="url(#paint0_linear_1106_3939)" stroke-width="0.162468"/>
<path d="M89.9514 91.969H82.0404C82.4303 91.969 86.3729 95.0017 88.2954 96.5181" stroke="url(#paint1_linear_1106_3939)" stroke-width="0.162468"/>
<path d="M75.2985 107.083L77.3293 92.6362" stroke="url(#paint2_linear_1106_3939)" stroke-width="0.162468"/>
<path d="M63.6809 94.5686L68.7987 101.113L73.9164 107.656" stroke="url(#paint3_linear_1106_3939)" stroke-width="0.324936"/>
<path d="M106.166 94.3744L111.284 86.3638L112.178 93.2703" stroke="url(#paint4_linear_1106_3939)" stroke-width="0.162468"/>
<path d="M110.716 78.0779C110.905 80.5691 111.285 85.7139 111.285 86.3638L117.702 78.5653" stroke="url(#paint5_linear_1106_3939)" stroke-width="0.162468"/>
<path d="M59.9446 60.7756L91.0572 69.8738M59.9446 60.7756L69.8552 72.1483M59.9446 60.7756L67.2557 81.4902L69.8552 72.1483M59.9446 60.7756L63.6814 94.5689L52.9585 96.3555L56.8662 76.4537M59.9446 60.7756L51.1423 85.0645L56.8662 76.4537M59.9446 60.7756L56.8662 76.4537M99.1806 48.7529L114.209 51.9211L114.669 53.1396L102.674 53.7894L99.1806 48.7529ZM99.1806 48.7529L91.0572 69.8738M99.1806 48.7529L100.155 88.3139L91.0572 69.8738M91.0572 69.8738L69.8552 72.1483" stroke="black" stroke-width="0.324936"/>
<path d="M51.1423 85.0646L59.9446 60.7756L56.8662 76.4538L51.1423 85.0646Z" fill="url(#paint6_linear_1106_3939)" stroke="#FECA00" stroke-width="0.324936"/>
<path d="M63.6816 94.569L59.9449 60.7756L56.8665 76.4538L52.9587 96.3555L63.6816 94.569Z" fill="url(#paint7_linear_1106_3939)" stroke="#FECA00" stroke-width="0.324936"/>
<path d="M69.8554 72.1484L67.2559 81.4903L59.9448 60.7756L69.8554 72.1484Z" fill="url(#paint8_linear_1106_3939)" stroke="#FECA00" stroke-width="0.324936"/>
<path d="M59.9448 60.7756L91.0575 69.8738L69.8554 72.1484L59.9448 60.7756Z" fill="url(#paint9_linear_1106_3939)" stroke="#FECA00" stroke-width="0.324936"/>
<path d="M91.0576 69.8738L99.181 48.7529L100.156 88.3139L91.0576 69.8738Z" fill="url(#paint10_linear_1106_3939)" stroke="#FECA00" stroke-width="0.324936"/>
<path d="M99.1809 48.7529L114.209 51.9211L114.67 53.1396L102.674 53.7894L99.1809 48.7529Z" fill="url(#paint11_linear_1106_3939)" stroke="#FECA00" stroke-width="0.324936"/>
<path d="M51.7402 73.5293L43.5355 70.0362L42.4176 67.2742L42.1545 66.6244L47.4435 51.0274L50.1155 43.1477L51.3718 42.376L52.6281 41.6043L54.0959 40.7026L55.8019 39.6547L69.8553 42.5451C68.6639 41.4462 66.1348 39.1185 65.5499 38.5986L69.9366 25.9261L71.7643 24.9107L73.5921 23.8953L99.5058 25.9261L104.542 31.2876L106.979 35.5117L105.829 39.0048L102.511 49.0778L98.6934 48.0016L91.1387 68.2491L67.0122 61.1005L66.1998 62.5627L59.3762 60.613L54.5021 73.5293H51.7402Z" fill="#1B6CB7"/>
<path d="M72.7791 82.3836L71.1544 79.7029" stroke="url(#paint12_linear_1106_3939)" stroke-width="0.162468"/>
<path d="M51.7406 73.5292L58.483 57.3636L76.1108 61.7587L88.7833 64.9184L92.1195 56.0639L101.7 30.6376L101.17 29.5003L100.641 28.363L100.036 27.0633L74.1444 29.8253L65.5504 38.5985L79.8476 41.6042L78.7103 44.3661C74.3236 45.5779 65.3716 48.0015 64.6568 48.0015L54.0964 40.7025L52.6285 41.6042L51.3722 42.3759L51.7406 73.5292Z" fill="url(#paint13_linear_1106_3939)" fill-opacity="0.2"/>
<path d="M43.5355 70.0361L51.7402 73.5292L48.7309 57.7698L47.4435 51.0273L42.1545 66.6243L42.4176 67.2742L43.5355 70.0361Z" fill="url(#paint14_linear_1106_3939)"/>
<path d="M51.3718 42.3757L50.1155 43.1475L47.4435 51.0272L48.7309 57.7696L51.7402 73.529L51.3718 42.3757Z" fill="url(#paint15_linear_1106_3939)" stroke="url(#paint16_linear_1106_3939)" stroke-width="0.324936"/>
<path d="M55.8022 39.6543L54.0963 40.7022L64.6567 48.0012C65.3716 48.0012 74.3236 45.5777 78.7102 44.3659L69.8557 42.5447L55.8022 39.6543Z" fill="url(#paint17_linear_1106_3939)" stroke="black" stroke-width="0.324936"/>
<path d="M69.9363 25.9258L65.5497 38.5983L74.1437 29.8251L71.7641 24.9104L69.9363 25.9258Z" fill="url(#paint18_linear_1106_3939)" stroke="black" stroke-width="0.324936"/>
<path d="M99.5059 25.9261L73.5923 23.8953L71.7645 24.9107L74.1441 29.8253L100.035 27.0634L99.5059 25.9261Z" fill="url(#paint19_linear_1106_3939)" stroke="black" stroke-width="0.324936"/>
<path d="M58.4826 57.3637L51.7402 73.5293M58.4826 57.3637L76.1104 61.7588L88.7829 64.9185M58.4826 57.3637L67.0122 61.1005M51.7402 73.5293L43.5355 70.0362L42.4176 67.2742L42.1545 66.6244L47.4435 51.0274L50.1155 43.1477L51.3718 42.376L52.6281 41.6043L54.0959 40.7026M51.7402 73.5293H54.5021L59.3762 60.613L66.1998 62.5627L67.0122 61.1005M78.7099 44.3662L79.8471 41.6043M78.7099 44.3662L79.8471 58.501M78.7099 44.3662C74.3232 45.578 65.3712 48.0016 64.6564 48.0016L54.0959 40.7026M78.7099 44.3662L69.8553 42.5451M79.8471 41.6043L65.5499 38.5986M79.8471 41.6043L74.144 29.8253M79.8471 41.6043C80.0029 41.6043 82.2712 40.1962 85.371 38.2237C90.0328 35.2572 96.5749 31.0141 100.64 28.3631M65.5499 38.5986L69.9366 25.9261L71.7643 24.9107M65.5499 38.5986L74.144 29.8253M65.5499 38.5986C66.1348 39.1185 68.6639 41.4462 69.8553 42.5451M99.5058 25.9261L73.5921 23.8953L71.7643 24.9107M99.5058 25.9261L100.035 27.0634M99.5058 25.9261L104.542 31.2876L106.979 35.5117M101.699 30.6377L101.17 29.5004L100.64 28.3631M101.699 30.6377C101.699 30.9902 103.318 32.4582 104.908 33.8058C105.664 34.4457 106.413 35.0584 106.979 35.5117M101.699 30.6377L92.1191 56.0639L88.7829 64.9185M88.7829 64.9185L91.1387 68.249M71.7643 24.9107L74.144 29.8253M74.144 29.8253L100.035 27.0634M100.035 27.0634L100.64 28.3631M54.0959 40.7026L55.8019 39.6547L69.8553 42.5451M67.0122 61.1005L91.1387 68.249M91.1387 68.249L98.6934 48.0016L102.511 49.0778L105.829 39.0048L106.979 35.5117" stroke="#41B3D2" stroke-width="0.324936"/>
<path d="M48.7302 57.7698L45.5735 62.522L42.4169 67.2742" stroke="url(#paint20_linear_1106_3939)" stroke-width="0.162468"/>
<path d="M58.4823 57.3634L52.6278 41.604" stroke="url(#paint21_linear_1106_3939)" stroke-width="0.162468"/>
<path d="M88.7834 64.9183L79.8476 58.5008L64.6569 48.0015" stroke="url(#paint22_linear_1106_3939)" stroke-width="0.162468"/>
<path d="M64.6569 48.0015L76.1109 61.7587" stroke="url(#paint23_linear_1106_3939)" stroke-width="0.162468"/>
<path d="M98.0301 35.5928L97.1095 30.3938" stroke="url(#paint24_linear_1106_3939)" stroke-width="0.162468"/>
<path d="M105.829 39.0046L102.261 43.503L98.6933 48.0014L95.4061 52.0326L92.1189 56.0638" stroke="url(#paint25_linear_1106_3939)" stroke-width="0.162468"/>
<path d="M101.169 29.5002L79.8469 58.5008C79.8208 58.1759 83.5187 44.8472 85.3709 38.2235" stroke="url(#paint26_linear_1106_3939)" stroke-width="0.162468"/>
<path d="M57.4271 107.566L50.0348 109.191L42.7237 98.4679L57.4271 107.566Z" fill="#BF9529" fill-opacity="0.93"/>
<path d="M72.2929 108.622L67.7438 112.278L75.1361 110.572L72.2929 108.622Z" fill="#BF9529" fill-opacity="0.93"/>
<path d="M54.0152 114.796V112.278L56.8584 116.014L54.0152 114.796Z" fill="#BF9529" fill-opacity="0.93"/>
<path d="M94.7135 112.278L93.0076 114.796L96.2569 112.278H94.7135Z" fill="#BF9529" fill-opacity="0.93"/>
<path d="M52.3093 83.1146H50.0348L49.1412 85.8766L52.3093 83.1146Z" fill="#BF9529" fill-opacity="0.93"/>
<path d="M32.2445 64.1059V58.1758L39.1494 69.4673L32.2445 64.1059Z" fill="#BF9529" fill-opacity="0.93"/>
<path d="M14.7792 59.8005L13.4795 58.7444L11.2861 62.1562L14.7792 59.8005Z" fill="#BF9529" fill-opacity="0.93"/>
<path d="M123.958 77.2658L120.383 76.4534L125.339 80.4339L123.958 77.2658Z" fill="#BF9529" fill-opacity="0.93"/>
<path d="M112.747 75.4786L110.554 72.9604L111.773 80.4339L112.747 75.4786Z" fill="#BF9529" fill-opacity="0.93"/>
<path d="M128.669 70.1984L126.07 72.148L129.4 73.4478L128.669 70.1984Z" fill="#BF9529" fill-opacity="0.93"/>
<path d="M123.389 85.4704L122.171 84.7393L124.608 93.5126L123.389 85.4704Z" fill="#BF9529" fill-opacity="0.93"/>
<path d="M130.7 102.367L128.994 111.709L132 108.703L130.7 102.367Z" fill="#BF9529" fill-opacity="0.93"/>
<path d="M25.9895 110.572L22.6589 103.504L25.9895 106.916V110.572Z" fill="#BF9529" fill-opacity="0.93"/>
<path d="M57.4271 107.566L50.0348 109.191L42.7237 98.4679L57.4271 107.566Z" stroke="url(#paint27_linear_1106_3939)" stroke-width="0.324936"/>
<path d="M72.2929 108.622L67.7438 112.278L75.1361 110.572L72.2929 108.622Z" stroke="url(#paint28_linear_1106_3939)" stroke-width="0.324936"/>
<path d="M54.0152 114.796V112.278L56.8584 116.014L54.0152 114.796Z" stroke="url(#paint29_linear_1106_3939)" stroke-width="0.324936"/>
<path d="M94.7135 112.278L93.0076 114.796L96.2569 112.278H94.7135Z" stroke="url(#paint30_linear_1106_3939)" stroke-width="0.324936"/>
<path d="M52.3093 83.1146H50.0348L49.1412 85.8766L52.3093 83.1146Z" stroke="url(#paint31_linear_1106_3939)" stroke-width="0.324936"/>
<path d="M32.2445 64.1059V58.1758L39.1494 69.4673L32.2445 64.1059Z" stroke="url(#paint32_linear_1106_3939)" stroke-width="0.324936"/>
<path d="M14.7792 59.8005L13.4795 58.7444L11.2861 62.1562L14.7792 59.8005Z" stroke="url(#paint33_linear_1106_3939)" stroke-width="0.324936"/>
<path d="M123.958 77.2658L120.383 76.4534L125.339 80.4339L123.958 77.2658Z" stroke="url(#paint34_linear_1106_3939)" stroke-width="0.324936"/>
<path d="M112.747 75.4786L110.554 72.9604L111.773 80.4339L112.747 75.4786Z" stroke="url(#paint35_linear_1106_3939)" stroke-width="0.324936"/>
<path d="M128.669 70.1984L126.07 72.148L129.4 73.4478L128.669 70.1984Z" stroke="url(#paint36_linear_1106_3939)" stroke-width="0.324936"/>
<path d="M123.389 85.4704L122.171 84.7393L124.608 93.5126L123.389 85.4704Z" stroke="url(#paint37_linear_1106_3939)" stroke-width="0.324936"/>
<path d="M130.7 102.367L128.994 111.709L132 108.703L130.7 102.367Z" stroke="url(#paint38_linear_1106_3939)" stroke-width="0.324936"/>
<path d="M25.9895 110.572L22.6589 103.504L25.9895 106.916V110.572Z" stroke="url(#paint39_linear_1106_3939)" stroke-width="0.324936"/>
<path d="M56.8507 27.3395L60.6792 20.8104L73.5149 22.7275L56.8507 27.3395Z" fill="#1A6AB1"/>
<path d="M45.9788 37.533L46.3855 31.7113L42.6167 38.2956L45.9788 37.533Z" fill="#1A6AB1"/>
<path d="M53.8617 19.9249L55.71 21.6353L51.0363 21.184L53.8617 19.9249Z" fill="#1A6AB1"/>
<path d="M28.0677 51.5058L27.378 48.5433L27.0194 52.6386L28.0677 51.5058Z" fill="#1A6AB1"/>
<path d="M78.2729 40.1908L79.8178 38.5214L78.3975 35.9896L78.2729 40.1908Z" fill="#1A6AB1"/>
<path d="M105.852 38.375L110.205 42.4027L97.2276 39.8013L105.852 38.375Z" fill="#1A6AB1"/>
<path d="M120.875 28.4805L122.533 28.2438L121.518 24.3167L120.875 28.4805Z" fill="#1A6AB1"/>
<path d="M33.9019 96.7498L36.9258 94.6782L30.6387 95.6116L33.9019 96.7498Z" fill="#1A6AB1"/>
<path d="M42.8277 89.7358L46.1656 89.8364L39.8528 85.6547L42.8277 89.7358Z" fill="#1A6AB1"/>
<path d="M35.8889 105.008L36.2236 101.776L33.0075 103.338L35.8889 105.008Z" fill="#1A6AB1"/>
<path d="M28.2663 90.7598L29.6305 90.3621L21.5362 86.1919L28.2663 90.7598Z" fill="#1A6AB1"/>
<path d="M10.8993 84.6495L5.20146 77.0524L5.36602 81.2999L10.8993 84.6495Z" fill="#1A6AB1"/>
<path d="M75.9972 2.22439L83.4464 4.58006L78.6802 4.70723L75.9972 2.22439Z" fill="#1A6AB1"/>
<path d="M56.8507 27.3395L60.6792 20.8104L73.5149 22.7275L56.8507 27.3395Z" stroke="#41B3D2" stroke-width="0.324936"/>
<path d="M45.9788 37.533L46.3855 31.7113L42.6167 38.2956L45.9788 37.533Z" stroke="#41B3D2" stroke-width="0.324936"/>
<path d="M53.8617 19.9249L55.71 21.6353L51.0363 21.184L53.8617 19.9249Z" stroke="#41B3D2" stroke-width="0.324936"/>
<path d="M28.0677 51.5058L27.378 48.5433L27.0194 52.6386L28.0677 51.5058Z" stroke="#41B3D2" stroke-width="0.324936"/>
<path d="M78.2729 40.1908L79.8178 38.5214L78.3975 35.9896L78.2729 40.1908Z" stroke="#41B3D2" stroke-width="0.324936"/>
<path d="M105.852 38.375L110.205 42.4027L97.2276 39.8013L105.852 38.375Z" stroke="#41B3D2" stroke-width="0.324936"/>
<path d="M120.875 28.4805L122.533 28.2438L121.518 24.3167L120.875 28.4805Z" stroke="#41B3D2" stroke-width="0.324936"/>
<path d="M33.9019 96.7498L36.9258 94.6782L30.6387 95.6116L33.9019 96.7498Z" stroke="#41B3D2" stroke-width="0.324936"/>
<path d="M42.8277 89.7358L46.1656 89.8364L39.8528 85.6547L42.8277 89.7358Z" stroke="#41B3D2" stroke-width="0.324936"/>
<path d="M35.8889 105.008L36.2236 101.776L33.0075 103.338L35.8889 105.008Z" stroke="#41B3D2" stroke-width="0.324936"/>
<path d="M28.2663 90.7598L29.6305 90.3621L21.5362 86.1919L28.2663 90.7598Z" stroke="#41B3D2" stroke-width="0.324936"/>
<path d="M10.8993 84.6495L5.20146 77.0524L5.36602 81.2999L10.8993 84.6495Z" stroke="#41B3D2" stroke-width="0.324936"/>
<path d="M75.9972 2.22439L83.4464 4.58006L78.6802 4.70723L75.9972 2.22439Z" stroke="#41B3D2" stroke-width="0.324936"/>
<path d="M20.5 31.5002L17.5 38.5002L22 33.5002L20.5 31.5002Z" stroke="#CDCDCD" stroke-width="0.3"/>
<path d="M96 7.00024L93.5 12.0002L108.5 15.5002L96 7.00024Z" stroke="#CDCDCD" stroke-width="0.3"/>
<path d="M77 120.5V124.5L92 122.5L77 120.5Z" stroke="#CDCDCD" stroke-width="0.3"/>
<path d="M41 7.00024C41.3333 9.83358 42.1 15.5002 42.5 15.5002L45.5 7.00024H41Z" stroke="#CDCDCD" stroke-width="0.3"/>
<path d="M24.5 71.0002L26.5 78.5002L30.5 73.0002L24.5 71.0002Z" stroke="#CDCDCD" stroke-width="0.3"/>
<path d="M119 36.5002V42.0002L121.5 38.5002L119 36.5002Z" stroke="#CDCDCD" stroke-width="0.3"/>
<path d="M112 96.5002V101.5L115 96.5002H112Z" stroke="#CDCDCD" stroke-width="0.3"/>
</g>
<defs>
<linearGradient id="paint0_linear_1106_3939" x1="115.915" y1="55.3327" x2="115.874" y2="78.3526" gradientUnits="userSpaceOnUse">
<stop stop-color="#FECA00"/>
<stop offset="1" stop-color="#FECA00" stop-opacity="0"/>
</linearGradient>
<linearGradient id="paint1_linear_1106_3939" x1="77.2476" y1="90.588" x2="89.3515" y2="93.5125" gradientUnits="userSpaceOnUse">
<stop stop-color="#FECA00"/>
<stop offset="1" stop-color="#FECA00" stop-opacity="0"/>
</linearGradient>
<linearGradient id="paint2_linear_1106_3939" x1="75.2985" y1="107.079" x2="77.4105" y2="92.619" gradientUnits="userSpaceOnUse">
<stop stop-color="#FECA00"/>
<stop offset="1" stop-color="#FECA00" stop-opacity="0"/>
</linearGradient>
<linearGradient id="paint3_linear_1106_3939" x1="68.7987" y1="94.5686" x2="68.7987" y2="107.656" gradientUnits="userSpaceOnUse">
<stop stop-color="#FECA00"/>
<stop offset="1" stop-color="#FECA00" stop-opacity="0"/>
</linearGradient>
<linearGradient id="paint4_linear_1106_3939" x1="110.634" y1="83.2769" x2="109.172" y2="94.3744" gradientUnits="userSpaceOnUse">
<stop stop-color="#FECA00"/>
<stop offset="1" stop-color="#FECA00" stop-opacity="0"/>
</linearGradient>
<linearGradient id="paint5_linear_1106_3939" x1="110.716" y1="92.8625" x2="111.691" y2="76.6157" gradientUnits="userSpaceOnUse">
<stop stop-color="#FECA00"/>
<stop offset="1" stop-color="#FECA00" stop-opacity="0"/>
</linearGradient>
<linearGradient id="paint6_linear_1106_3939" x1="55.5435" y1="60.7756" x2="58.4824" y2="78.4034" gradientUnits="userSpaceOnUse">
<stop stop-color="#CFAB20"/>
<stop offset="1" stop-color="#BF9725" stop-opacity="0.05"/>
</linearGradient>
<linearGradient id="paint7_linear_1106_3939" x1="58.3202" y1="60.7756" x2="58.3202" y2="96.3555" gradientUnits="userSpaceOnUse">
<stop offset="0.076857" stop-color="#BF9725" stop-opacity="0.05"/>
<stop offset="1" stop-color="#CFAB20"/>
</linearGradient>
<linearGradient id="paint8_linear_1106_3939" x1="64.9001" y1="65.7309" x2="66.606" y2="90.5073" gradientUnits="userSpaceOnUse">
<stop stop-color="#BF9725" stop-opacity="0.05"/>
<stop offset="1" stop-color="#CFAB20"/>
</linearGradient>
<linearGradient id="paint9_linear_1106_3939" x1="75.4605" y1="59.2322" x2="75.4605" y2="70.6862" gradientUnits="userSpaceOnUse">
<stop stop-color="#CFAB20"/>
<stop offset="1" stop-color="#BF9725" stop-opacity="0.05"/>
</linearGradient>
<linearGradient id="paint10_linear_1106_3939" x1="95.6067" y1="48.7529" x2="95.6067" y2="81.2465" gradientUnits="userSpaceOnUse">
<stop offset="0.285239" stop-color="#CFAB20"/>
<stop offset="1" stop-color="#BF9725" stop-opacity="0.05"/>
</linearGradient>
<linearGradient id="paint11_linear_1106_3939" x1="106.925" y1="48.7529" x2="106.925" y2="53.7894" gradientUnits="userSpaceOnUse">
<stop stop-color="#CFAB20"/>
<stop offset="1" stop-color="#BF9725" stop-opacity="0.05"/>
</linearGradient>
<linearGradient id="paint12_linear_1106_3939" x1="73.2665" y1="82.871" x2="71.0732" y2="79.7029" gradientUnits="userSpaceOnUse">
<stop stop-color="#FECA00"/>
<stop offset="1" stop-color="#FECA00" stop-opacity="0"/>
</linearGradient>
<linearGradient id="paint13_linear_1106_3939" x1="71.3992" y1="37.5425" x2="88.2147" y2="73.6104" gradientUnits="userSpaceOnUse">
<stop stop-color="#13567A"/>
<stop offset="1" stop-color="#13567A" stop-opacity="0"/>
</linearGradient>
<linearGradient id="paint14_linear_1106_3939" x1="45.7288" y1="57.0387" x2="42.1545" y2="67.6803" gradientUnits="userSpaceOnUse">
<stop stop-color="#104167" stop-opacity="0"/>
<stop offset="1" stop-color="#0B547D"/>
</linearGradient>
<linearGradient id="paint15_linear_1106_3939" x1="49.6281" y1="30.5562" x2="49.5918" y2="73.529" gradientUnits="userSpaceOnUse">
<stop stop-color="#0E76AF"/>
<stop offset="1" stop-color="#0D6799" stop-opacity="0"/>
</linearGradient>
<linearGradient id="paint16_linear_1106_3939" x1="47.516" y1="37.6235" x2="51.7402" y2="80.3526" gradientUnits="userSpaceOnUse">
<stop stop-color="#41B3D2"/>
<stop offset="1" stop-color="#41B3D2" stop-opacity="0"/>
</linearGradient>
<linearGradient id="paint17_linear_1106_3939" x1="66.4033" y1="39.6543" x2="66.4033" y2="48.0012" gradientUnits="userSpaceOnUse">
<stop stop-color="#0C89C0"/>
<stop offset="1" stop-color="#0C89C0" stop-opacity="0"/>
</linearGradient>
<linearGradient id="paint18_linear_1106_3939" x1="69.8467" y1="24.9104" x2="69.8467" y2="38.5983" gradientUnits="userSpaceOnUse">
<stop stop-color="#07A9DB"/>
<stop offset="1" stop-color="#D9D9D9" stop-opacity="0"/>
</linearGradient>
<linearGradient id="paint19_linear_1106_3939" x1="66.5249" y1="20.8896" x2="99.9934" y2="31.5313" gradientUnits="userSpaceOnUse">
<stop stop-color="#0D6FA7"/>
<stop offset="1" stop-color="#D9D9D9" stop-opacity="0"/>
</linearGradient>
<linearGradient id="paint20_linear_1106_3939" x1="39.7168" y1="69.0613" x2="48.6525" y2="59.8006" gradientUnits="userSpaceOnUse">
<stop stop-color="#41B3D2"/>
<stop offset="1" stop-color="#41B3D2" stop-opacity="0"/>
</linearGradient>
<linearGradient id="paint21_linear_1106_3939" x1="55.5551" y1="41.604" x2="55.5551" y2="57.3634" gradientUnits="userSpaceOnUse">
<stop stop-color="#41B3D2"/>
<stop offset="1" stop-color="#41B3D2" stop-opacity="0"/>
</linearGradient>
<linearGradient id="paint22_linear_1106_3939" x1="76.7201" y1="48.0015" x2="76.7201" y2="64.9183" gradientUnits="userSpaceOnUse">
<stop stop-color="#41B3D2"/>
<stop offset="1" stop-color="#41B3D2" stop-opacity="0"/>
</linearGradient>
<linearGradient id="paint23_linear_1106_3939" x1="64.7381" y1="45.3409" x2="73.7551" y2="65.4057" gradientUnits="userSpaceOnUse">
<stop stop-color="#41B3D2"/>
<stop offset="1" stop-color="#41B3D2" stop-opacity="0"/>
</linearGradient>
<linearGradient id="paint24_linear_1106_3939" x1="103.161" y1="31.3686" x2="97.5698" y2="35.5928" gradientUnits="userSpaceOnUse">
<stop stop-color="#41B3D2"/>
<stop offset="1" stop-color="#41B3D2" stop-opacity="0"/>
</linearGradient>
<linearGradient id="paint25_linear_1106_3939" x1="98.9738" y1="39.0046" x2="98.9738" y2="56.0638" gradientUnits="userSpaceOnUse">
<stop stop-color="#41B3D2"/>
<stop offset="1" stop-color="#41B3D2" stop-opacity="0"/>
</linearGradient>
<linearGradient id="paint26_linear_1106_3939" x1="79.8469" y1="63.6998" x2="104.948" y2="31.856" gradientUnits="userSpaceOnUse">
<stop stop-color="#41B3D2"/>
<stop offset="1" stop-color="#41B3D2" stop-opacity="0"/>
</linearGradient>
<linearGradient id="paint27_linear_1106_3939" x1="168.214" y1="126.531" x2="148.676" y2="29.342" gradientUnits="userSpaceOnUse">
<stop offset="0.9999" stop-color="#FECA00"/>
<stop offset="1" stop-color="#FECA00" stop-opacity="0"/>
</linearGradient>
<linearGradient id="paint28_linear_1106_3939" x1="168.214" y1="126.531" x2="148.676" y2="29.342" gradientUnits="userSpaceOnUse">
<stop offset="0.9999" stop-color="#FECA00"/>
<stop offset="1" stop-color="#FECA00" stop-opacity="0"/>
</linearGradient>
<linearGradient id="paint29_linear_1106_3939" x1="168.214" y1="126.531" x2="148.676" y2="29.342" gradientUnits="userSpaceOnUse">
<stop offset="0.9999" stop-color="#FECA00"/>
<stop offset="1" stop-color="#FECA00" stop-opacity="0"/>
</linearGradient>
<linearGradient id="paint30_linear_1106_3939" x1="168.214" y1="126.531" x2="148.676" y2="29.342" gradientUnits="userSpaceOnUse">
<stop offset="0.9999" stop-color="#FECA00"/>
<stop offset="1" stop-color="#FECA00" stop-opacity="0"/>
</linearGradient>
<linearGradient id="paint31_linear_1106_3939" x1="168.214" y1="126.531" x2="148.676" y2="29.342" gradientUnits="userSpaceOnUse">
<stop offset="0.9999" stop-color="#FECA00"/>
<stop offset="1" stop-color="#FECA00" stop-opacity="0"/>
</linearGradient>
<linearGradient id="paint32_linear_1106_3939" x1="168.214" y1="126.531" x2="148.676" y2="29.342" gradientUnits="userSpaceOnUse">
<stop offset="0.9999" stop-color="#FECA00"/>
<stop offset="1" stop-color="#FECA00" stop-opacity="0"/>
</linearGradient>
<linearGradient id="paint33_linear_1106_3939" x1="168.214" y1="126.531" x2="148.676" y2="29.342" gradientUnits="userSpaceOnUse">
<stop offset="0.9999" stop-color="#FECA00"/>
<stop offset="1" stop-color="#FECA00" stop-opacity="0"/>
</linearGradient>
<linearGradient id="paint34_linear_1106_3939" x1="168.214" y1="126.531" x2="148.676" y2="29.342" gradientUnits="userSpaceOnUse">
<stop offset="0.9999" stop-color="#FECA00"/>
<stop offset="1" stop-color="#FECA00" stop-opacity="0"/>
</linearGradient>
<linearGradient id="paint35_linear_1106_3939" x1="168.214" y1="126.531" x2="148.676" y2="29.342" gradientUnits="userSpaceOnUse">
<stop offset="0.9999" stop-color="#FECA00"/>
<stop offset="1" stop-color="#FECA00" stop-opacity="0"/>
</linearGradient>
<linearGradient id="paint36_linear_1106_3939" x1="168.214" y1="126.531" x2="148.676" y2="29.342" gradientUnits="userSpaceOnUse">
<stop offset="0.9999" stop-color="#FECA00"/>
<stop offset="1" stop-color="#FECA00" stop-opacity="0"/>
</linearGradient>
<linearGradient id="paint37_linear_1106_3939" x1="168.214" y1="126.531" x2="148.676" y2="29.342" gradientUnits="userSpaceOnUse">
<stop offset="0.9999" stop-color="#FECA00"/>
<stop offset="1" stop-color="#FECA00" stop-opacity="0"/>
</linearGradient>
<linearGradient id="paint38_linear_1106_3939" x1="168.214" y1="126.531" x2="148.676" y2="29.342" gradientUnits="userSpaceOnUse">
<stop offset="0.9999" stop-color="#FECA00"/>
<stop offset="1" stop-color="#FECA00" stop-opacity="0"/>
</linearGradient>
<linearGradient id="paint39_linear_1106_3939" x1="168.214" y1="126.531" x2="148.676" y2="29.342" gradientUnits="userSpaceOnUse">
<stop offset="0.9999" stop-color="#FECA00"/>
<stop offset="1" stop-color="#FECA00" stop-opacity="0"/>
</linearGradient>
<clipPath id="clip0_1106_3939">
<rect width="138" height="125.679" fill="white" transform="translate(0 0.321533)"/>
</clipPath>
</defs>
</svg>
